<?xml version="1.0" encoding="UTF-8"?>
<!DOCTYPE svg PUBLIC "-//W3C//DTD SVG 1.1//EN" "http://www.w3.org/Graphics/SVG/1.1/DTD/svg11.dtd">
<svg xmlns="http://www.w3.org/2000/svg" version="1.1" width="700px" height="577px" style="shape-rendering:geometricPrecision; text-rendering:geometricPrecision; image-rendering:optimizeQuality; fill-rule:evenodd; clip-rule:evenodd" xmlns:xlink="http://www.w3.org/1999/xlink">
<g><path style="opacity:0.916" fill="#000000" d="M 573.5,43.5 C 578.227,43.9298 582.56,45.4298 586.5,48C 593.458,53.9512 599.291,60.7845 604,68.5C 605.864,76.4304 604.197,83.4304 599,89.5C 560.028,127.472 521.361,165.805 483,204.5C 482.5,234.165 482.333,263.831 482.5,293.5C 501.836,293.667 521.17,293.5 540.5,293C 543.239,289.124 546.905,286.457 551.5,285C 564.833,284.333 578.167,284.333 591.5,285C 599.005,287.502 603.172,292.669 604,300.5C 604.667,349.833 604.667,399.167 604,448.5C 602.614,456.22 598.114,461.053 590.5,463C 577.5,463.667 564.5,463.667 551.5,463C 546.905,461.543 543.239,458.876 540.5,455C 524.837,454.5 509.17,454.333 493.5,454.5C 496.745,475.002 488.245,487.668 468,492.5C 463.267,512.589 450.933,520.256 431,515.5C 424.322,531.423 412.489,537.756 395.5,534.5C 388.111,551.687 375.444,557.187 357.5,551C 354.688,549.023 352.022,546.856 349.5,544.5C 335.889,557.109 322.055,557.442 308,545.5C 303.758,540.275 301.591,534.275 301.5,527.5C 286.753,526.086 278.086,518.086 275.5,503.5C 263.947,503.974 255.114,499.307 249,489.5C 247.1,485.368 246.267,481.034 246.5,476.5C 232.917,475.428 224.251,468.261 220.5,455C 199.5,454.333 178.5,454.333 157.5,455C 155.116,459.365 151.449,462.032 146.5,463C 133.5,463.667 120.5,463.667 107.5,463C 99.2983,460.126 94.7983,454.293 94,445.5C 93.9084,395.834 94.2417,346.167 95,296.5C 96.963,290.269 101.13,286.436 107.5,285C 120.5,284.333 133.5,284.333 146.5,285C 151.211,286.018 154.878,288.518 157.5,292.5C 177.155,293.5 196.822,293.833 216.5,293.5C 216.5,241.833 216.5,190.167 216.5,138.5C 192.498,138.667 168.498,138.5 144.5,138C 141.667,137.167 139.833,135.333 139,132.5C 136.286,108.65 142.786,87.8166 158.5,70C 163.919,65.6237 169.919,62.2904 176.5,60C 220.969,58.849 265.469,58.349 310,58.5C 354.861,58.3516 399.694,58.8516 444.5,60C 456.231,64.1116 465.064,71.6116 471,82.5C 478.294,96.9699 482.294,112.303 483,128.5C 510.167,101.333 537.333,74.1667 564.5,47C 567.459,45.3957 570.459,44.2291 573.5,43.5 Z M 573.5,61.5 C 579.34,64.66 584.34,68.9933 588.5,74.5C 583.515,79.9853 578.348,85.3187 573,90.5C 568.318,85.9852 563.818,81.3185 559.5,76.5C 564.188,71.4797 568.855,66.4797 573.5,61.5 Z M 252.5,75.5 C 313.501,75.3333 374.501,75.5 435.5,76C 441.649,76.4915 446.816,78.9915 451,83.5C 457.483,91.8007 461.816,101.134 464,111.5C 465.499,123.128 465.832,134.794 465,146.5C 450.333,161.167 435.667,175.833 421,190.5C 416.135,204.462 411.968,218.628 408.5,233C 408.694,238.366 411.528,241.199 417,241.5C 430.223,237.87 443.39,234.037 456.5,230C 459.63,227.872 462.463,225.372 465,222.5C 465.5,246.164 465.667,269.831 465.5,293.5C 453.894,289.91 442.227,286.41 430.5,283C 413.311,279.753 397.311,282.753 382.5,292C 371.357,300.309 360.357,308.809 349.5,317.5C 335.949,305.796 320.949,296.296 304.5,289C 280.444,280.275 256.444,280.441 232.5,289.5C 232.667,230.166 232.5,170.832 232,111.5C 230.634,98.7291 226.134,87.2291 218.5,77C 230.007,76.8306 241.341,76.3306 252.5,75.5 Z M 180.5,76.5 C 195.144,76.244 205.31,82.9106 211,96.5C 214.047,104.571 215.881,112.905 216.5,121.5C 196.167,121.5 175.833,121.5 155.5,121.5C 155.019,104.751 161.019,90.9179 173.5,80C 175.925,78.7874 178.259,77.6207 180.5,76.5 Z M 546.5,88.5 C 551.631,93.1302 556.631,97.9635 561.5,103C 523.861,139.639 486.528,176.639 449.5,214C 442.947,216.094 436.447,218.261 430,220.5C 431.02,213.755 432.686,207.088 435,200.5C 472.368,163.299 509.535,125.965 546.5,88.5 Z M 413.5,298.5 C 428.877,299.569 443.544,303.403 457.5,310C 484.5,310.333 511.5,310.667 538.5,311C 538.275,352.759 538.275,394.592 538.5,436.5C 518.164,436.667 497.831,436.5 477.5,436C 450.5,411 423.5,386 396.5,361C 393.033,358.214 389.366,357.88 385.5,360C 375.833,369 366.167,378 356.5,387C 347.974,391.789 338.974,393.123 329.5,391C 321.227,389.131 313.227,386.464 305.5,383C 331.697,355.129 360.03,329.795 390.5,307C 397.745,302.645 405.412,299.812 413.5,298.5 Z M 263.5,299.5 C 284.416,299.195 303.416,305.028 320.5,317C 325.833,321 331.167,325 336.5,329C 317.975,346.526 299.808,364.359 282,382.5C 280.703,387.117 281.87,390.95 285.5,394C 300.935,400.812 316.935,405.812 333.5,409C 345.532,410.496 356.532,407.83 366.5,401C 374.584,393.92 382.417,386.42 390,378.5C 417.549,404.35 445.382,429.85 473.5,455C 480.725,463.014 479.392,469.347 469.5,474C 467.833,474.667 466.167,474.667 464.5,474C 461.611,471.388 458.278,469.555 454.5,468.5C 447.388,470.049 444.888,474.382 447,481.5C 453.553,488.629 452.72,494.796 444.5,500C 441.366,500.79 438.366,500.457 435.5,499C 430.833,495 426.167,491 421.5,487C 412.338,486.173 408.838,490.339 411,499.5C 417.262,505.797 416.762,511.63 409.5,517C 406.45,518.714 403.45,518.714 400.5,517C 395.789,512.62 390.789,508.62 385.5,505C 376.972,504.844 373.805,509.011 376,517.5C 382.1,523.484 381.933,529.318 375.5,535C 369.801,537.738 365.134,536.571 361.5,531.5C 369.196,511.235 362.863,497.569 342.5,490.5C 341.201,475.215 333.201,465.881 318.5,462.5C 318.82,445.162 310.487,435.162 293.5,432.5C 291.995,415.994 282.995,406.661 266.5,404.5C 260.246,405.195 254.579,407.361 249.5,411C 240.629,418.705 232.296,426.872 224.5,435.5C 203.177,436.5 181.844,436.833 160.5,436.5C 160.5,394.5 160.5,352.5 160.5,310.5C 182.503,310.667 204.503,310.5 226.5,310C 234.48,307.347 242.48,304.68 250.5,302C 254.988,301.24 259.322,300.406 263.5,299.5 Z M 110.5,301.5 C 121.5,301.5 132.5,301.5 143.5,301.5C 143.5,349.833 143.5,398.167 143.5,446.5C 132.5,446.5 121.5,446.5 110.5,446.5C 110.5,398.167 110.5,349.833 110.5,301.5 Z M 554.5,301.5 C 565.5,301.5 576.5,301.5 587.5,301.5C 587.5,349.833 587.5,398.167 587.5,446.5C 576.5,446.5 565.5,446.5 554.5,446.5C 554.5,398.167 554.5,349.833 554.5,301.5 Z M 262.5,422.5 C 273.882,421.704 278.049,426.704 275,437.5C 268.469,444.365 261.636,450.865 254.5,457C 245.632,461.896 239.632,459.563 236.5,450C 237.137,447.755 237.97,445.588 239,443.5C 246.73,436.264 254.563,429.264 262.5,422.5 Z M 289.5,449.5 C 300.271,450.04 303.771,455.373 300,465.5C 292.833,472 285.667,478.5 278.5,485C 271.038,488.183 265.871,486.017 263,478.5C 262.516,476.087 262.85,473.754 264,471.5C 270.213,464.987 276.713,458.82 283.5,453C 285.432,451.541 287.432,450.375 289.5,449.5 Z M 312.5,478.5 C 322.804,479.451 326.304,484.785 323,494.5C 318.135,499.7 312.968,504.533 307.5,509C 300.139,511.883 294.972,509.717 292,502.5C 291.516,500.087 291.85,497.754 293,495.5C 298.829,488.822 305.329,483.156 312.5,478.5 Z M 335.5,507.5 C 347.952,508.739 351.118,514.739 345,525.5C 340.786,529.382 336.286,532.882 331.5,536C 322.655,537.15 318.155,533.317 318,524.5C 319.4,521.098 321.567,518.264 324.5,516C 328.067,512.92 331.733,510.087 335.5,507.5 Z"/></g>
<g><path style="opacity:0.905" fill="#000000" d="M 274.5,100.5 C 324.168,100.333 373.834,100.5 423.5,101C 430.579,105.482 431.246,110.816 425.5,117C 374.5,117.667 323.5,117.667 272.5,117C 266.733,110.676 267.4,105.176 274.5,100.5 Z"/></g>
<g><path style="opacity:0.905" fill="#000000" d="M 274.5,142.5 C 324.168,142.333 373.834,142.5 423.5,143C 430.579,147.482 431.246,152.816 425.5,159C 374.833,159.667 324.167,159.667 273.5,159C 266.632,153.144 266.965,147.644 274.5,142.5 Z"/></g>
<g><path style="opacity:0.896" fill="#000000" d="M 274.5,184.5 C 294.169,184.333 313.836,184.5 333.5,185C 338.155,187.897 339.655,192.063 338,197.5C 336.833,198.667 335.667,199.833 334.5,201C 314.167,201.667 293.833,201.667 273.5,201C 266.644,195.1 266.977,189.6 274.5,184.5 Z"/></g>
<g><path style="opacity:0.898" fill="#000000" d="M 313.5,223.5 C 330.358,222.194 341.524,229.528 347,245.5C 348.194,246.43 349.527,247.097 351,247.5C 356.539,242.622 362.039,237.789 367.5,233C 383.942,228.296 396.442,233.463 405,248.5C 406.381,256.944 402.881,260.777 394.5,260C 391.167,258 388.5,255.333 386.5,252C 383.888,250.111 381.055,248.611 378,247.5C 376.775,247.862 375.609,248.362 374.5,249C 370.15,253.419 365.816,257.752 361.5,262C 345.525,267.763 334.691,262.597 329,246.5C 321.108,238.415 313.442,238.749 306,247.5C 303.837,251.983 301.67,256.483 299.5,261C 291.967,264.476 287.301,262.143 285.5,254C 288.814,238.19 298.147,228.024 313.5,223.5 Z"/></g>
</svg>
