<svg width="484" height="480" xmlns="http://www.w3.org/2000/svg" xmlns:xlink="http://www.w3.org/1999/xlink" xml:space="preserve" overflow="hidden"><defs><clipPath id="clip0"><rect x="379" y="58" width="484" height="480"/></clipPath></defs><g clip-path="url(#clip0)" transform="translate(-379 -58)"><path d="M72.837 294.637C96.5627 307.294 99.5247 313.533 114.527 312.009 99.1514 323.238 88.0347 343.896 88.0945 362.44 88.4206 400.146 88.198 396.776 88.4943 398.628 89.1104 401.938 91.4829 404.92 95.1531 407.007 103.011 411.573 115.289 411.556 123.112 407.004 128.76 403.708 129.823 399.808 129.823 396.37L129.594 362.358C129.594 356.725 134.817 347.727 139.739 344.856L171.18 326.731 207.645 347.916 204.44 349.768C186.764 359.956 173.472 382.948 173.538 403.255 173.864 440.961 173.641 437.591 173.938 439.442 174.554 442.755 176.926 445.737 180.603 447.822 188.461 452.388 200.739 452.371 208.562 447.818 214.105 444.588 215.267 440.693 215.267 437.188L215.037 403.176C215.037 397.54 220.261 388.538 225.189 385.671L248.999 371.943 300.174 401.675C300.003 403.728 299.912 405.761 299.917 407.764 299.956 423.51 305.468 435.369 315.437 441.156L339.463 455.126C339.47 455.126 339.47 455.129 339.477 455.129 339.485 455.134 339.494 455.132 339.502 455.136 339.526 455.15 339.545 455.168 339.568 455.182 351.194 461.882 365.168 458.466 376.755 451.777 403.934 436.087 425.975 397.94 425.89 366.737 425.845 350.978 420.333 339.117 410.373 333.291 410.349 333.276 410.336 333.251 410.311 333.236 410.305 333.23 410.292 333.223 410.285 333.216L386.272 319.266C376.537 313.601 363.925 314.552 350.624 321.763L289.217 286.079C289.463 284.995 289.747 283.916 289.752 282.794L289.811 263.447C289.811 263.44 289.807 263.435 289.807 263.428 289.807 263.412 289.811 263.397 289.811 263.381 289.798 256.87 285.649 250.886 278.119 246.541 275.561 245.065 272.684 243.955 269.702 243.014L269.734 198.483C297.053 175.687 317.48 135.791 317.383 102.296 317.331 82.9519 310.598 68.4169 298.435 61.3133 298.412 61.2994 298.4 61.2752 298.377 61.2617 298.364 61.2551 298.357 61.2486 298.344 61.242L298.267 61.1974C298.267 61.197 298.266 61.1966 298.266 61.1961 298.265 61.1957 298.264 61.1957 298.264 61.1953L279.226 50.1331C266.866 42.9468 250.625 44.4181 233.526 54.2883 199.813 73.7502 172.476 121.109 172.581 159.856 172.633 179.242 179.391 193.825 191.601 200.919 209.918 210.396 216.127 219.588 236.588 215.579L236.571 242.641C233.101 243.633 229.762 244.848 226.841 246.548 225.893 247.098 225.003 247.676 224.166 248.277L183.12 224.425C183.209 223.013 183.294 221.602 183.29 220.217 183.245 204.446 177.728 192.578 167.756 186.756 160.889 182.746 142.81 172.243 143.672 172.744 133.572 166.868 120.346 168.038 106.452 176.057 79.2729 191.75 57.2321 229.963 57.3173 261.241 57.3566 276.987 62.8685 288.846 72.837 294.637ZM136.371 339.049C129.312 343.165 122.883 354.274 122.883 362.381L123.112 396.744C123.112 398.762 121.486 400.183 119.737 401.207 113.989 404.546 104.27 404.549 98.4956 401.19 96.5753 400.099 95.3366 398.72 95.1006 397.409 94.9981 395.968 95.1044 403.903 94.8057 362.408 94.7533 344.325 106.59 323.844 122.345 314.764L166.145 289.459C167.944 288.445 169.375 287.863 172.673 289.78 178.388 293.051 183.218 301.437 183.218 308.086 183.218 312.824 181.275 312.904 180.138 313.82L136.371 339.049ZM221.821 379.864C214.762 383.977 208.326 395.089 208.326 403.199L208.556 437.558C208.556 439.586 206.936 440.998 205.187 442.021 199.439 445.361 189.72 445.361 183.946 442.002 182.025 440.914 180.78 439.537 180.544 438.223 180.441 436.782 180.548 444.717 180.249 403.222 180.197 385.143 192.033 364.665 207.795 355.582L251.497 330.326C251.903 330.1 252.303 329.871 252.932 329.612 254.125 329.025 256.026 329.382 258.11 330.592 263.831 333.869 268.661 342.254 268.661 348.903 268.661 350.961 268.177 352.587 267.036 353.691 266.761 353.861 266.44 354.061 266.4 354.087 266.269 354.166 265.699 354.54 265.581 354.635L221.821 379.864ZM318.806 435.353C310.987 430.814 306.661 421.01 306.628 407.744 306.55 379.245 326.192 344.565 350.756 329.382L368.301 339.58C349.809 354.858 339.019 365.877 329.569 392.087 326.28 401.221 323.929 411.853 323.957 421.734 323.977 428.926 325.411 435.799 327.155 440.206L318.806 435.353ZM419.179 366.756C419.257 395.816 398.724 431.348 373.4 445.964 349.115 459.979 330.749 449.163 330.668 421.714 330.583 392.579 351.123 356.981 376.447 342.362 400.024 328.747 419.096 338.539 419.179 366.756ZM344.093 325.732C322.901 340.421 305.707 368.362 301.142 394.476L255.703 368.077 268.963 360.432C269.396 360.176 269.815 359.914 269.861 359.835 269.9 359.812 270.405 359.468 270.444 359.442 270.654 359.337 271.139 358.977 271.322 358.832 273.937 356.752 275.373 353.226 275.373 348.903 275.373 339.843 269.258 329.245 261.472 324.782 257.415 322.422 253.358 321.983 250.232 323.468 249.524 323.756 248.875 324.103 248.187 324.487L214.341 344.046 177.883 322.866 183.598 319.571C186.152 318.043 189.929 313.928 189.929 308.086 189.929 299.025 183.814 288.424 176.028 283.967 170.466 280.728 166.692 281.494 162.744 283.669L136.508 298.828 116.84 287.401C112.095 284.616 109.46 278.534 109.414 270.283 109.362 251.656 122.529 228.862 138.75 219.47 144.519 216.16 151.784 214.009 157.54 217.32L219.091 253.09C216.678 256.152 215.361 259.551 215.331 263.126 215.33 263.158 215.313 263.185 215.313 263.217L215.254 282.568C215.234 289.096 219.389 295.096 226.939 299.461 241.366 307.788 263.905 307.797 278.243 299.461 281.798 297.397 284.538 294.943 286.48 292.252L344.093 325.732ZM227.005 280.11C242.36 288.98 265.192 287.739 278.302 280.113 280.014 279.119 281.526 278.03 282.874 276.877 282.929 276.83 283.006 276.792 283.06 276.745L283.041 282.771C283.028 286.739 280.124 290.606 274.875 293.66 262.625 300.775 242.636 300.768 230.295 293.647 224.914 290.537 221.952 286.608 221.965 282.587L221.984 276.545C221.985 276.545 221.986 276.546 221.987 276.546 223.439 277.825 225.114 279.019 227.005 280.11ZM179.292 159.836C179.194 123.871 204.132 80.0485 235.223 61.088L247.846 68.4218C216.782 89.1653 191.63 134.15 191.732 170.987 191.759 181.069 193.802 189.901 196.673 196.105 196.673 196.105 179.373 189.587 179.292 159.836ZM198.443 170.968C198.338 134.364 224.173 89.6205 256.032 71.2302 286.276 53.7747 310.576 66.7156 310.672 102.315 310.777 138.929 284.935 183.689 253.063 202.089 222.636 219.67 198.539 206.391 198.443 170.968ZM263.021 203.664 262.979 259.908C262.979 260.661 262.147 261.612 260.816 262.388 256.668 264.803 249.655 264.79 245.493 262.382 244.117 261.589 243.272 260.622 243.272 259.845L243.302 213.811C250.714 211.345 256.855 207.989 263.021 203.664ZM236.567 249.61 236.56 259.832C236.547 263.096 238.586 266.144 242.138 268.195 248.398 271.809 258.075 271.741 264.192 268.189 267.672 266.16 269.677 263.149 269.69 259.921L269.697 250.096C271.481 250.743 273.21 251.457 274.763 252.354 286.1 258.902 285.525 268.148 274.934 274.313 262.684 281.421 242.701 281.424 230.36 274.297 219.644 268.115 218.935 258.901 230.21 252.348 232.136 251.229 234.31 250.366 236.567 249.61ZM176.579 220.237C176.579 220.361 176.566 220.49 176.564 220.615L160.902 211.514C153.896 207.473 144.845 208.24 135.394 213.657 117.312 224.123 102.651 249.536 102.703 270.309 102.762 281.031 106.577 289.155 113.458 293.195L127.337 301.258C116.962 306.357 107.465 306.965 100.318 302.846 75.2101 288.401 91.0902 220.521 133.847 195.84 157.321 182.282 176.495 191.918 176.579 220.237ZM108.156 182.86 125.701 193.058C119.865 198.038 102.494 208.676 89.3135 239.609 84.6483 250.562 81.3232 263.118 81.3571 275.211 81.3775 282.407 82.8106 289.277 84.5554 293.687L76.2057 288.837C68.3869 284.292 64.0613 274.487 64.0285 261.222 63.9499 232.722 83.5919 198.042 108.156 182.86Z" transform="matrix(1.00164 0 0 1 379 58)"/><path d="M373.527 358.073C356.548 367.871 342.79 391.763 342.857 411.293 342.982 432.061 358.358 440.56 376.279 430.285 393.527 420.286 406.949 396.998 406.949 377.2 406.949 377.2 406.949 377.2 406.949 377.133 406.949 356.093 391.174 347.859 373.527 358.073ZM347.898 411.254C347.876 403.524 350.315 395.09 354.236 387.23 359.409 376.88 367.228 367.546 376.078 362.435 376.195 362.365 376.315 362.321 376.432 362.253 378.312 361.212 380.417 360.319 381.708 359.891 386.99 362.282 390.034 368.515 390.079 377.187 390.125 395.036 377.489 416.884 361.898 425.902 359.928 427.049 358.088 427.887 356.307 428.46 350.058 425.617 347.935 418.08 347.898 411.254Z" transform="matrix(1.00164 0 0 1 379 58)"/><path d="M254.288 92.0917C254.862 91.7608 255.338 90.9358 255.336 90.255L255.307 80.0215C255.305 79.3628 254.826 79.0896 254.252 79.4205 253.66 79.7626 253.184 80.5876 253.186 81.2462L253.215 91.4798C253.217 92.1605 253.696 92.4338 254.288 92.0917Z" transform="matrix(1.00164 0 0 1 379 58)"/><path d="M254.542 181.448C253.949 181.79 253.473 182.615 253.475 183.296L253.504 193.507C253.506 194.188 253.985 194.461 254.578 194.119 255.151 193.788 255.627 192.963 255.625 192.283L255.596 182.071C255.594 181.391 255.115 181.117 254.542 181.448Z" transform="matrix(1.00164 0 0 1 379 58)"/><path d="M219.284 135.309C219.453 135.32 219.635 135.266 219.814 135.162 220.185 134.948 220.543 134.521 220.736 134.01 221.021 133.273 220.847 132.626 220.348 132.561L212.613 131.924C212.446 131.903 212.262 131.953 212.079 132.058 211.718 132.266 211.364 132.691 211.162 133.202 210.877 133.961 211.051 134.586 211.568 134.639L219.284 135.309Z" transform="matrix(1.00164 0 0 1 379 58)"/><path d="M296.333 141.923C296.496 141.937 296.676 141.884 296.854 141.781 297.219 141.571 297.579 141.147 297.784 140.645 298.069 139.887 297.895 139.239 297.378 139.208L289.661 138.538C289.498 138.516 289.318 138.566 289.14 138.67 288.774 138.88 288.415 139.314 288.21 139.815 287.925 140.574 288.1 141.221 288.617 141.253L296.333 141.923Z" transform="matrix(1.00164 0 0 1 379 58)"/><path d="M220.101 178.56C219.923 178.664 219.743 178.818 219.58 179.021L211.893 188.584C211.378 189.212 211.208 190.058 211.497 190.485 211.703 190.75 212.056 190.762 212.421 190.551 212.6 190.448 212.781 190.292 212.95 190.085L220.638 180.522C221.153 179.895 221.323 179.049 221.034 178.621 220.828 178.356 220.466 178.35 220.101 178.56Z" transform="matrix(1.00164 0 0 1 379 58)"/><path d="M289.176 95.1389C289.357 95.0348 289.54 94.8776 289.709 94.6715L297.397 85.1081C297.912 84.4806 298.082 83.6347 297.793 83.2075 297.587 82.9425 297.226 82.9355 296.861 83.1464 296.682 83.2497 296.503 83.4045 296.34 83.6069L288.633 93.1813C288.137 93.7974 287.967 94.6432 288.256 95.0709 288.449 95.3433 288.807 95.3523 289.176 95.1389Z" transform="matrix(1.00164 0 0 1 379 58)"/><path d="M233.035 107.77C233.22 107.663 233.408 107.499 233.581 107.28 234.077 106.664 234.247 105.818 233.958 105.391L232.267 103.024C232.063 102.748 231.708 102.733 231.346 102.941 231.164 103.047 230.98 103.209 230.813 103.423 230.299 104.051 230.129 104.896 230.436 105.291L232.127 107.68C232.319 107.964 232.67 107.981 233.035 107.77Z" transform="matrix(1.00164 0 0 1 379 58)"/><path d="M275.989 165.673C275.809 165.777 275.627 165.933 275.46 166.138 274.944 166.787 274.775 167.633 275.082 168.027L276.773 170.416C276.967 170.689 277.324 170.708 277.693 170.495 277.874 170.39 278.058 170.23 278.227 170.017 278.723 169.401 278.893 168.555 278.605 168.127L276.913 165.761C276.719 165.472 276.36 165.459 275.989 165.673Z" transform="matrix(1.00164 0 0 1 379 58)"/><path d="M212.906 160.769C212.904 160.088 212.424 159.815 211.832 160.157L208.468 162.099C207.895 162.43 207.419 163.255 207.42 163.935 207.423 164.594 207.902 164.867 208.475 164.536L211.839 162.594C212.431 162.252 212.907 161.427 212.906 160.769Z" transform="matrix(1.00164 0 0 1 379 58)"/><path d="M296.211 112.672C296.213 113.331 296.693 113.604 297.285 113.262L300.649 111.32C301.222 110.989 301.698 110.164 301.697 109.505 301.694 108.824 301.215 108.551 300.642 108.882L297.278 110.824C296.686 111.166 296.21 111.991 296.211 112.672Z" transform="matrix(1.00164 0 0 1 379 58)"/><path d="M233.34 190.281C232.98 190.489 232.631 190.91 232.441 191.414L230.75 195.735C230.465 196.493 230.639 197.14 231.156 197.172 231.323 197.193 231.507 197.143 231.69 197.038 232.051 196.829 232.405 196.405 232.607 195.894L234.279 191.563C234.564 190.827 234.39 190.179 233.873 190.148 233.706 190.126 233.522 190.176 233.34 190.281Z" transform="matrix(1.00164 0 0 1 379 58)"/><path d="M275.827 83.049C276.194 82.8372 276.547 82.4128 276.752 81.8938L278.424 77.585C278.709 76.8264 278.535 76.1792 278.037 76.1366 277.868 76.119 277.683 76.1714 277.503 76.2759 277.133 76.4893 276.778 76.9198 276.586 77.4142L274.914 81.7456C274.61 82.4927 274.784 83.1403 275.301 83.1936 275.469 83.2038 275.65 83.151 275.827 83.049Z" transform="matrix(1.00164 0 0 1 379 58)"/><path d="M255.835 146.053C260.063 143.612 263.366 137.89 263.359 133.017 263.355 131.32 262.899 129.866 262.14 128.698L264.269 124.992C264.94 123.784 264.537 122.241 263.329 121.57 262.121 120.899 260.578 121.301 259.907 122.509L257.815 126.14C256.374 126.037 254.819 126.372 253.279 127.256 249.046 129.698 245.749 135.423 245.762 140.282 245.766 142.052 246.257 143.56 247.075 144.75L230.981 172.575C230.31 173.783 230.713 175.326 231.921 175.997 232.916 176.662 234.592 176.346 235.343 175.058L251.46 147.175C251.561 147.18 251.643 147.249 251.746 147.249 253.057 147.249 254.459 146.846 255.835 146.053ZM255.796 131.615C257.55 130.608 258.313 130.992 258.326 133.03 258.333 136.104 255.993 140.151 253.319 141.695 251.562 142.708 250.796 142.307 250.796 140.269 250.782 137.205 253.122 133.161 255.796 131.615Z" transform="matrix(1.00164 0 0 1 379 58)"/><path d="M347.086 123.38C347.086 123.38 347.086 123.38 347.151 123.38 348.96 123.314 350.441 121.836 350.441 119.959 350.441 118.146 348.96 116.603 347.086 116.669 345.205 116.669 343.73 118.146 343.73 120.024 343.73 121.836 345.27 123.38 347.086 123.38Z" transform="matrix(1.00164 0 0 1 379 58)"/><path d="M347.014 109.892C348.895 109.892 350.369 108.414 350.369 106.536 350.369 104.724 348.829 103.181 347.014 103.246 345.139 103.246 343.658 104.724 343.658 106.602 343.658 108.414 345.139 109.892 347.014 109.892Z" transform="matrix(1.00164 0 0 1 379 58)"/><path d="M347.217 136.802C349.098 136.737 350.572 135.259 350.572 133.381 350.507 131.569 349.032 130.025 347.151 130.091 345.336 130.091 343.861 131.569 343.861 133.447 343.861 135.259 345.336 136.802 347.217 136.802Z" transform="matrix(1.00164 0 0 1 379 58)"/><path d="M346.948 96.5349C348.829 96.4693 350.304 94.9914 350.304 93.1137 350.238 91.3016 348.763 89.7581 346.883 89.8237 345.074 89.8237 343.592 91.3016 343.592 93.1793 343.592 95.0602 345.074 96.5349 346.948 96.5349Z" transform="matrix(1.00164 0 0 1 379 58)"/><path d="M334.397 150.896C332.792 151.768 332.182 153.849 333.126 155.461 334.167 157.129 336.271 157.598 337.753 156.667 339.365 155.795 339.903 153.715 338.965 152.106 338.022 150.493 335.944 149.956 334.397 150.896Z" transform="matrix(1.00164 0 0 1 379 58)"/><path d="M346.883 83.1124C348.691 83.1124 350.238 81.569 350.173 79.6913 350.173 77.8792 348.691 76.3357 346.817 76.4012 344.936 76.4012 343.461 77.8792 343.461 79.7568 343.461 81.569 345.002 83.1124 346.817 83.1124L346.883 83.1124Z" transform="matrix(1.00164 0 0 1 379 58)"/><path d="M322.725 157.608C321.112 158.548 320.575 160.56 321.512 162.172 322.506 163.939 324.838 164.267 326.08 163.378 327.686 162.441 328.224 160.426 327.352 158.817 326.415 157.204 324.33 156.667 322.725 157.608Z" transform="matrix(1.00164 0 0 1 379 58)"/><path d="M311.111 164.319C309.499 165.19 308.962 167.271 309.905 168.884 310.812 170.495 312.933 171.053 314.467 170.089 316.079 169.152 316.617 167.137 315.745 165.528 314.801 163.916 312.723 163.378 311.111 164.319Z" transform="matrix(1.00164 0 0 1 379 58)"/><path d="M347.282 150.159C349.163 150.159 350.638 148.681 350.638 146.803 350.638 144.991 349.098 143.448 347.282 143.513 345.408 143.513 343.927 144.991 343.927 146.869 343.927 148.681 345.408 150.159 347.282 150.159Z" transform="matrix(1.00164 0 0 1 379 58)"/><path d="M299.504 171.03C297.892 171.902 297.355 173.983 298.292 175.595 299.204 177.215 301.334 177.759 302.86 176.801 304.466 175.929 305.003 173.848 304.066 172.239 303.194 170.627 301.11 170.089 299.504 171.03Z" transform="matrix(1.00164 0 0 1 379 58)"/><path d="M359.593 56.8304 359.454 26.6992C359.454 24.6904 358.068 23.7901 356.267 24.8293L330.085 39.9987C328.353 40.9687 326.898 43.4621 326.968 45.4708L327.037 75.6021C327.037 77.6104 328.422 78.442 330.223 77.4028L356.406 62.3025C358.138 61.2637 359.593 58.77 359.593 56.8304Z" transform="matrix(1.00164 0 0 1 379 58)"/><text font-family="Arial,Arial_MSFontService,sans-serif" font-weight="700" font-size="5" transform="matrix(6.72222 0 0 6.71121 379 642)">Created by Vectors Market</text><text font-family="Arial,Arial_MSFontService,sans-serif" font-weight="700" font-size="5" transform="matrix(6.72222 0 0 6.71121 379 675)">from the Noun Project</text></g></svg>