<?xml version="1.0" encoding="UTF-8"?>
<svg version="1.1" xmlns="http://www.w3.org/2000/svg" width="540" height="444">
<path d="M0 0 C2.57194904 1.08351867 4.91504387 2.19828283 7.35546875 3.51953125 C8.78084047 4.26165533 10.20713793 5.00200364 11.63427734 5.74072266 C12.72189362 6.30826263 12.72189362 6.30826263 13.83148193 6.88726807 C17.19954742 8.61552391 20.62046866 10.22399345 24.05078125 11.82421875 C24.71982483 12.1375264 25.38886841 12.45083405 26.07818604 12.77363586 C27.45152709 13.4163661 28.82518764 14.05841411 30.19915771 14.69979858 C33.87450162 16.4175243 37.54406932 18.14753709 41.21484375 19.875 C46.177709 22.20944988 51.14485897 24.53414343 56.11936951 26.84367371 C58.02084171 27.72879016 59.91953173 28.61956985 61.81713867 29.51293945 C64.13159859 30.60227457 66.45057916 31.68207331 68.7746582 32.75073242 C70.32092896 33.4832019 70.32092896 33.4832019 71.8984375 34.23046875 C72.79224121 34.64707764 73.68604492 35.06368652 74.60693359 35.49291992 C77.60144853 37.3787739 79.17052279 38.95288366 81 42 C81.316435 44.84090773 81.41928017 47.29218494 81.328125 50.1171875 C81.32311972 51.70963234 81.3192488 53.30208108 81.31640625 54.89453125 C81.2894197 57.38563475 81.24999481 59.87521199 81.18896484 62.36572266 C80.64370661 71.85809747 80.64370661 71.85809747 83.65429688 80.51660156 C85.68059641 82.27367914 87.72985514 83.58128474 90 85 C91.70124123 86.6313595 93.3663208 88.30098622 95 90 C95.78157471 90.78681152 96.56314941 91.57362305 97.3684082 92.38427734 C98.17109131 93.1933252 98.97377441 94.00237305 99.80078125 94.8359375 C101.63794865 96.68236349 103.47519045 98.52871546 105.3125 100.375 C106.22451172 101.29539062 107.13652344 102.21578125 108.07617188 103.1640625 C112.61913186 107.7233055 117.20782087 112.12743597 122.09448242 116.31494141 C126.26885379 120.00635859 130.09997568 124.06286583 134 128.0390625 C137.91934769 132.00434005 141.93008999 135.78073518 146.16503906 139.40820312 C150.93744258 143.54818063 155.01923846 147.45509481 157.97265625 153.12109375 C159.18118333 155.33136571 160.57258515 157.36223103 162 159.4375 C182.64116555 190.39924833 174.5211043 231.47018902 167.77685547 265.52026367 C166.76675482 270.53235642 165.74159906 275.54122855 164.70947266 280.54882812 C160.50347275 301.00857164 157.72013892 320.05497361 160.07421875 341.00390625 C159.98878799 344.45261095 159.44744979 345.61975707 157 348 C151.87285256 349.70904915 146.49262602 349.26897871 141.125 349.3125 C139.34802734 349.35600586 139.34802734 349.35600586 137.53515625 349.40039062 C136.39175781 349.40876953 135.24835938 349.41714844 134.0703125 349.42578125 C132.50434326 349.44765503 132.50434326 349.44765503 130.90673828 349.4699707 C127.13462204 348.86008294 125.5999001 347.79126043 123 345 C120.19429848 337.79475023 120.56014814 330.23798674 120.5625 322.625 C120.5614325 321.89379944 120.56036499 321.16259888 120.55926514 320.40924072 C120.58850012 306.47022759 122.5248804 293.51285156 126 280 C126.24588867 279.01322266 126.49177734 278.02644531 126.74511719 277.00976562 C128.18942094 271.22122276 129.70428502 265.45459251 131.26806641 259.69726562 C142.87689716 219.60572121 142.87689716 219.60572121 134 180 C133.13375 180.53625 132.2675 181.0725 131.375 181.625 C128 183 128 183 125.0625 182.625 C120.98872728 180.46340631 117.8747495 177.60619464 115 174 C115 173.34 115 172.68 115 172 C110.28792604 175.93470135 106.02888644 179.8822812 102.2265625 184.71484375 C101.82179688 185.13894531 101.41703125 185.56304687 101 186 C100.34 186 99.68 186 99 186 C98.60035034 186.88860718 98.60035034 186.88860718 98.19262695 187.79516602 C96.97554782 190.04520525 95.73700372 191.49331612 93.91796875 193.27734375 C93.31533203 193.87353516 92.71269531 194.46972656 92.09179688 195.08398438 C91.14916992 196.00147461 91.14916992 196.00147461 90.1875 196.9375 C89.57068359 197.54529297 88.95386719 198.15308594 88.31835938 198.77929688 C87.10795618 199.97169195 85.89488267 201.16138339 84.67895508 202.34814453 C83.19061251 203.81246412 81.72986196 205.304712 80.2734375 206.80078125 C73.79859826 213.06424258 66.93153809 214.41570724 58.17578125 214.3515625 C51.15968286 213.57487264 45.1218898 209.70969598 40 205 C37.6713055 202.00313226 35.59230361 198.85229788 33.5 195.6875 C32.17331168 193.71084716 30.84648018 191.7342904 29.51953125 189.7578125 C28.80104004 188.68176758 28.08254883 187.60572266 27.34228516 186.49707031 C24.81212789 182.71268739 22.25696467 178.94545928 19.69921875 175.1796875 C19.24358551 174.50865494 18.78795227 173.83762238 18.31851196 173.14625549 C17.3958075 171.78739064 16.47306788 170.42854967 15.55029297 169.06973267 C8.31548887 158.41372295 1.13067795 147.72599375 -6 137 C-7.0828125 137.31839844 -8.165625 137.63679687 -9.28125 137.96484375 C-13.28200095 139.07849816 -15.88777438 139.6608934 -20 139 C-26.1433452 134.89946619 -30.43069225 127.73543448 -34.91015625 121.9453125 C-38.18936222 117.72661242 -41.58882228 113.6122066 -45 109.5 C-49.47953089 104.08992074 -53.91064657 98.64834369 -58.25 93.125 C-58.70375 92.54814453 -59.1575 91.97128906 -59.625 91.37695312 C-65 84.50060282 -65 84.50060282 -65 81 C-90.59929019 78.69303578 -90.59929019 78.69303578 -113.89697266 86.16357422 C-116.24204671 88.40504805 -118.4000858 90.72559536 -120.45361328 93.23681641 C-123.13792754 96.29746017 -126.38422064 98.6235847 -129.625 101.0625 C-130.72179249 101.92783014 -131.81817161 102.79368457 -132.9140625 103.66015625 C-133.93242187 104.43230469 -134.95078125 105.20445312 -136 106 C-136.97710937 106.78246094 -137.95421875 107.56492187 -138.9609375 108.37109375 C-142 110 -142 110 -145.3203125 110.26171875 C-150.759547 108.39667337 -153.93712209 104.89635097 -157.875 100.8125 C-158.64585937 100.05646484 -159.41671875 99.30042969 -160.2109375 98.52148438 C-163.3092663 95.37678974 -165.65513356 92.93429504 -167.1953125 88.76171875 C-166.84760062 83.84507283 -164.77699348 81.68053181 -161.13671875 78.4921875 C-159.99331116 77.61150897 -158.84316379 76.73953271 -157.6875 75.875 C-156.42040311 74.90386735 -155.15348085 73.93250681 -153.88671875 72.9609375 C-152.91677979 72.22375488 -152.91677979 72.22375488 -151.92724609 71.47167969 C-148.92610577 69.1799551 -145.96426805 66.83908461 -143 64.5 C-141.84526743 63.59217393 -140.69031832 62.68462323 -139.53515625 61.77734375 C-138.95910645 61.32472168 -138.38305664 60.87209961 -137.78955078 60.40576172 C-135.92119641 58.93809672 -134.05243146 57.47095573 -132.18359375 56.00390625 C-131.55646484 55.51148438 -130.92933594 55.0190625 -130.28320312 54.51171875 C-129.09064001 53.57533586 -127.89794118 52.63912577 -126.70507812 51.703125 C-123.21366481 48.97071312 -123.21366481 48.97071312 -120.05029297 45.8737793 C-115.28149007 42.94432818 -110.62086756 43.50752365 -105.13671875 43.609375 C-103.98959915 43.61503479 -102.84247955 43.62069458 -101.66059875 43.62652588 C-98.00247187 43.64888803 -94.34533006 43.69908673 -90.6875 43.75 C-88.20509229 43.77006509 -85.7226692 43.78831584 -83.24023438 43.8046875 C-77.15982105 43.84875241 -71.07998091 43.91566406 -65 44 C-64.87842529 43.21214111 -64.75685059 42.42428223 -64.6315918 41.61254883 C-64 39 -64 39 -61.89453125 37.19921875 C-58.31987267 35.71821985 -55.54692407 35.76913568 -51.6875 35.8125 C-47.69080057 35.73525736 -44.70814678 35.48376307 -41.3125 33.1640625 C-39.18009172 30.99628339 -39.18009172 30.99628339 -37.41796875 28.71484375 C-36.71607422 27.86599609 -36.71607422 27.86599609 -36 27 C-35.34 27 -34.68 27 -34 27 C-34 26.34 -34 25.68 -34 25 C-32.77734375 23.765625 -32.77734375 23.765625 -30.9375 22.25 C-25.91840032 17.99545851 -21.14944065 13.4937136 -16.36889648 8.97558594 C-14.59110081 7.30372409 -12.79778874 5.65029948 -11 4 C-10.14792969 3.19949219 -9.29585937 2.39898437 -8.41796875 1.57421875 C-5.26798559 -0.47657804 -3.73322364 -0.3592181 0 0 Z M-7.5625 22.9375 C-8.64801366 23.95878402 -9.73395695 24.97961156 -10.8203125 26 C-11.35946289 26.51046875 -11.89861328 27.0209375 -12.45410156 27.546875 C-14.5824649 29.54750964 -16.75751917 31.49338595 -18.9375 33.4375 C-21.79533805 35.99793702 -24.63121431 38.57890849 -27.44140625 41.19140625 C-28.03123291 41.73933838 -28.62105957 42.28727051 -29.22875977 42.85180664 C-30.39130431 43.93358999 -31.55201329 45.01734998 -32.71069336 46.10327148 C-36.90409415 50.00522421 -38.96383483 51.10170749 -44.625 51.5625 C-45.62789063 51.64628906 -46.63078125 51.73007813 -47.6640625 51.81640625 C-48.43492187 51.87699219 -49.20578125 51.93757813 -50 52 C-52.10940324 69.10110652 -52.10940324 69.10110652 -46.06396484 84.37768555 C-43.93751283 86.58042426 -41.75354606 88.67897746 -39.44775391 90.69335938 C-37.56909201 92.38890718 -36.11123194 94.26941113 -34.625 96.3125 C-31.12490521 100.89823213 -27.47319528 105.35480088 -23.8125 109.8125 C-23.2055127 110.5547583 -22.59852539 111.2970166 -21.97314453 112.06176758 C-19.11581947 115.53250511 -16.27288822 118.90578062 -13 122 C-11.453125 121.505 -11.453125 121.505 -9.875 121 C-6.44101113 120.05149904 -3.57822822 119.45548701 0 120 C3.94348413 123.48373475 6.90175167 127.46645163 9.8125 131.8125 C10.27043945 132.48684082 10.72837891 133.16118164 11.20019531 133.85595703 C16.26536509 141.33761415 21.26214762 148.86645639 26.25317383 156.39770508 C29.8645583 161.83942439 33.54024581 167.22413182 37.30322266 172.56201172 C39.01109627 175.0159435 40.66964535 177.4969029 42.31640625 179.9921875 C43.12174805 181.20261719 43.12174805 181.20261719 43.94335938 182.4375 C45.03479784 184.08058228 46.11797996 185.72917517 47.19335938 187.3828125 C50.34139889 192.08024811 52.9425217 195.37656466 58 198 C62.20441903 198.60063129 64.30310984 198.36977845 68.0625 196.375 C71.32254337 193.73922025 74.17213324 191.0971874 77 188 C77 187.34 77 186.68 77 186 C77.66 186 78.32 186 79 186 C80.50049936 184.51638306 80.50049936 184.51638306 82.0625 182.5625 C84.75174994 179.39242783 87.53513377 176.41418475 90.5 173.5 C93.94237364 170.10430261 97.15009807 166.59056192 100.30078125 162.92578125 C108.79753225 153.29613012 108.79753225 153.29613012 113.7890625 152.625 C118.11839523 153.1306155 119.45257039 154.84061664 122.375 158 C123.24898437 158.928125 124.12296875 159.85625 125.0234375 160.8125 C125.67570313 161.534375 126.32796875 162.25625 127 163 C127.77730469 162.22269531 128.55460938 161.44539062 129.35546875 160.64453125 C131.5703125 158.4296875 133.78515625 156.21484375 136 154 C134.68729086 151.09778672 133.28101018 149.03287708 131.0234375 146.79296875 C130.43949219 146.2103125 129.85554687 145.62765625 129.25390625 145.02734375 C128.63386719 144.42019531 128.01382813 143.81304687 127.375 143.1875 C126.41787109 142.24003906 126.41787109 142.24003906 125.44140625 141.2734375 C121.80153355 137.69287026 118.08803373 134.26402849 114.1875 130.96875 C110.39287509 127.55358758 106.84391478 123.88354643 103.2734375 120.23632812 C100.30129466 117.22007815 97.27988895 114.33404904 94.0703125 111.5703125 C89.79026514 107.87606439 85.83274778 103.90900496 81.875 99.875 C76.52152254 94.36826503 76.52152254 94.36826503 70.6953125 89.3828125 C66.72002918 85.86843159 65.15818102 82.68068751 64.65942383 77.38134766 C64.67513428 76.07214355 64.69084473 74.76293945 64.70703125 73.4140625 C64.71127609 72.71227875 64.71552094 72.010495 64.71989441 71.28744507 C64.73656401 69.0662244 64.77419128 66.84594212 64.8125 64.625 C64.82756212 63.11069027 64.84124784 61.59636619 64.85351562 60.08203125 C64.88642817 56.38772068 64.93812741 52.69395207 65 49 C59.71059513 46.41201917 54.4187693 43.82904172 49.125 41.25 C48.33722168 40.86617157 47.54944336 40.48234314 46.73779297 40.08688354 C35.13457797 34.43899915 23.48701578 28.91319626 11.73486328 23.58105469 C10.7498584 23.1327832 9.76485352 22.68451172 8.75 22.22265625 C7.89921875 21.83859619 7.0484375 21.45453613 6.171875 21.05883789 C4 20 4 20 1 18 C-3.13470275 18 -4.74169541 20.22035875 -7.5625 22.9375 Z M-124 70 C-125.35060502 71.10368368 -126.71774334 72.18808367 -128.11328125 73.234375 C-128.92514893 73.87282349 -128.92514893 73.87282349 -129.75341797 74.52416992 C-135.48876417 79.03359261 -141.23361042 83.53028532 -147 88 C-146.34 88.99 -145.68 89.98 -145 91 C-140.74056201 89.57505239 -137.94348315 87.49331063 -134.5625 84.5625 C-133.51453545 83.66619482 -132.46498734 82.77173863 -131.4140625 81.87890625 C-130.86395508 81.4111377 -130.31384766 80.94336914 -129.74707031 80.46142578 C-126.69563161 77.90889475 -123.56855871 75.4537193 -120.4375 73 C-119.54430054 72.29725952 -119.54430054 72.29725952 -118.63305664 71.58032227 C-111.19693473 65.75940167 -111.19693473 65.75940167 -106.43676758 65.68115234 C-105.05567558 65.65134781 -105.05567558 65.65134781 -103.64668274 65.62094116 C-102.65597275 65.60938995 -101.66526276 65.59783875 -100.64453125 65.5859375 C-99.62775803 65.56657135 -98.6109848 65.5472052 -97.56340027 65.5272522 C-94.31318573 65.46743259 -91.06293583 65.42106124 -87.8125 65.375 C-85.61001052 65.33682244 -83.40753601 65.29777084 -81.20507812 65.2578125 C-75.80351817 65.16172917 -70.40186823 65.07668862 -65 65 C-65 63.02 -65 61.04 -65 59 C-71.15198905 58.72525471 -77.30031017 58.52720368 -83.45703125 58.39575195 C-85.54457888 58.34089269 -87.63171305 58.26616958 -89.71777344 58.17016602 C-104.94580687 57.48760555 -113.20733986 59.08395691 -124 70 Z M146 166 C145.67 166.99 145.34 167.98 145 169 C145.66 169 146.32 169 147 169 C147.2475 169.66 147.495 170.32 147.75 171 C149.78970749 175.89529799 152.05635143 180.58452715 155 185 C154.43830039 180.37464644 153.17355197 176.83218149 151.0625 172.6875 C150.53785156 171.63949219 150.01320313 170.59148437 149.47265625 169.51171875 C148.24554035 166.89552477 148.24554035 166.89552477 146 166 Z M155 186 C156 189 156 189 156 189 Z M156 189 C157 193 157 193 157 193 Z M157 194 C157 195.65 157 197.3 157 199 C157.33 199 157.66 199 158 199 C158 197.35 158 195.7 158 194 C157.67 194 157.34 194 157 194 Z M157 217 C156.87625 218.09570312 156.7525 219.19140625 156.625 220.3203125 C154.46507615 237.50716155 149.79559097 254.05161252 144.93188477 270.64379883 C142.86723436 277.7026257 141.10924683 284.69869808 139.8125 291.9375 C139.64814453 292.81728516 139.48378906 293.69707031 139.31445312 294.60351562 C138.85946073 297.0663692 138.42665118 299.53210534 138 302 C137.69835937 303.65902344 137.69835937 303.65902344 137.390625 305.3515625 C136.8163581 310.71521537 136.89591897 316.04795895 136.9375 321.4375 C136.94201172 322.55060547 136.94652344 323.66371094 136.95117188 324.81054688 C136.96288807 327.54042101 136.97929301 330.27018174 137 333 C138.98 333 140.96 333 143 333 C142.95359375 331.94167969 142.9071875 330.88335937 142.859375 329.79296875 C142.17296624 306.67607374 147.41795731 284.03527491 152.09375 261.52270508 C153.80102997 253.27180477 155.39752666 245.01914266 156.734375 236.69921875 C156.86074844 235.92433105 156.98712189 235.14944336 157.11732483 234.35107422 C158.01978933 228.5507599 158.35621468 222.87094564 158 217 C157.67 217 157.34 217 157 217 Z " fill="#000000" transform="translate(277,57)"/>
<path d="M0 0 C2.4296875 1.44140625 2.4296875 1.44140625 4.875 3.5625 C6.28845703 4.78259766 6.28845703 4.78259766 7.73046875 6.02734375 C12.93391846 10.71743407 18.03026887 15.52354389 23.10546875 20.3515625 C26.39468403 23.4635894 29.76991151 26.46082915 33.18969727 29.42822266 C35.44231527 31.38403584 37.66106785 33.37556646 39.875 35.375 C42.47344677 37.72120925 45.07324815 40.06546487 47.68359375 42.3984375 C49.39319842 43.92768269 51.09669048 45.46379858 52.79296875 47.0078125 C54.08521774 48.17426734 55.39377667 49.32387025 56.73828125 50.4296875 C59.39699811 52.72142654 59.99755929 53.98633201 60.625 57.5 C59.48954462 63.85855011 53.14645849 67.69577649 48.375 71.75 C47.75963379 72.27513184 47.14426758 72.80026367 46.51025391 73.34130859 C41.96912302 77.20497473 37.37635793 81.00131289 32.74609375 84.7578125 C30.72649408 86.40681707 28.71976409 88.06636621 26.72265625 89.7421875 C26.17496582 90.20157715 25.62727539 90.6609668 25.06298828 91.13427734 C23.51864266 92.43182456 21.97606851 93.73147933 20.43359375 95.03125 C16.503737 98.21045996 14.07320223 98.51591887 9 98 C4.71497911 94.33213433 1.66730159 89.92503903 -1.5 85.3125 C-2.56289217 83.78582443 -3.62672567 82.25980389 -4.69140625 80.734375 C-5.23684082 79.95126953 -5.78227539 79.16816406 -6.34423828 78.36132812 C-9.0042937 74.56774865 -11.71914493 70.81442201 -14.4375 67.0625 C-14.97407227 66.32080566 -15.51064453 65.57911133 -16.06347656 64.81494141 C-18.27172065 61.7636095 -20.48214298 58.71386344 -22.69384766 55.66503906 C-25.45854521 51.85336015 -28.21743276 48.03790485 -30.9609375 44.2109375 C-32.89016505 41.52174824 -34.8512756 38.86324061 -36.8515625 36.2265625 C-37.69292572 35.08870238 -38.53408571 33.95069194 -39.375 32.8125 C-40.10460937 31.84957031 -40.83421875 30.88664062 -41.5859375 29.89453125 C-43.46137342 26.05558646 -43.24446481 24.05620673 -42 20 C-38.46572017 16.72631037 -34.50862935 14.52110933 -30.23828125 12.36328125 C-29.60641403 12.03837204 -28.97454681 11.71346283 -28.3235321 11.37870789 C-26.32252342 10.3513276 -24.31762375 9.33182148 -22.3125 8.3125 C-20.95481376 7.61705232 -19.59738918 6.92109357 -18.24023438 6.22460938 C-5.19101602 -0.46553338 -5.19101602 -0.46553338 0 0 Z M-10.01171875 19.96875 C-10.76904297 20.37480469 -11.52636719 20.78085938 -12.30664062 21.19921875 C-13.09232422 21.62847656 -13.87800781 22.05773437 -14.6875 22.5 C-15.48478516 22.92925781 -16.28207031 23.35851562 -17.10351562 23.80078125 C-19.07207383 24.86168088 -21.03733606 25.92824677 -23 27 C-23 27.33 -23 27.66 -23 28 C-17.26736274 27.47885116 -12.26755593 25.81062755 -6.8671875 23.83984375 C-4.07313024 23.02142098 -1.88981536 22.83592623 1 23 C-0.79857668 20.4390706 -0.79857668 20.4390706 -3 18 C-6.19913581 18 -7.26682222 18.48279098 -10.01171875 19.96875 Z M3 25 C8.7146094 34.43430061 15.17722697 43.28982639 21.69067383 52.18164062 C25.01422427 56.79730419 25.01422427 56.79730419 24.75 60.5625 C24 64 24 64 22 66 C16.46510152 66.63515228 16.46510152 66.63515228 14 66 C10.14129276 62.68733624 7.38717233 58.89178056 4.5625 54.6875 C1.17207828 49.68671672 -2.31247011 44.78655841 -6 40 C-7.98 40.66 -9.96 41.32 -12 42 C-9.15263413 47.23482467 -5.94689098 51.9102402 -2.3125 56.625 C2.43542144 62.83791517 6.89120127 69.16824925 11.16015625 75.71875 C11.76730469 76.4715625 12.37445313 77.224375 13 78 C16.78324524 78 17.30143517 77.10728632 20 74.5625 C24.36395968 70.54137185 28.89180748 66.79098852 33.51953125 63.078125 C35.8141741 61.15568406 37.92119895 59.1514864 40 57 C35.87650748 52.76053426 31.63669755 48.73914355 27.16015625 44.875 C24.79045127 42.81811321 22.45572744 40.72593741 20.125 38.625 C19.29226563 37.87605469 18.45953125 37.12710938 17.6015625 36.35546875 C15.79654093 34.72119246 14.00024026 33.07725256 12.2109375 31.42578125 C11.31632812 30.60464844 10.42171875 29.78351563 9.5 28.9375 C8.6853125 28.18339844 7.870625 27.42929688 7.03125 26.65234375 C5.17782336 24.78965273 5.17782336 24.78965273 3 25 Z " fill="#000000" transform="translate(329,143)"/>
<path d="M0 0 C3.26404198 2.79775027 4.38912986 5.91610506 5.75 9.875 C9.43430455 20.53933466 14.85238654 30.12215507 22.12109375 38.7421875 C34.87342481 54.06619447 41.08446971 72.4812025 39.78125 92.33203125 C38.08307616 105.05200649 31.64096834 114.83792876 21.69921875 122.85546875 C11.27033341 130.15028492 0.05164361 132.23534526 -12.625 130.4375 C-23.79600852 127.95687899 -33.97172271 121.82566588 -40.78125 112.58203125 C-49.07709499 99.46727631 -49.98193232 86.06461974 -47.5078125 71.00390625 C-44.21450998 57.32247049 -36.28604727 46.06752191 -28 35 C-21.67569547 26.49827534 -17.35714065 18.12054689 -14 8.0625 C-12.82084835 4.77872709 -11.96716324 2.96095089 -9.6875 0.25 C-5.95210056 -1.48739509 -3.90965672 -1.20843935 0 0 Z M-5 28 C-5.28230469 28.58523437 -5.56460938 29.17046875 -5.85546875 29.7734375 C-9.19875434 36.30313897 -13.13588928 42.05506294 -17.5 47.9375 C-22.4729617 54.67031893 -26.8241909 61.20805202 -30 69 C-30.36867188 69.89589844 -30.73734375 70.79179687 -31.1171875 71.71484375 C-33.35316212 80.03543958 -34.0515222 92.42326334 -30.0625 100.25 C-28.7033751 102.22318363 -28.7033751 102.22318363 -27 104 C-26.33355469 104.72445312 -25.66710937 105.44890625 -24.98046875 106.1953125 C-18.93850922 112.09971428 -12.99240379 114.94859521 -4.5625 115.4375 C3.12260423 115.14243492 11.56508117 111.49037719 17 106 C22.67691146 97.84698885 24.98905895 89.8905895 24 80 C21.14506945 65.72534726 14.33752989 55.09108877 5.75805664 43.63183594 C2.04228704 38.63314216 -1.11089073 33.51801168 -4 28 C-4.33 28 -4.66 28 -5 28 Z " fill="#000000" transform="translate(137,181)"/>
</svg>
