<?xml version="1.0" encoding="UTF-8"?>
<svg version="1.1" xmlns="http://www.w3.org/2000/svg" width="700" height="589">
<path d="M0 0 C4.55876421 1.70016069 7.97548272 5.19274778 11.55029297 8.39794922 C32.17576635 26.58569352 55.73017694 41.58731054 79.890625 54.58349609 C82.12720202 55.7917339 84.35084493 57.02157493 86.57421875 58.25390625 C122.04639284 77.69018882 162.13251447 91.11979196 202.23364258 96.46826172 C208.39445333 97.32337383 212.61570589 98.27586214 217.13671875 102.796875 C219.56484381 112.14520778 219.91485827 122.12830538 220.69921875 131.734375 C220.79585312 132.90261307 220.79585312 132.90261307 220.8944397 134.0944519 C221.32570879 139.32731298 221.73736194 144.56148949 222.13671875 149.796875 C222.2130957 150.78333008 222.28947266 151.76978516 222.36816406 152.78613281 C229.56333281 250.78663977 211.7333074 354.50889431 146.13671875 430.796875 C134.44976844 444.27910985 121.81480528 457.80917522 107.7109375 468.78125 C105.29796871 470.67061554 102.98294653 472.6461071 100.67358398 474.65991211 C77.50409004 494.75240105 50.48151349 510.90899993 24.60449219 527.23291016 C20.53583938 529.81144101 16.4914471 532.42717754 12.44921875 535.046875 C11.74756592 535.5013501 11.04591309 535.9558252 10.32299805 536.42407227 C7.58414412 538.20043134 4.85295568 539.98605038 2.13671875 541.796875 C-4.24963708 542.61764288 -7.68144384 540.61361619 -12.80078125 537.234375 C-14.38931569 536.22394698 -15.97785778 535.21353097 -17.56640625 534.203125 C-18.41525391 533.65527344 -19.26410156 533.10742188 -20.13867188 532.54296875 C-23.02491195 530.69329231 -25.93261775 528.88205017 -28.84765625 527.078125 C-39.33820494 520.58433111 -49.77398576 514.03032431 -59.97021484 507.08203125 C-62.05912306 505.66392281 -64.15831678 504.26175661 -66.2578125 502.859375 C-85.79618785 489.73588539 -104.69454461 475.5335375 -121.94140625 459.49609375 C-124.65206154 456.99199909 -127.40601735 454.54760655 -130.17578125 452.109375 C-133.82311654 448.84075664 -137.07283279 445.42543156 -140.2265625 441.68359375 C-141.8194385 439.8474145 -143.48840281 438.17018467 -145.23828125 436.484375 C-198.28202836 383.91004159 -221.23332191 303.32890646 -225.86328125 230.796875 C-225.94868164 229.50410645 -226.03408203 228.21133789 -226.12207031 226.87939453 C-226.8443804 215.39285521 -227.1021968 203.92985783 -227.11328125 192.421875 C-227.114953 191.48998352 -227.11662476 190.55809204 -227.11834717 189.59796143 C-227.11991612 174.74782678 -226.53259892 159.98409012 -225.48828125 145.171875 C-225.42515747 144.27269348 -225.36203369 143.37351196 -225.29699707 142.44708252 C-224.6356563 133.23046636 -223.84053407 124.02700305 -222.88671875 114.8359375 C-222.81442047 114.09765717 -222.74212219 113.35937683 -222.66763306 112.59872437 C-222.15387382 107.89768679 -221.35333262 104.06948073 -218.74853516 100.09667969 C-215.71378516 98.00434493 -212.2634907 97.62716223 -208.69921875 97 C-207.01471131 96.68165716 -205.33022314 96.36321233 -203.64575195 96.04467773 C-202.32131577 95.80090897 -202.32131577 95.80090897 -200.97012329 95.55221558 C-184.31269813 92.47089802 -168.04585386 88.84913902 -151.86328125 83.796875 C-150.99928711 83.53616211 -150.13529297 83.27544922 -149.24511719 83.00683594 C-109.44486401 70.95666455 -71.06764678 50.79884112 -37.86328125 25.796875 C-36.83589844 25.04148437 -35.80851563 24.28609375 -34.75 23.5078125 C-29.79385932 19.84266145 -24.94044617 16.08287079 -20.17578125 12.171875 C-18.83 11.07166016 -18.83 11.07166016 -17.45703125 9.94921875 C-15.76981795 8.54913663 -14.10172828 7.12557101 -12.45703125 5.67578125 C-5.16738677 -0.52790592 -5.16738677 -0.52790592 0 0 Z M-6.80078125 24.421875 C-20.75717404 37.1985727 -37.00178114 47.56907874 -52.86328125 57.796875 C-53.50620117 58.21243652 -54.14912109 58.62799805 -54.81152344 59.05615234 C-96.65037929 85.8167945 -143.06846302 101.9216278 -191.30834961 112.27124023 C-192.06267776 112.43346069 -192.81700592 112.59568115 -193.5941925 112.76281738 C-195.0164945 113.06748774 -196.43939406 113.36938583 -197.86296082 113.66809082 C-201.4637388 114.42750087 -201.4637388 114.42750087 -204.86328125 115.796875 C-210.47680507 137.86114225 -209.21952299 162.63136719 -209.17895508 185.27416992 C-209.17433401 188.0721855 -209.18123647 190.86976512 -209.19946289 193.66772461 C-209.73293422 276.47131195 -189.21972558 361.29473142 -131.90234375 423.57421875 C-130.0507783 425.59249603 -128.26495125 427.65036635 -126.48828125 429.734375 C-104.78023721 454.61552061 -76.96024417 473.98714424 -49.56591797 492.01220703 C-47.31363947 493.49948398 -45.07073619 494.99838592 -42.8359375 496.51171875 C-31.38550864 504.26144466 -19.63705092 511.55034335 -7.86328125 518.796875 C-6.98921631 519.36881592 -6.11515137 519.94075684 -5.21459961 520.5300293 C-2.87928085 522.10289248 -2.87928085 522.10289248 -0.03125 521.2890625 C3.83218135 519.46929582 7.28428693 517.29980646 10.82421875 514.921875 C12.34428909 513.91811442 13.86515122 512.91555208 15.38671875 511.9140625 C16.17046875 511.39682617 16.95421875 510.87958984 17.76171875 510.34667969 C20.81475935 508.35442005 23.90451761 506.42483576 26.99853516 504.49707031 C38.60430906 497.2602136 49.9028356 489.59601011 61.13671875 481.796875 C61.83200684 481.31444336 62.52729492 480.83201172 63.24365234 480.33496094 C74.99196784 472.14938762 86.23110066 463.39671846 97.07421875 454.046875 C97.6767749 453.52826904 98.27933105 453.00966309 98.90014648 452.4753418 C102.58341196 449.26414606 106.07600632 445.91837089 109.48754883 442.41967773 C111.21647067 440.71839817 113.0237843 439.16177816 114.88671875 437.609375 C168.86045961 390.9293829 195.61725247 314.63123284 203.13671875 245.796875 C203.22285431 245.03014465 203.30898987 244.26341431 203.3977356 243.47344971 C205.22634259 226.76012312 205.49633046 210.08580612 205.45396805 193.29065323 C205.44916098 191.14610458 205.4481276 189.00157878 205.44772339 186.85702515 C205.43142648 162.82768511 205.27163535 138.53865223 201.13671875 114.796875 C200.32557617 114.66224854 200.32557617 114.66224854 199.49804688 114.52490234 C162.72096369 108.33630264 127.01486888 97.44173502 93.13671875 81.796875 C92.21358887 81.37116211 91.29045898 80.94544922 90.33935547 80.50683594 C58.40709164 65.57435943 26.7046454 45.99395494 0.73046875 22.05566406 C-2.67856268 19.36311412 -4.15149765 21.86105606 -6.80078125 24.421875 Z " fill="#000000" transform="translate(351.86328125,29.203125)"/>
<path d="M0 0 C3.17066582 1.75786401 6.06449036 3.8779967 9 6 C57.3427119 40.67545137 111.69741617 68.36707523 170.41699219 80.27832031 C175.1802215 81.30107598 178.54979258 82.32112386 182 86 C203.45446745 137.095508 182.762134 234.3000444 162.9609375 283.66552734 C150.9409968 312.86640972 135.5666124 340.41760237 114.06640625 363.75 C112.24386514 365.7344682 110.49216442 367.75785892 108.75 369.8125 C101.13706148 378.51803617 92.8678836 386.58414279 83.80078125 393.76171875 C81.25278387 395.79798444 78.78287449 397.89550942 76.31811523 400.0300293 C69.82013456 405.6387819 63.06501026 410.70401552 56.01513672 415.59423828 C53.81327378 417.13026043 51.62694814 418.68694337 49.44140625 420.24609375 C38.00484297 428.3746076 26.3271002 436.04215445 14.42626953 443.47265625 C12.24637778 444.84490447 10.08657828 446.24231724 7.93359375 447.65625 C7.3418335 448.03861816 6.75007324 448.42098633 6.14038086 448.81494141 C4.64117513 449.78376881 3.14836497 450.76247465 1.65625 451.7421875 C-1.66196982 453.31346218 -3.35662166 453.56913782 -7 453 C-9.93989456 451.65061502 -12.60295762 449.9472028 -15.3125 448.1875 C-16.49175049 447.44306641 -16.49175049 447.44306641 -17.69482422 446.68359375 C-20.13856226 445.13555094 -22.56955539 443.56880882 -25 442 C-26.46433416 441.06820911 -27.92915932 440.13718926 -29.39453125 439.20703125 C-39.0827088 433.02756308 -48.59636059 426.60335602 -58 420 C-58.71800781 419.49742676 -59.43601562 418.99485352 -60.17578125 418.47705078 C-76.38927704 407.08714097 -91.7361302 394.76425965 -106 381 C-106.61649414 380.40541992 -107.23298828 379.81083984 -107.86816406 379.19824219 C-115.77555825 371.5281885 -123.32419238 363.78686599 -130 355 C-130.50853516 354.34080566 -131.01707031 353.68161133 -131.54101562 353.00244141 C-176.01778931 295.17494068 -191.73089315 226.53296737 -193.625 154.75 C-193.64712555 153.92017609 -193.6692511 153.09035217 -193.69204712 152.23538208 C-194.16322761 133.79124161 -193.67790551 115.51000506 -192.0625 97.125 C-191.98797607 96.25609131 -191.91345215 95.38718262 -191.83666992 94.49194336 C-191.75779541 93.69280518 -191.6789209 92.89366699 -191.59765625 92.0703125 C-191.49723022 91.03028076 -191.49723022 91.03028076 -191.39477539 89.96923828 C-190.93515668 87.67654534 -190.224834 85.99147761 -189 84 C-183.00036037 80.62466317 -176.16392812 79.48694039 -169.5133667 77.92837524 C-111.14545394 64.12625421 -59.61397725 36.9149623 -11.0703125 2.16015625 C-6.64800703 -0.95121134 -5.27933513 -1.43981867 0 0 Z M-10.875 23.5 C-58.01422236 61.17928439 -116.19095571 83.20278784 -174 98 C-178.06375275 111.80439975 -176.20146704 128.64827943 -176.1875 142.875 C-176.18689575 144.0096167 -176.1862915 145.1442334 -176.18566895 146.31323242 C-176.16206769 162.62112327 -176.01501551 178.79500437 -174 195 C-173.87109375 196.06331543 -173.7421875 197.12663086 -173.609375 198.22216797 C-164.18029502 273.49110854 -132.12676408 339.60596243 -72 387 C-70.82620596 387.96148689 -69.65307611 388.92378497 -68.48046875 389.88671875 C-58.51951525 397.95355863 -48.03799333 405.15628539 -37.375 412.25 C-36.33989288 412.93925064 -36.33989288 412.93925064 -35.28387451 413.64242554 C-31.2298324 416.33635415 -27.1570305 418.99918292 -23.07067871 421.64379883 C-20.90605211 423.06153163 -18.76621242 424.51255386 -16.62597656 425.96679688 C-15.2016482 426.91087527 -13.77685854 427.85425816 -12.3515625 428.796875 C-11.37719742 429.47523407 -11.37719742 429.47523407 -10.38314819 430.16729736 C-7.15164651 432.26960849 -5.59306769 433.11250054 -1.73608398 432.38085938 C1.53717646 430.72889533 4.5584361 428.83920685 7.5625 426.75 C8.88506502 425.84844226 10.20800391 424.94743281 11.53125 424.046875 C12.24410156 423.55896484 12.95695313 423.07105469 13.69140625 422.56835938 C17.05570752 420.28279768 20.45089246 418.04462487 23.84326172 415.80102539 C37.44528652 406.79203482 50.66507728 397.48888701 63.39648438 387.28320312 C64.85759802 386.11395628 66.3268157 384.95485467 67.796875 383.796875 C129.18505923 334.75897635 157.60828349 265.51509443 166.75390625 188.94140625 C168.32132866 173.82233744 168.17469079 158.61985291 168.1875 143.4375 C168.18867828 142.35736633 168.18985657 141.27723267 168.19107056 140.16436768 C169.03220917 118.86172681 169.03220917 118.86172681 166 98 C165.10619629 97.77449463 164.21239258 97.54898926 163.29150391 97.31665039 C106.62871248 82.92431587 51.7312832 60.72274845 4.87182617 25.09960938 C-1.15660177 20.59377895 -4.51741847 18.16658814 -10.875 23.5 Z " fill="#000000" transform="translate(354,76)"/>
<path d="M0 0 C3.0625 1.85546875 3.0625 1.85546875 6 4.1875 C7.03511719 5.00476563 8.07023437 5.82203125 9.13671875 6.6640625 C10.08160156 7.43492187 11.02648437 8.20578125 12 9 C12.68707031 9.54398438 13.37414062 10.08796875 14.08203125 10.6484375 C18.58035523 14.32426883 22.29107666 18.54447521 26 23 C26.61617187 23.70511719 27.23234375 24.41023438 27.8671875 25.13671875 C47.66017858 48.54650137 56 76.76585554 56 107 C61.69430002 102.09657498 64.11012305 96.39265588 66 89.1875 C67.11961925 85.61871365 67.90171865 84.09343334 71 82 C74.4375 81.4375 74.4375 81.4375 78 82 C83.20566386 86.10659572 85.60068382 91.52452381 88.375 97.4375 C88.85469238 98.45666504 89.33438477 99.47583008 89.82861328 100.52587891 C94.52808205 110.76677168 98.11333457 121.11789433 101 132 C101.38309326 133.3931543 101.38309326 133.3931543 101.77392578 134.81445312 C108.71490553 160.86872733 108.43961399 189.8605644 102 216 C101.72712158 217.15918945 101.72712158 217.15918945 101.44873047 218.34179688 C95.03024671 244.97936486 78.30791447 270.20592505 55 285 C27.56683555 301.52373649 -1.63293398 307.22450826 -33.04833984 299.49609375 C-48.2686253 295.34195974 -61.88645536 287.99989096 -74 278 C-74.77601563 277.38769531 -75.55203125 276.77539062 -76.3515625 276.14453125 C-97.29949942 258.78661179 -109.94085687 231.04810909 -112.55004883 204.38500977 C-114.43283549 180.84197004 -109.96546421 155.55947369 -96 136 C-93.95516329 133.66151833 -93.18635078 133.05671545 -90.125 132.125 C-86.41157001 131.9764628 -84.94103647 132.81523005 -82 135 C-81.67 135.33 -81.34 135.66 -81 136 C-80.84144531 134.92363281 -80.68289063 133.84726562 -80.51953125 132.73828125 C-76.46736231 106.75778219 -63.13777736 89.83964558 -44.8125 71.875 C-27.46521955 54.82170641 -15.21544117 35.75918908 -13.80737305 11.02685547 C-13.4566777 6.1325843 -12.50398621 3.46424345 -9 0 C-5.80308029 -1.59845985 -3.42710043 -0.75324812 0 0 Z M3 26 C1.94666497 29.11255757 0.93246999 32.22614701 -0.0078125 35.375 C-5.93198359 54.59748522 -17.21664979 69.68422455 -31.51171875 83.5546875 C-34.23368776 86.22965234 -36.7319079 89.01839116 -39.1953125 91.9296875 C-40.54187222 93.47444215 -41.94184914 94.97293327 -43.3671875 96.4453125 C-55.73086333 109.33510219 -62.46562034 122.92723378 -62.43334961 140.94189453 C-62.23575305 147.92850065 -60.81350519 154.4150067 -58.97265625 161.1328125 C-56.41792833 171.29016447 -56.41792833 171.29016447 -58 175.9375 C-60.85843477 178.88526086 -62.94657532 178.80044678 -67 179 C-75.86105702 176.05297427 -83.01682758 171.15379311 -89 164 C-91.39616592 166.39616592 -91.71336159 167.9957104 -92.5625 171.25 C-92.93568359 172.64992188 -92.93568359 172.64992188 -93.31640625 174.078125 C-98.84457067 197.70707919 -93.56791089 220.9527604 -81.953125 241.859375 C-78.76418304 246.98719368 -75.0247023 251.51118788 -71 256 C-70.45988281 256.62261719 -69.91976562 257.24523437 -69.36328125 257.88671875 C-63.78082805 263.91914299 -56.73198356 268.35950648 -50 273 C-49.34 272.67 -48.68 272.34 -48 272 C-48.32613281 271.35675781 -48.65226562 270.71351563 -48.98828125 270.05078125 C-53.73791867 260.22925963 -56.39927228 249.90411838 -57 239 C-57.05285156 238.07316406 -57.10570312 237.14632812 -57.16015625 236.19140625 C-57.72435814 216.54246218 -52.52683094 197.10598296 -41 181 C-38.24983604 178.51406748 -37.28128455 178.03516057 -33.5 177.5625 C-30 178 -30 178 -27.859375 179.60546875 C-25.49065477 182.6559425 -25.20737668 184.93852767 -24.75 188.75 C-24.60046875 189.92046875 -24.4509375 191.0909375 -24.296875 192.296875 C-24.19890625 193.18890625 -24.1009375 194.0809375 -24 195 C-23.34 194.67 -22.68 194.34 -22 194 C-21.41639171 192.18567372 -20.91048877 190.3462557 -20.4375 188.5 C-15.79638816 172.938625 -6.64157447 156.40873866 7 147 C9.99161005 146.25483706 11.84080895 146.59236244 15 147 C17.82787217 149.48568673 18.00935837 151.08917446 18.40625 154.87109375 C18.44644612 156.3930192 18.47720608 157.91521447 18.5 159.4375 C19.335166 180.36884779 28.24278174 196.79784488 38.74975586 214.53125 C48.28510509 230.72836934 53.6059283 246.0107163 50 265 C64.00538045 259.25845778 74.32835643 240.8067731 79.875 227.5625 C83.05538765 219.55694757 85.27086993 211.42842293 87 203 C87.22558594 201.95585937 87.45117188 200.91171875 87.68359375 199.8359375 C93.03498097 170.08960579 87.26099169 140.5534903 76 113 C75.319375 113.70125 74.63875 114.4025 73.9375 115.125 C72.96192411 116.08698848 71.98245784 117.04504098 71 118 C70.50371094 118.49242187 70.00742187 118.98484375 69.49609375 119.4921875 C62.00042509 126.46406245 52.36459776 130.45502154 42.12890625 130.26953125 C40 130 40 130 37.4375 128.5 C35.43394134 125.01555016 35.43261608 121.8727251 36 118 C36.32871094 116.98035156 36.65742188 115.96070313 36.99609375 114.91015625 C42.69449343 95.60605587 36.22511963 73.55462712 26.96875 56.515625 C26.31402828 55.34289547 25.65789819 54.17095049 25 53 C24.4946875 52.06671875 23.989375 51.1334375 23.46875 50.171875 C18.18769399 40.84200938 11.42455522 32.63209666 3 26 Z M2 179 C-4.24725821 189.80775671 -7.66259062 201.28190485 -8.5 213.75 C-8.74884351 216.92004994 -9.0957765 218.18418557 -10.625 221.125 C-13 223 -13 223 -16.1875 223.6875 C-24.55115613 222.17929971 -29.94445373 216.48146957 -35 210 C-37.19733008 210.81973199 -37.19733008 210.81973199 -37.81640625 213.08203125 C-42.5330135 230.34333213 -41.71277074 247.69578844 -34 264 C-28.52063691 273.32782367 -21.52395961 280.72204537 -11 284 C-0.96910248 285.7392282 7.99521792 284.94352063 17.1875 280.4375 C25.79867364 272.97448285 32.80777962 264.69411982 34.23828125 253.0625 C34.77195715 238.23192771 25.43951812 224.07583568 17.875 211.875 C11.56539235 201.55178081 7.16262059 190.64865845 4 179 C3.34 179 2.68 179 2 179 Z " fill="#000000" transform="translate(353,141)"/>
</svg>
