<?xml version="1.0" encoding="UTF-8"?>
<svg version="1.1" xmlns="http://www.w3.org/2000/svg" width="700" height="598">
<path d="M0 0 C13.76448011 12.06182661 22.75661181 27.4311744 25.125 45.6875 C25.125 47.0075 25.125 48.3275 25.125 49.6875 C25.71595262 49.68598112 26.30690525 49.68446224 26.91576552 49.68289733 C61.92107819 49.59343337 96.92637121 49.52477826 131.93177436 49.48323868 C136.13257633 49.47823571 140.33337807 49.47305843 144.53417969 49.46777344 C145.37050258 49.4667242 146.20682548 49.46567495 147.06849149 49.46459392 C160.61966465 49.44717686 174.1707701 49.41563204 187.72190306 49.37888882 C201.62107067 49.34151554 215.52020277 49.31927181 229.41941857 49.31114602 C237.99971498 49.30565073 246.57982005 49.288279 255.16005757 49.25583413 C261.03957177 49.2347308 266.91898669 49.22829043 272.79853603 49.23349449 C276.19350964 49.23606284 279.58814831 49.23205743 282.98306274 49.2106781 C286.66034565 49.1908841 290.33679847 49.19552294 294.01409912 49.20648193 C295.63082036 49.18900488 295.63082036 49.18900488 297.28020263 49.17117476 C304.44581226 49.22921141 304.44581226 49.22921141 307.81813431 51.50471878 C309.45495404 54.23860291 309.32460734 56.12387223 308.75454712 59.21279907 C307.376013 64.63170986 305.59335835 69.90836736 303.79296875 75.19921875 C303.35520695 76.49847714 302.9178203 77.79786198 302.48078918 79.09736633 C301.56711526 81.80797281 300.64770745 84.51654935 299.72436523 87.22387695 C298.54535663 90.68294084 297.38281952 94.14728741 296.22474194 97.61340618 C295.32692838 100.29341392 294.4194697 102.97008023 293.50921059 105.64588356 C292.86746795 107.53882484 292.23457343 109.43475841 291.60185242 111.33073425 C291.20496719 112.48575943 290.80808197 113.64078461 290.39916992 114.83081055 C290.05577072 115.84370651 289.71237152 116.85660248 289.35856628 117.90019226 C287.97927647 121.01676997 286.49915793 123.24164817 284.125 125.6875 C281.15827323 126.05983017 278.80643759 126.1683246 275.875 126 C275.12992188 125.97744141 274.38484375 125.95488281 273.6171875 125.93164062 C271.785591 125.87293561 269.95503347 125.78325757 268.125 125.6875 C268.14594727 126.42387695 268.16689453 127.16025391 268.18847656 127.91894531 C268.27167144 131.25832442 268.32367157 134.59748549 268.375 137.9375 C268.40851562 139.09636719 268.44203125 140.25523437 268.4765625 141.44921875 C268.48945312 142.56425781 268.50234375 143.67929688 268.515625 144.828125 C268.53657227 145.85454102 268.55751953 146.88095703 268.57910156 147.93847656 C268.125 150.6875 268.125 150.6875 264.125 154.6875 C249.935 154.6875 235.745 154.6875 221.125 154.6875 C221.125 271.5075 221.125 388.3275 221.125 508.6875 C249.175 508.6875 277.225 508.6875 306.125 508.6875 C309.33958257 512.9736101 309.58009969 515.1113925 309.55859375 520.15625 C309.5638356 520.873573 309.56907745 521.590896 309.57447815 522.32995605 C309.58088642 523.84284168 309.57957678 525.35577721 309.57104492 526.86865234 C309.56252666 529.1802652 309.59132027 531.48941189 309.62304688 533.80078125 C309.62465891 535.27343676 309.62408132 536.74609664 309.62109375 538.21875 C309.63232773 538.90739136 309.64356171 539.59603271 309.65513611 540.30554199 C309.61129598 543.33138153 309.36294759 545.33080447 307.6693387 547.86961025 C303.86631231 550.58681244 300.48263881 550.2405174 295.91387177 550.19365788 C294.96665388 550.19977123 294.019436 550.20588459 293.04351455 550.21218321 C289.84512738 550.22787881 286.64748818 550.21487825 283.44909668 550.2021637 C281.14272729 550.20748475 278.83636137 550.21454788 276.53000212 550.22321075 C270.17320834 550.24192314 263.81664617 550.23550354 257.45984244 550.22505772 C251.31446306 550.2168609 245.1691151 550.23125396 239.02374847 550.24311271 C225.67473522 550.26807682 212.32579281 550.26992908 198.97676302 550.26183859 C187.29500065 550.254773 175.61326581 550.25470138 163.9315033 550.26170158 C162.36611938 550.2626129 160.80073545 550.26352367 159.23535153 550.26443387 C156.87663041 550.26581696 154.5179093 550.26720805 152.15918819 550.26862001 C130.22281445 550.28160565 108.28644995 550.28670897 86.35007477 550.2750864 C85.10904385 550.27442945 85.10904385 550.27442945 83.84294159 550.27375922 C77.12370874 550.27015218 70.40447602 550.26631752 63.6852433 550.26246829 C37.46932281 550.24761788 11.25350648 550.2564025 -14.96240234 550.28442383 C-44.39891824 550.3158272 -73.83537246 550.33082968 -103.27190542 550.32062382 C-106.40843803 550.31958699 -109.54497066 550.31859977 -112.6815033 550.3176403 C-113.45382872 550.31739142 -114.22615415 550.31714253 -115.02188337 550.3168861 C-126.69788411 550.31344111 -138.37383052 550.32277086 -150.04981995 550.33841133 C-163.32257959 550.35614957 -176.59520668 550.35635704 -189.86796057 550.33305968 C-196.6451165 550.32163193 -203.42200725 550.31884983 -210.19915581 550.33736038 C-216.39582191 550.35406824 -222.59201819 550.34794609 -228.78865331 550.32314359 C-231.03757852 550.31822792 -233.28654093 550.32186301 -235.53543526 550.33463103 C-238.57882387 550.35067093 -241.62055973 550.33629859 -244.66387177 550.31391239 C-245.54904942 550.32590407 -246.43422708 550.33789575 -247.3462283 550.35025081 C-253.24915733 550.26081186 -253.24915733 550.26081186 -256.4193387 547.35672325 C-258.29084476 543.924972 -258.37691983 541.49468925 -258.37109375 537.59375 C-258.37254898 536.92460571 -258.37400421 536.25546143 -258.37550354 535.56604004 C-258.37385048 534.15742621 -258.36235552 532.74879321 -258.34155273 531.34033203 C-258.31258164 529.1935495 -258.32095651 527.04923811 -258.33398438 524.90234375 C-258.27762843 512.49209441 -258.27762843 512.49209441 -254.875 508.6875 C-251.65357362 507.92948336 -248.46588171 508.05706484 -245.17114258 508.11987305 C-244.1758403 508.11914291 -243.18053802 508.11841278 -242.15507507 508.11766052 C-238.85934285 508.12114898 -235.56501711 508.160071 -232.26953125 508.19921875 C-229.98696159 508.20854236 -227.70438194 508.2156606 -225.42179871 508.22065735 C-219.40947927 508.23976248 -213.39776229 508.28889443 -207.38568115 508.34417725 C-201.25264639 508.39529346 -195.11951443 508.41815513 -188.98632812 508.44335938 C-176.94895382 508.49700906 -164.91202698 508.58236501 -152.875 508.6875 C-152.8768986 508.10962292 -152.8787972 507.53174583 -152.88075334 506.93635732 C-152.99260357 472.69923352 -153.0784124 438.46215122 -153.13032665 404.22488459 C-153.1365803 400.11549892 -153.1430519 396.00611363 -153.1496582 391.89672852 C-153.15096976 391.07861162 -153.15228131 390.26049472 -153.1536326 389.41758641 C-153.17539899 376.1645275 -153.21482727 362.91157684 -153.26076398 349.65858219 C-153.30749437 336.06338561 -153.33528815 322.46824579 -153.34544247 308.87297219 C-153.35230876 300.48149192 -153.37400779 292.09031763 -153.41458233 283.69893154 C-153.44097857 277.94741494 -153.44900812 272.19605689 -153.44250689 266.44448409 C-153.43929901 263.12421305 -153.44699139 259.80459142 -153.47102737 256.48439026 C-153.49580541 252.88611969 -153.48995924 249.28917164 -153.47627258 245.69087219 C-153.49083679 244.63931657 -153.505401 243.58776094 -153.52040654 242.50433999 C-153.5104513 241.53993436 -153.50049606 240.57552873 -153.49023914 239.58189869 C-153.49213775 238.75145033 -153.49403635 237.92100196 -153.49599248 237.0653885 C-152.875 234.6875 -152.875 234.6875 -147.875 229.6875 C-138.965 229.6875 -130.055 229.6875 -120.875 229.6875 C-120.875 204.9375 -120.875 180.1875 -120.875 154.6875 C-139.355 154.6875 -157.835 154.6875 -176.875 154.6875 C-176.87055878 158.82541077 -176.86611755 162.96332153 -176.86154175 167.22662354 C-176.8217685 205.1462678 -176.79189817 243.0659096 -176.77286934 280.98557015 C-176.77036784 285.95245696 -176.7677792 290.91934373 -176.76513672 295.88623047 C-176.7646121 296.87507472 -176.76408748 297.86391896 -176.76354696 298.88272819 C-176.75483734 314.90731935 -176.73906432 330.9318962 -176.72069441 346.95647886 C-176.70201083 363.39139764 -176.69088655 379.8263089 -176.68682301 396.26123786 C-176.68407475 406.40765122 -176.67538539 416.55402414 -176.65916707 426.70042506 C-176.64861921 433.65218636 -176.64539437 440.60392666 -176.64799725 447.55569538 C-176.64928197 451.57029693 -176.64727185 455.58482768 -176.63658905 459.59941673 C-176.62688702 463.27213647 -176.62634515 466.94473751 -176.63320221 470.61746261 C-176.63445306 472.58094017 -176.62579994 474.54441626 -176.61683738 476.50787377 C-176.62081948 477.6688419 -176.62480158 478.82981003 -176.62890434 480.02595901 C-176.62776518 481.53192984 -176.62776518 481.53192984 -176.62660301 483.06832433 C-176.88426621 485.78520577 -177.39543021 487.40917533 -178.875 489.6875 C-181.67370027 491.08685013 -183.77998792 490.94015405 -186.875 490.6875 C-188.54333478 489.51998299 -188.54333478 489.51998299 -189.875 487.6875 C-190.24759549 485.17969877 -190.24759549 485.17969877 -190.24414349 482.1177721 C-190.25011663 480.95182823 -190.25608978 479.78588436 -190.26224393 478.58460885 C-190.2535054 477.29766159 -190.24476688 476.01071434 -190.23576355 474.68476868 C-190.23707111 473.30861917 -190.23969661 471.9324704 -190.24353105 470.55632561 C-190.25025782 466.7662845 -190.23821346 462.97649641 -190.22319686 459.18648756 C-190.21027219 455.10265749 -190.21462343 451.01884232 -190.21690369 446.93499756 C-190.21847869 439.856653 -190.20904584 432.77839125 -190.19219017 425.70006752 C-190.16783539 415.46594382 -190.15999851 405.23186026 -190.1562262 394.99771073 C-190.14965617 378.39452858 -190.12968008 361.79139059 -190.10131836 345.18823242 C-190.07379203 329.0573753 -190.05255148 312.92653016 -190.03979492 296.7956543 C-190.03900675 295.80177294 -190.03821858 294.80789158 -190.03740653 293.78389261 C-190.03349149 288.79800886 -190.02970035 283.81212503 -190.02597082 278.82624114 C-189.99485776 237.44663004 -189.94200699 196.06706754 -189.875 154.6875 C-190.55079102 154.71368408 -191.22658203 154.73986816 -191.92285156 154.7668457 C-194.98999712 154.87089264 -198.05677158 154.93584947 -201.125 155 C-202.72021484 155.0628418 -202.72021484 155.0628418 -204.34765625 155.12695312 C-212.22534252 155.25081612 -212.22534252 155.25081612 -215.58099365 152.34114075 C-217.06802195 149.29166661 -217.33798559 147.33207643 -217.265625 143.94921875 C-217.25273437 142.88251953 -217.23984375 141.81582031 -217.2265625 140.71679688 C-217.19304687 139.61400391 -217.15953125 138.51121094 -217.125 137.375 C-217.10695312 136.25287109 -217.08890625 135.13074219 -217.0703125 133.97460938 C-217.02327856 131.21136553 -216.95756317 128.44987302 -216.875 125.6875 C-218.42960937 125.77451172 -218.42960937 125.77451172 -220.015625 125.86328125 C-221.38537156 125.91019038 -222.75516692 125.95568932 -224.125 126 C-225.14787109 126.0628418 -225.14787109 126.0628418 -226.19140625 126.12695312 C-228.203125 126.17578125 -228.203125 126.17578125 -231.875 125.6875 C-235.42012773 122.10793317 -237.03999052 118.19700436 -238.57421875 113.4921875 C-238.81089264 112.79495575 -239.04756653 112.097724 -239.29141235 111.37936401 C-240.05878924 109.11040535 -240.81117795 106.83682047 -241.5625 104.5625 C-242.0887188 102.98966844 -242.61566227 101.41707915 -243.14331055 99.84472656 C-243.94480043 97.45380412 -244.74480396 95.06243926 -245.54005432 92.66943359 C-247.21351126 87.6355367 -248.93599053 82.62163853 -250.6953125 77.6171875 C-251.11852783 76.39789551 -251.54174316 75.17860352 -251.9777832 73.92236328 C-252.76520697 71.65401075 -253.56271504 69.38912551 -254.37182617 67.12841797 C-256.27047247 61.57717552 -257.68724219 57.394135 -255.875 51.6875 C-252.47900972 49.42350648 -251.33109781 49.43965466 -247.35115051 49.44699097 C-245.6284771 49.44286697 -245.6284771 49.44286697 -243.8710022 49.43865967 C-242.61008759 49.44585022 -241.34917297 49.45304077 -240.05004883 49.46044922 C-238.70972197 49.46101333 -237.36939449 49.46069678 -236.02906799 49.45956421 C-232.38881187 49.45898967 -228.74868716 49.47076027 -225.10846162 49.48471212 C-221.30479232 49.49720267 -217.50112011 49.49838866 -213.69743347 49.50076294 C-206.49389653 49.50698264 -199.29042019 49.52340008 -192.08690995 49.54346192 C-183.88627942 49.56580568 -175.68564601 49.57681051 -167.48499262 49.58685279 C-150.61496001 49.60776589 -133.74498641 49.64295138 -116.875 49.6875 C-116.75092773 48.81432129 -116.62685547 47.94114258 -116.49902344 47.04150391 C-116.24427246 45.30779541 -116.24427246 45.30779541 -115.984375 43.5390625 C-115.81905273 42.39775879 -115.65373047 41.25645508 -115.48339844 40.08056641 C-113.36393341 28.2602113 -107.19917479 15.43791266 -98.875 6.6875 C-98.215 6.6875 -97.555 6.6875 -96.875 6.6875 C-96.875 6.0275 -96.875 5.3675 -96.875 4.6875 C-96.215 4.6875 -95.555 4.6875 -94.875 4.6875 C-94.875 4.0275 -94.875 3.3675 -94.875 2.6875 C-67.3739858 -20.81727307 -28.44971877 -23.75630016 0 0 Z M-91.80859375 17.99609375 C-101.74414991 31.35033591 -105.17792516 46.25435643 -103.875 62.6875 C-101.16187476 78.11839981 -94.46385467 91.80949732 -81.5703125 101.171875 C-66.44331111 111.5577023 -50.70151547 114.77773754 -32.60546875 112.2265625 C-15.45156046 107.95692208 -3.47100035 97.20401666 6.0625 82.75 C7.2776522 80.77785663 7.2776522 80.77785663 7.125 78.6875 C14.875 78.5625 14.875 78.5625 17.125 79.6875 C18.04541832 86.74404045 15.21089331 91.07253005 11.125 96.6875 C6.572859 102.27016134 1.75751826 107.2103701 -3.875 111.6875 C-3.875 112.0175 -3.875 112.3475 -3.875 112.6875 C41.335 112.6875 86.545 112.6875 133.125 112.6875 C135.71595891 106.21010271 138.17691834 99.82167995 140.359375 93.21484375 C140.78370819 91.94115685 140.78370819 91.94115685 141.21661377 90.64173889 C141.8061581 88.87011427 142.39426235 87.09800981 142.98095703 85.32543945 C143.88352787 82.59924172 144.79102744 79.87472055 145.69921875 77.15039062 C146.27372306 75.42196989 146.84795212 73.69345763 147.421875 71.96484375 C147.82959137 70.74002541 147.82959137 70.74002541 148.24554443 69.49046326 C149.54995674 66.15539252 149.54995674 66.15539252 150.125 62.6875 C149.11009176 62.68253478 149.11009176 62.68253478 148.07468033 62.67746925 C131.61646327 62.5962726 115.15834685 62.50419114 98.70026016 62.39997292 C90.74127375 62.34983679 82.78229769 62.30339399 74.82324219 62.265625 C67.88667332 62.23269878 60.95018455 62.1928641 54.01370406 62.14470994 C50.34040021 62.11945117 46.66714945 62.09766809 42.99378204 62.08415604 C38.8945005 62.06894794 34.79547415 62.03831745 30.69628906 62.00634766 C29.47637268 62.00418747 28.2564563 62.00202728 26.99957275 61.99980164 C25.32532227 61.98305641 25.32532227 61.98305641 23.61724854 61.9659729 C22.64752232 61.96044214 21.6777961 61.95491138 20.67868423 61.94921303 C17.99545525 61.67422367 16.35754847 61.19104227 14.125 59.6875 C13.40234375 57.0703125 13.40234375 57.0703125 13.0625 53.8125 C10.89651032 37.19444472 5.95531824 21.7406641 -6.69140625 10.09375 C-33.10195982 -9.86809171 -69.93425928 -8.12053589 -91.80859375 17.99609375 Z M-240.875 62.6875 C-237.00995639 80.08019624 -230.50922084 96.78483749 -224.875 113.6875 C-179.005 113.6875 -133.135 113.6875 -85.875 113.6875 C-88.86210446 110.70039554 -91.47393497 108.14688283 -94.6875 105.5625 C-107.86251722 94.02505554 -112.29843325 79.37814485 -115.875 62.6875 C-157.125 62.6875 -198.375 62.6875 -240.875 62.6875 Z M163.125 62.6875 C154.35977392 88.10135144 154.35977392 88.10135144 146.125 113.6875 C189.355 113.6875 232.585 113.6875 277.125 113.6875 C287.94211042 88.64465409 287.94211042 88.64465409 293.125 62.6875 C250.225 62.6875 207.325 62.6875 163.125 62.6875 Z M-203.875 125.6875 C-203.875 130.9675 -203.875 136.2475 -203.875 141.6875 C-99.595 141.6875 4.685 141.6875 112.125 141.6875 C112.125 136.4075 112.125 131.1275 112.125 125.6875 C7.845 125.6875 -96.435 125.6875 -203.875 125.6875 Z M125.125 125.6875 C125.125 130.9675 125.125 136.2475 125.125 141.6875 C126.88328125 141.73648438 128.6415625 141.78546875 130.453125 141.8359375 C132.76043254 141.91097189 135.06772343 141.98651943 137.375 142.0625 C138.53386719 142.0934375 139.69273437 142.124375 140.88671875 142.15625 C142.55927734 142.21425781 142.55927734 142.21425781 144.265625 142.2734375 C145.29204102 142.3048584 146.31845703 142.3362793 147.37597656 142.36865234 C150.09367073 142.68386625 151.79424435 143.29782351 154.125 144.6875 C154.3125 148.0625 154.3125 148.0625 154.125 151.6875 C143.5529032 158.73556453 128.82589605 154.32461726 116.125 154.6875 C116.125 271.5075 116.125 388.3275 116.125 508.6875 C134.605 508.6875 153.085 508.6875 172.125 508.6875 C172.13086624 504.1317215 172.13673248 499.57594299 172.14277649 494.8821106 C172.19790166 453.14646923 172.26782764 411.41087353 172.35398628 369.67528427 C172.36525503 364.21011813 172.37639339 358.74495173 172.38745117 353.27978516 C172.38965486 352.191726 172.39185854 351.10366684 172.394129 349.9826362 C172.42954326 332.34331062 172.45438405 314.70398508 172.47534702 297.06463708 C172.49707624 278.97762039 172.53009911 260.89065 172.57370156 242.80367267 C172.60026802 231.6346367 172.61792655 220.46565848 172.62434604 209.29659246 C172.6295847 201.64725731 172.64575009 193.99799495 172.67066566 186.34869875 C172.68473313 181.92928392 172.69383205 177.50999955 172.69000816 173.09056091 C172.68661813 169.05025401 172.69684476 165.01022658 172.71823552 160.96997701 C172.72353919 159.50293514 172.72370125 158.0358645 172.71839563 156.56882264 C172.71194906 154.58531839 172.72549262 152.60177846 172.74023914 150.61831856 C172.74213775 149.5133324 172.74403635 148.40834624 172.74599248 147.26987565 C172.87106496 146.41769168 172.99613744 145.56550772 173.125 144.6875 C176.77023159 142.25734561 179.50090501 142.38116562 183.7175293 142.36865234 C184.48849945 142.35860672 185.2594696 142.3485611 186.05380249 142.33821106 C188.60226699 142.30731895 191.15062615 142.29032733 193.69921875 142.2734375 C195.46613983 142.25473068 197.23305194 142.23515764 198.99995422 142.2147522 C203.65071322 142.16337354 208.3015012 142.12377855 212.95239258 142.08660889 C217.6981527 142.04660515 222.44379167 141.99549627 227.18945312 141.9453125 C236.50122554 141.84848526 245.81304772 141.76512853 255.125 141.6875 C255.125 136.4075 255.125 131.1275 255.125 125.6875 C212.225 125.6875 169.325 125.6875 125.125 125.6875 Z M-108.875 154.6875 C-108.875 179.4375 -108.875 204.1875 -108.875 229.6875 C-100.625 229.6875 -92.375 229.6875 -83.875 229.6875 C-83.875 204.9375 -83.875 180.1875 -83.875 154.6875 C-92.125 154.6875 -100.375 154.6875 -108.875 154.6875 Z M-71.875 154.6875 C-71.875 179.4375 -71.875 204.1875 -71.875 229.6875 C-14.125 229.6875 43.625 229.6875 103.125 229.6875 C103.125 204.9375 103.125 180.1875 103.125 154.6875 C45.375 154.6875 -12.375 154.6875 -71.875 154.6875 Z M184.125 154.6875 C184.125 271.1775 184.125 387.6675 184.125 507.6875 C192.375 507.6875 200.625 507.6875 209.125 507.6875 C209.125 391.1975 209.125 274.7075 209.125 154.6875 C200.875 154.6875 192.625 154.6875 184.125 154.6875 Z M-139.875 242.6875 C-139.875 330.4675 -139.875 418.2475 -139.875 508.6875 C-84.765 508.6875 -29.655 508.6875 27.125 508.6875 C27.125 420.9075 27.125 333.1275 27.125 242.6875 C-27.985 242.6875 -83.095 242.6875 -139.875 242.6875 Z M40.125 242.6875 C40.125 330.4675 40.125 418.2475 40.125 508.6875 C60.915 508.6875 81.705 508.6875 103.125 508.6875 C103.125 420.9075 103.125 333.1275 103.125 242.6875 C82.335 242.6875 61.545 242.6875 40.125 242.6875 Z M-244.875 520.6875 C-244.875 525.9675 -244.875 531.2475 -244.875 536.6875 C-121.455 536.6875 1.965 536.6875 129.125 536.6875 C129.125 531.4075 129.125 526.1275 129.125 520.6875 C5.705 520.6875 -117.715 520.6875 -244.875 520.6875 Z M141.125 520.6875 C141.125 525.9675 141.125 531.2475 141.125 536.6875 C192.275 536.6875 243.425 536.6875 296.125 536.6875 C296.125 531.4075 296.125 526.1275 296.125 520.6875 C244.975 520.6875 193.825 520.6875 141.125 520.6875 Z " fill="#000000" transform="translate(323.875,33.3125)"/>
<path d="M0 0 C1.11880051 -0.00845947 2.23760101 -0.01691895 3.39030457 -0.02563477 C4.61328751 -0.01956207 5.83627045 -0.01348938 7.09631348 -0.00723267 C8.3876973 -0.01248962 9.67908112 -0.01774658 11.00959778 -0.02316284 C14.54885877 -0.03683573 18.08785732 -0.03153806 21.62712288 -0.02202559 C25.33150056 -0.01442879 29.03585581 -0.02147465 32.74023438 -0.02618408 C38.96101922 -0.03164159 45.1816972 -0.0244502 51.40246582 -0.01016235 C58.59390816 0.00616422 65.78509535 0.00087571 72.97653151 -0.01564157 C79.15159269 -0.02925663 85.32657708 -0.03117602 91.50164843 -0.02332556 C95.18947056 -0.01864913 98.87717276 -0.0180233 102.56498718 -0.02793503 C106.67584336 -0.03821204 110.78625983 -0.02396703 114.89709473 -0.00723267 C116.12007767 -0.01330536 117.34306061 -0.01937805 118.60310364 -0.02563477 C119.72190414 -0.01717529 120.84070465 -0.00871582 121.9934082 0 C122.96531349 0.00113108 123.93721878 0.00226215 124.93857574 0.00342751 C128.01362679 0.45723733 129.36699632 1.11766709 131.4967041 3.38095093 C132.00006866 5.69109249 132.00006866 5.69109249 132.00463867 8.46028137 C132.01591797 9.51039398 132.02719727 10.56050659 132.03881836 11.6424408 C132.03072144 12.7942131 132.02262451 13.94598541 132.01428223 15.13265991 C132.0212915 16.34586914 132.02830078 17.55907837 132.03552246 18.80905151 C132.05012733 22.13789792 132.04668191 25.4657519 132.03400612 28.79454303 C132.02388453 32.27738459 132.03326965 35.76018352 132.03955078 39.24302673 C132.04683066 45.09319682 132.03723176 50.94316501 132.01818848 56.79330444 C131.996429 63.55593546 132.00346259 70.31808393 132.0254941 77.0807032 C132.04365073 82.88634032 132.04620491 88.69183222 132.03573942 94.49748856 C132.02950453 97.96515152 132.02866824 101.43258775 132.04188538 104.90023613 C132.05559363 108.7669637 132.03658972 112.63315175 132.01428223 116.49984741 C132.02237915 117.64959549 132.03047607 118.79934357 132.03881836 119.9839325 C132.02753906 121.03686493 132.01625977 122.08979736 132.00463867 123.17463684 C132.00313057 124.0888462 132.00162247 125.00305555 132.00006866 125.94496822 C131.32040991 129.23410912 130.18138332 130.39972705 127.4967041 132.38095093 C124.93857574 132.88431549 124.93857574 132.88431549 121.9934082 132.8888855 C120.8746077 132.90016479 119.75580719 132.91144409 118.60310364 132.92306519 C117.3801207 132.91496826 116.15713776 132.90687134 114.89709473 132.89852905 C112.960019 132.90904297 112.960019 132.90904297 110.98381042 132.91976929 C107.44448259 132.93800015 103.90562129 132.93093649 100.36628532 132.91825294 C96.66190206 132.90812387 92.95755867 132.91751835 89.25317383 132.92379761 C83.03235708 132.93107432 76.81173029 132.92148583 70.59094238 132.9024353 C63.39943229 132.88066633 56.2083758 132.8877177 49.0168767 132.90974092 C42.84179823 132.92789439 36.6668563 132.93045357 30.49175978 132.91998625 C26.80390456 132.91375095 23.11626253 132.91291647 19.42842102 132.9261322 C15.31744534 132.93983529 11.20725131 132.9208421 7.09631348 132.89852905 C5.87333054 132.90662598 4.6503476 132.9147229 3.39030457 132.92306519 C2.27150406 132.91178589 1.15270355 132.90050659 0 132.8888855 C-0.97190529 132.8873774 -1.94381058 132.88586929 -2.94516754 132.88431549 C-6.31331561 132.22156283 -7.48230655 131.12740626 -9.5032959 128.38095093 C-10.00666046 125.94496822 -10.00666046 125.94496822 -10.01123047 123.17463684 C-10.02250977 122.12170441 -10.03378906 121.06877197 -10.04541016 119.9839325 C-10.03731323 118.83418442 -10.02921631 117.68443634 -10.02087402 116.49984741 C-10.0278833 115.28488586 -10.03489258 114.06992432 -10.04211426 112.81814575 C-10.05670258 109.48942485 -10.05328531 106.16169848 -10.04059792 102.83303332 C-10.03046763 99.3497298 -10.03986345 95.86646865 -10.04614258 92.38316345 C-10.05341798 86.53477347 -10.04383327 80.68658561 -10.02478027 74.83822632 C-10.00300132 68.07498667 -10.01007034 61.31222916 -10.0320859 54.54900116 C-10.05023101 48.74251025 -10.05280296 42.93616456 -10.04233122 37.12965447 C-10.0360926 33.66147936 -10.03527067 30.19353098 -10.04847717 26.72537041 C-10.06216514 22.86094247 -10.04320045 18.99705588 -10.02087402 15.13265991 C-10.02897095 13.9808876 -10.03706787 12.8291153 -10.04541016 11.6424408 C-10.03413086 10.59232819 -10.02285156 9.54221558 -10.01123047 8.46028137 C-10.00972237 7.54644904 -10.00821426 6.63261671 -10.00666046 5.69109249 C-9.5032959 3.38095093 -9.5032959 3.38095093 -7.81550598 1.58730221 C-5.01015988 0.12366667 -3.15962933 0.00367709 0 0 Z M3.4967041 13.38095093 C3.4967041 26.91095093 3.4967041 40.44095093 3.4967041 54.38095093 C41.4467041 54.38095093 79.3967041 54.38095093 118.4967041 54.38095093 C118.4967041 40.85095093 118.4967041 27.32095093 118.4967041 13.38095093 C80.5467041 13.38095093 42.5967041 13.38095093 3.4967041 13.38095093 Z M3.4967041 67.38095093 C3.4967041 73.98095093 3.4967041 80.58095093 3.4967041 87.38095093 C12.7367041 87.38095093 21.9767041 87.38095093 31.4967041 87.38095093 C31.4967041 80.78095093 31.4967041 74.18095093 31.4967041 67.38095093 C22.2567041 67.38095093 13.0167041 67.38095093 3.4967041 67.38095093 Z M43.4967041 67.38095093 C43.4967041 73.98095093 43.4967041 80.58095093 43.4967041 87.38095093 C52.7367041 87.38095093 61.9767041 87.38095093 71.4967041 87.38095093 C71.4967041 80.78095093 71.4967041 74.18095093 71.4967041 67.38095093 C62.2567041 67.38095093 53.0167041 67.38095093 43.4967041 67.38095093 Z M84.4967041 67.38095093 C84.4967041 84.54095093 84.4967041 101.70095093 84.4967041 119.38095093 C95.7167041 119.38095093 106.9367041 119.38095093 118.4967041 119.38095093 C118.4967041 102.22095093 118.4967041 85.06095093 118.4967041 67.38095093 C107.2767041 67.38095093 96.0567041 67.38095093 84.4967041 67.38095093 Z M3.4967041 99.38095093 C3.4967041 105.98095093 3.4967041 112.58095093 3.4967041 119.38095093 C12.7367041 119.38095093 21.9767041 119.38095093 31.4967041 119.38095093 C31.4967041 112.78095093 31.4967041 106.18095093 31.4967041 99.38095093 C22.2567041 99.38095093 13.0167041 99.38095093 3.4967041 99.38095093 Z M43.4967041 99.38095093 C43.4967041 105.98095093 43.4967041 112.58095093 43.4967041 119.38095093 C52.7367041 119.38095093 61.9767041 119.38095093 71.4967041 119.38095093 C71.4967041 112.78095093 71.4967041 106.18095093 71.4967041 99.38095093 C62.2567041 99.38095093 53.0167041 99.38095093 43.4967041 99.38095093 Z " fill="#000000" transform="translate(206.5032958984375,302.6190490722656)"/>
<path d="M0 0 C5.06012155 1.17501373 9.2224965 4.7797761 13.37646484 7.75830078 C14.36066406 8.44021484 15.34486328 9.12212891 16.35888672 9.82470703 C25.6376939 16.3217644 25.6376939 16.3217644 28.18896484 19.50830078 C28.57884536 22.14070346 28.72693787 24.35406797 28.69067383 26.9831543 C28.69607681 27.72994446 28.7014798 28.47673462 28.70704651 29.24615479 C28.71953604 31.71024419 28.70304397 34.17316578 28.68505859 36.63720703 C28.68521356 38.35066285 28.68670217 40.06411903 28.68946838 41.77757263 C28.69085241 45.36627726 28.67829261 48.95458223 28.65551758 52.54321289 C28.6271113 57.14584495 28.62987591 61.74781405 28.64260769 66.35049534 C28.64955791 69.88752417 28.64178351 73.4243994 28.62935066 76.96140862 C28.62483126 78.65869495 28.62450362 80.35599775 28.62841606 82.0532856 C28.63132245 84.42348247 28.61485064 86.79276091 28.59301758 89.1628418 C28.59751923 89.86577866 28.60202087 90.56871552 28.60665894 91.29295349 C28.5636648 94.09812947 28.47342465 96.0698884 26.9254303 98.45567322 C23.78478726 100.35949884 20.77954315 99.6848866 17.18896484 99.50830078 C17.19562668 100.29233276 17.20228851 101.07636475 17.20915222 101.88415527 C17.26944056 109.29858121 17.31502883 116.7128871 17.34440136 124.12749481 C17.3600101 127.93878192 17.38115975 131.74986528 17.4152832 135.56103516 C17.44804905 139.24392174 17.46585384 142.92661322 17.47359657 146.6096344 C17.47910937 148.00976123 17.4898741 149.40987824 17.50615501 150.80992126 C17.68815169 167.11949016 17.68815169 167.11949016 12.57568359 173.53173828 C7.92028905 177.2346498 4.17079658 179.62523536 -1.99853516 179.38330078 C-4.81103516 178.50830078 -4.81103516 178.50830078 -6.74853516 176.75830078 C-7.81103516 174.50830078 -7.81103516 174.50830078 -7.68603516 171.94580078 C-6.71710103 169.24662715 -6.123244 168.18265891 -3.81103516 166.50830078 C-1.82747033 165.79421744 0.17211922 165.12212336 2.18896484 164.50830078 C3.99228096 162.70498467 3.36095778 159.95281621 3.39428711 157.51977539 C3.41423233 156.2385228 3.43417755 154.9572702 3.45472717 153.63719177 C3.47171281 152.22834395 3.48859157 150.81949483 3.50537109 149.41064453 C3.525934 147.97717173 3.54693029 146.54370509 3.56834412 145.11024475 C3.62363344 141.33076958 3.6730123 137.55123908 3.72119141 133.77166748 C3.7713565 129.91755223 3.82706856 126.06351769 3.88232422 122.20947266 C3.98998963 114.64248364 4.09141581 107.07542768 4.18896484 99.50830078 C2.95146484 99.59080078 1.71396484 99.67330078 0.43896484 99.75830078 C-2.58942314 99.96019331 -3.56494208 99.6916021 -6.04530334 97.84411621 C-8.22466318 94.96112894 -8.31214319 93.47159617 -8.31274414 89.88525391 C-8.32212509 88.75728394 -8.33150604 87.62931396 -8.34117126 86.46716309 C-8.32993729 85.25355103 -8.31870331 84.03993896 -8.30712891 82.78955078 C-8.30931175 80.91450867 -8.30931175 80.91450867 -8.3115387 79.00158691 C-8.30987841 76.35824634 -8.30038828 73.71634401 -8.27758789 71.07324219 C-8.24920243 67.69028587 -8.25194161 64.30823217 -8.264678 60.92520905 C-8.27331657 57.69243166 -8.25818508 54.45979993 -8.24462891 51.22705078 C-8.24756454 50.01343872 -8.25050018 48.79982666 -8.25352478 47.54943848 C-8.24084061 46.42146851 -8.22815643 45.29349854 -8.21508789 44.13134766 C-8.20968491 43.13969604 -8.20428192 42.14804443 -8.19871521 41.12634277 C-7.74920954 38.09078622 -6.92674808 36.70309831 -4.81103516 34.50830078 C-2.54272461 34.05419922 -2.54272461 34.05419922 0.07568359 34.11767578 C1.01347656 34.13056641 1.95126953 34.14345703 2.91748047 34.15673828 C3.89394531 34.19025391 4.87041016 34.22376953 5.87646484 34.25830078 C6.86453125 34.27634766 7.85259766 34.29439453 8.87060547 34.31298828 C11.3104717 34.36013545 13.74984004 34.43187912 16.18896484 34.50830078 C16.18896484 31.53830078 16.18896484 28.56830078 16.18896484 25.50830078 C15.47482422 25.25693359 14.76068359 25.00556641 14.02490234 24.74658203 C9.86953599 22.93218653 6.53629516 20.23754852 2.92333984 17.52783203 C0.68120563 15.87185576 -1.5853906 14.37430879 -3.93603516 12.88330078 C-6.81103516 10.50830078 -6.81103516 10.50830078 -7.93603516 7.44580078 C-7.81103516 4.50830078 -7.81103516 4.50830078 -6.81103516 2.13330078 C-4.50618616 0.26061097 -2.94932265 -0.07256816 0 0 Z M5.18896484 46.50830078 C5.18896484 60.03830078 5.18896484 73.56830078 5.18896484 87.50830078 C8.81896484 87.50830078 12.44896484 87.50830078 16.18896484 87.50830078 C16.18896484 73.97830078 16.18896484 60.44830078 16.18896484 46.50830078 C12.55896484 46.50830078 8.92896484 46.50830078 5.18896484 46.50830078 Z " fill="#000000" transform="translate(384.81103515625,331.49169921875)"/>
<path d="M0 0 C4.61968123 1.60733435 7.25279851 4.4983489 10.5859375 7.9921875 C11.57557495 9.00732422 11.57557495 9.00732422 12.58520508 10.04296875 C21.76066335 19.61303392 31.75100124 30.69332767 31.4765625 44.62109375 C30.74207306 51.52313424 28.093592 56.71497374 23.0859375 61.4921875 C14.34500545 68.55052578 4.69631874 70.70889806 -6.421875 69.93359375 C-14.68164436 68.67779809 -21.98871255 64.81213262 -27.2265625 58.2421875 C-31.24374597 52.26762284 -33.66918347 46.40961842 -32.7890625 39.1171875 C-28.60958414 23.81871956 -15.76523758 11.88780132 -4.7421875 1.1171875 C-2.7890625 0.1171875 -2.7890625 0.1171875 0 0 Z M-4.14453125 18.35546875 C-5.0972212 19.37214408 -6.04069028 20.39751015 -6.9765625 21.4296875 C-7.46616455 21.96932129 -7.9557666 22.50895508 -8.46020508 23.06494141 C-16.35723855 31.61480278 -16.35723855 31.61480278 -20.05078125 42.21484375 C-19.68616214 46.25830639 -18.47887287 49.13621209 -15.7890625 52.1171875 C-9.55725965 56.6432049 -3.38512544 58.23608384 4.2109375 57.1171875 C10.31300981 55.81341723 13.72301525 53.45165683 17.2109375 48.1171875 C19.19016975 43.84204585 19.49802795 41.99356887 18.0234375 37.4921875 C13.6070036 29.75204561 6.78459031 22.05654047 0.2109375 16.1171875 C-2.0889808 15.88757275 -2.0889808 15.88757275 -4.14453125 18.35546875 Z " fill="#000000" transform="translate(278.7890625,52.8828125)"/>
<path d="M0 0 C10.00618446 4.73665536 18.53360157 20.79468181 22.60546875 30.6875 C24.95235587 38.0742461 24.00155042 44.17077845 20.91796875 51.1875 C17.39068319 57.68997425 11.98098683 61.67828794 4.98046875 63.9375 C-4.22234182 64.93666229 -12.34269537 64.58004862 -20.01953125 58.9375 C-26.37576618 53.33539464 -28.61541928 45.95269299 -29.140625 37.76171875 C-28.58632647 24.83404657 -17.31329691 12.01311788 -9.01953125 2.9375 C-6.02824008 0.34692896 -4.08589087 -0.8363444 0 0 Z M-3.01953125 15.9375 C-8.67850517 22.15179379 -15.37511891 29.71148538 -16.2734375 38.390625 C-16.04558878 42.56094711 -15.32996974 44.54315922 -12.70703125 47.875 C-7.95451091 51.52228305 -5.1605915 52.5620146 0.98046875 51.9375 C4.98242017 50.49120955 7.43738201 48.6672728 9.98046875 45.25 C11.68778565 39.59451277 11.25727776 35.39552805 8.51953125 30.125 C5.38555279 25.08873766 1.99578673 20.30711075 -2.01953125 15.9375 C-2.34953125 15.9375 -2.67953125 15.9375 -3.01953125 15.9375 Z " fill="#000000" transform="translate(270.01953125,455.0625)"/>
</svg>
