<?xml version="1.0" encoding="UTF-8"?>
<svg version="1.1" xmlns="http://www.w3.org/2000/svg" width="700" height="603">
<path d="M0 0 C0.95758306 -0.00205263 1.91516611 -0.00410527 2.90176684 -0.0062201 C6.14120991 -0.01191755 9.38061083 -0.01042948 12.62005806 -0.00901413 C14.95372127 -0.01159619 17.28738404 -0.0146089 19.62104619 -0.01801753 C25.38176402 -0.0252594 31.14247074 -0.02779106 36.90319279 -0.02834659 C43.80074097 -0.0292593 50.69828055 -0.03592405 57.59582504 -0.04269341 C74.26746541 -0.05876445 90.93910487 -0.0646577 107.61075159 -0.06944216 C115.49412359 -0.07177674 123.37749486 -0.07537921 131.26086629 -0.07913754 C158.23538766 -0.09197327 185.20990863 -0.10269304 212.18443298 -0.10614014 C213.8781752 -0.10636177 215.57191742 -0.10658355 217.26565964 -0.10680549 C218.96353738 -0.10702613 220.66141512 -0.10724661 222.35929286 -0.10746694 C225.76564209 -0.10790949 229.17199131 -0.10835661 232.57834053 -0.10880661 C233.8452083 -0.1089707 233.8452083 -0.1089707 235.13766935 -0.1091381 C262.53470763 -0.11277025 289.93171948 -0.12869613 317.32874764 -0.15199697 C346.28060229 -0.17657527 375.23244182 -0.19031202 404.18430722 -0.19150805 C407.36047308 -0.19167952 410.53663894 -0.19189495 413.71280479 -0.19214249 C414.49489135 -0.19219826 415.27697791 -0.19225402 416.08276405 -0.19231148 C428.68551187 -0.1934636 441.28823262 -0.2044991 453.89097129 -0.21902954 C466.55016578 -0.23337308 479.20932546 -0.23664366 491.86852585 -0.22858956 C498.73080069 -0.22451745 505.59299216 -0.22528574 512.45525551 -0.23964691 C518.73085204 -0.25230508 525.0062878 -0.25125995 531.28188385 -0.2390562 C533.55845102 -0.23708511 535.83502927 -0.24024203 538.11158083 -0.24890056 C541.19428564 -0.25988768 544.27641245 -0.25258036 547.35910034 -0.24050903 C548.25316725 -0.24810423 549.14723416 -0.25569942 550.06839401 -0.26352477 C554.80889511 -0.22315576 557.95945822 0.04670005 561.80539131 3.13142776 C569.19099426 12.67317623 564.18282296 32.82777276 562.80539131 44.13142776 C558.67460642 75.40044614 548.76680469 105.37628499 533.80539131 133.13142776 C533.46717354 133.77305862 533.12895576 134.41468948 532.78048897 135.0757637 C525.00207051 149.79286443 515.50043287 163.38118233 504.80539131 176.13142776 C504.39418037 176.63142288 503.98296944 177.131418 503.55929756 177.64656448 C492.22805803 191.41237831 479.8888376 204.16465008 465.80539131 215.13142776 C464.64296554 216.08047767 463.4829604 217.03249735 462.32492256 217.98689651 C400.92346485 268.38494215 320.02424886 288.42401008 241.76193428 281.53816605 C206.90354611 277.95467384 172.2828266 268.58787654 140.80539131 253.13142776 C139.87839424 252.67751663 138.95139717 252.2236055 137.99630928 251.75593948 C72.02985563 219.13200707 19.52843342 162.06778465 -4.19460869 92.13142776 C-11.50198622 69.66107161 -15.69786691 46.69917128 -17.19460869 23.13142776 C-17.24665459 22.35025589 -17.29870049 21.56908401 -17.35232353 20.76424026 C-17.48175135 18.57377959 -17.56729176 16.38715763 -17.63210869 14.19392776 C-17.67206963 12.96802933 -17.71203056 11.74213089 -17.75320244 10.47908401 C-16.99575653 5.93970537 -15.45472943 4.34367595 -12.19460869 1.13142776 C-8.14118488 -0.21971351 -4.22701398 -0.00832221 0 0 Z M2.80539131 20.13142776 C2.61465913 28.9548288 2.9476275 37.36781949 4.43039131 46.06892776 C4.6100544 47.13957474 4.78971748 48.21022171 4.97482491 49.31331253 C11.16932587 84.71678714 24.6215208 118.95608567 45.80539131 148.13142776 C46.25704659 148.76806351 46.70870186 149.40469925 47.17404366 150.06062698 C55.98981723 162.46678075 66.05016419 173.3937173 76.80539131 184.13142776 C77.59816475 184.95900589 78.39093819 185.78658401 79.20773506 186.63924026 C86.22197127 193.88043943 93.74611494 200.08934645 101.80539131 206.13142776 C103.21304756 207.19683792 103.21304756 207.19683792 104.64914131 208.28377151 C125.6539147 223.88290469 161.84202507 250.13142776 188.80539131 250.13142776 C188.93259536 243.01492359 189.01991209 235.89871464 189.08004951 228.78133011 C189.10513004 226.36227334 189.13920281 223.94329188 189.18258858 221.52449417 C189.24352176 218.03911592 189.27166694 214.55474313 189.29367256 211.06892776 C189.3323822 209.45751907 189.3323822 209.45751907 189.37187386 207.81355667 C189.37441834 200.93815201 188.28438243 196.43893426 183.80539131 191.13142776 C179.90419481 187.30847876 175.71189093 184.83952176 170.92819405 182.24055862 C154.69271037 173.40633542 144.12354209 160.12278933 138.68039131 142.19392776 C135.794193 128.71125853 139.423023 117.96157507 145.93039131 106.19392776 C146.83068496 104.53998886 147.7292036 102.88508218 148.62570381 101.22908401 C149.02031807 100.51244583 149.41493233 99.79580765 149.82150459 99.05745316 C152.34999564 94.1077594 152.0256352 89.37069852 152.05539131 83.94392776 C152.07601631 83.02289261 152.09664131 82.10185745 152.11789131 81.15291214 C152.15874412 73.95771128 150.8982403 68.73112803 147.24289131 62.44392776 C141.16139276 56.67430094 133.53688186 53.97528334 125.27414131 54.09627151 C108.46640717 54.09382408 93.98620535 51.48746776 78.05734444 46.20564651 C74.94869898 45.17876663 71.82789821 44.20969815 68.69601631 43.25642776 C66.83586474 42.67557554 64.97644079 42.09238595 63.11789131 41.50642776 C62.29941719 41.25425491 61.48094307 41.00208206 60.6376667 40.74226761 C52.52354679 38.05981613 45.4662706 33.57854029 39.80539131 27.13142776 C39.27043037 25.93259964 38.73546944 24.73377151 38.18429756 23.49861526 C36.92467399 21.50932561 36.92467399 21.50932561 34.80539131 20.13142776 C29.35404424 19.22234858 23.99727866 19.47365728 18.49289131 19.69392776 C16.97408242 19.72906064 15.45519599 19.76099624 13.93625069 19.78963089 C10.22434739 19.86656407 6.51536021 19.98723746 2.80539131 20.13142776 Z M62.80539131 20.13142776 C66.34042834 22.48811912 69.96068128 23.63697163 73.96945381 24.91658401 C74.78600945 25.17782562 75.60256508 25.43906723 76.44386482 25.70822525 C79.10244811 26.54886878 81.76518842 27.37452101 84.43039131 28.19392776 C85.7847982 28.61119125 85.7847982 28.61119125 87.16656685 29.03688431 C100.18848529 32.99460709 111.97662623 35.49824965 125.66867256 35.13924026 C138.20219653 34.82889775 149.54210022 38.76045435 158.74289131 47.38142776 C168.4898967 57.88771075 170.16518669 69.63053272 170.18039131 83.44392776 C170.2048835 84.60343948 170.22937569 85.7629512 170.25461006 86.95759964 C170.29621446 99.293304 166.02351771 108.40508938 159.89718819 118.83455276 C156.41120864 125.07077748 154.95633266 130.79179708 156.74289131 137.81892776 C163.18455541 152.43768144 170.05268217 160.15142625 183.88693428 167.74592972 C194.86058389 173.83913246 202.41753237 181.63165583 206.26242256 193.79549026 C207.93037142 200.97127023 208.01260971 208.07068355 208.12179756 215.40877151 C208.14257866 216.57525726 208.16335976 217.74174301 208.18477058 218.94357681 C208.24990042 222.65197 208.30898048 226.36043109 208.36789131 230.06892776 C208.41111133 232.59041902 208.45472671 235.11190354 208.49875069 237.63338089 C208.60554416 243.79932576 208.70737702 249.96533743 208.80539131 256.13142776 C220.47670323 258.45678346 232.07829244 260.707824 243.93039131 261.88142776 C245.14629951 262.00284134 246.36220772 262.12425491 247.61496162 262.24934769 C300.82354117 267.13746454 355.0083798 256.96654226 402.80539131 233.13142776 C401.88086156 232.02013581 400.95151747 230.91284826 400.02023506 229.80720901 C399.50324043 229.19015091 398.9862458 228.5730928 398.45358467 227.93733597 C396.86328499 226.19486126 395.22562643 224.76667996 393.36789131 223.31892776 C384.50278509 215.90198459 378.71665309 204.44721267 376.80539131 193.13142776 C376.70749656 191.27631381 376.65148044 189.41868164 376.62961006 187.56111526 C376.60576241 186.49892776 376.58191475 185.43674026 376.55734444 184.34236526 C376.51483217 182.1420332 376.48333715 179.94145692 376.46359444 177.74080276 C376.21267679 168.05421464 374.37754063 158.86081227 367.50851631 151.62752151 C360.76364553 145.70255475 353.76559728 143.12840801 344.8786335 142.50081253 C328.51860683 141.34443493 316.94648491 136.22656307 303.87619209 126.64168167 C301.12472215 124.63500953 298.3338998 122.68709602 295.54294014 120.73591995 C286.52273371 114.41875238 277.58034813 107.98998813 268.68918037 101.49275589 C267.12757437 100.36425471 265.54340445 99.2670532 263.95382881 98.17830276 C253.09235757 90.48942621 249.67276131 80.70038027 245.80539131 68.13142776 C245.47539131 52.29142776 245.14539131 36.45142776 244.80539131 20.13142776 C184.74539131 20.13142776 124.68539131 20.13142776 62.80539131 20.13142776 Z M263.80539131 20.13142776 C260.40069442 52.17120365 260.40069442 52.17120365 272.09591866 80.54011917 C275.21910085 83.44741731 278.61635221 85.89057582 282.11789131 88.31892776 C282.9040583 88.8749971 283.6902253 89.43106644 284.50021553 90.00398636 C286.13092097 91.15601242 287.76440325 92.30411764 289.40060616 93.4483223 C291.67434527 95.03970884 293.93879752 96.64328 296.19992256 98.25252151 C299.69274724 100.73617436 303.19755063 103.20209999 306.70871162 105.65974808 C308.84778449 107.16118394 310.97889617 108.67350718 313.11007881 110.18611526 C314.50816329 111.16838875 315.90658824 112.15017785 317.30539131 113.13142776 C318.238592 113.79875931 318.238592 113.79875931 319.19064522 114.4795723 C327.32615247 120.14517854 334.78534501 122.62936305 344.61789131 123.63142776 C357.51829866 125.19732357 367.56173427 127.77945652 377.80539131 136.13142776 C378.76058662 136.88166214 378.76058662 136.88166214 379.73507881 137.64705276 C387.93236771 144.860667 393.29015521 157.15667943 393.98727608 167.94661331 C394.11407075 172.21671988 394.17547834 176.48452977 394.19601631 180.75642776 C394.48488054 193.94789417 399.3983212 202.76200433 408.53195381 212.01033401 C409.82512356 213.24484183 411.12465155 214.47272295 412.43039131 215.69392776 C413.41265694 216.65395706 413.41265694 216.65395706 414.41476631 217.63338089 C415.05156319 218.23215042 415.68836006 218.83091995 416.34445381 219.44783401 C416.91373604 219.9886763 417.48301826 220.52951859 418.06955147 221.08675003 C419.76909224 222.35270323 419.76909224 222.35270323 421.88205147 221.87459183 C448.1444196 211.72701013 475.22342821 182.86064072 491.80539131 161.13142776 C492.95974678 159.70250198 492.95974678 159.70250198 494.13742256 158.24470901 C520.2000735 125.53300382 536.70812852 86.53062278 543.24289131 45.31892776 C543.40700508 44.288564 543.57111885 43.25820023 543.74020576 42.19661331 C544.83061405 34.64307994 544.80539131 27.92822371 544.80539131 20.13142776 C452.07539131 20.13142776 359.34539131 20.13142776 263.80539131 20.13142776 Z " fill="#000000" transform="translate(76.19460868835449,308.8685722351074)"/>
<path d="M0 0 C3.03007009 1.42159516 5.70171526 3.2692495 8.4375 5.1875 C9.87330837 6.16073119 11.30950489 7.13339 12.74609375 8.10546875 C13.80111084 8.82694092 13.80111084 8.82694092 14.87744141 9.56298828 C28.49891239 18.78497795 41.2347929 21.39202512 57.66015625 18.7421875 C61.60414427 17.86574572 65.15089037 16.58581291 68.81640625 14.90234375 C77.29106313 11.40029413 86.1410841 12.38765875 94.45703125 15.7421875 C102.40593265 19.67390217 106.82393999 26.02614854 110.3125 34 C111.18056831 37.78793443 111.13384368 41.1185333 111 45 C111.556875 45.226875 112.11375 45.45375 112.6875 45.6875 C119.35782768 49.47336166 123.27315424 56.07759946 125.7578125 63.16015625 C129.34733673 77.08852138 126.14392179 89.4125909 119.51953125 101.78979492 C113.5571419 112.97547101 110.90741151 121.70836165 111.04296875 134.31640625 C111.19292634 148.83288919 103.79153901 161.5168887 94.1875 171.8671875 C92.35601092 173.65288935 90.5957623 175.05916342 88.5 176.5 C84.815022 180.184978 85.01957289 183.95998154 85 189 C85.69738281 189.2475 86.39476562 189.495 87.11328125 189.75 C90.41945177 191.18163 93.20338521 192.98340566 96.1875 195 C97.23292969 195.70125 98.27835937 196.4025 99.35546875 197.125 C102 199 102 199 104 201 C105.89208268 201.53110899 105.89208268 201.53110899 108.078125 201.82421875 C126.87704797 204.95522889 141.24473737 211.59199052 153.2265625 226.83203125 C161.9992442 239.87906212 164.36666231 253.84005449 164.31567383 269.29711914 C164.31247738 271.32686386 164.33618734 273.35519621 164.36132812 275.38476562 C164.36197266 276.67705078 164.36261719 277.96933594 164.36328125 279.30078125 C164.36626221 280.46778564 164.36924316 281.63479004 164.37231445 282.8371582 C163.96185329 286.32405945 163.06491631 288.19152365 161 291 C157.78477863 293.32826375 154.89169575 293.39711181 151 293 C147.21164769 291.27802168 145.47410627 289.86634669 144 286 C143.74462891 282.98242188 143.74462891 282.98242188 143.7265625 279.46875 C143.695625 277.53902344 143.695625 277.53902344 143.6640625 275.5703125 C143.63438655 272.88786452 143.61991597 270.20611482 143.609375 267.5234375 C143.36846361 254.0591674 140.51974331 243.89248921 131.1875 234.09765625 C122.95683319 226.24865343 112.86243318 224.24739997 102 222 C101.94392578 223.00353516 101.94392578 223.00353516 101.88671875 224.02734375 C101.4523888 230.37196755 100.72620405 236.65569147 99.75 242.9375 C99.65291748 243.6586499 99.55583496 244.3797998 99.45581055 245.12280273 C98.61100261 250.22439485 97.03428159 252.79809278 93 256 C87.58815222 257.66518393 84.15792631 256.50940039 79.0703125 254.6640625 C76.1827423 253.73786074 74.73930072 253.63034964 72 255 C69.34038911 257.63392587 67.15750969 260.32271385 66.79980469 264.13183594 C66.992567 266.43784433 67.32763288 268.66247709 67.75 270.9375 C68.74798418 276.94068033 69.2389406 281.98692181 68 288 C65.59181891 291.25877033 62.97691502 292.84050367 58.9375 293.5 C55.5941369 292.93091692 53.64780382 292.11824306 51 290 C50.1875 287.8125 50.1875 287.8125 50 286 C49.34 286 48.68 286 48 286 C47.62875 287.175625 47.62875 287.175625 47.25 288.375 C46 291 46 291 44.25 292.3125 C41.21411551 293.24013137 39.16833104 293.44356634 36 293 C33.27282546 291.35340405 31.81957867 290.46213615 30 288 C28.7515712 281.96592748 29.30796336 277.01317929 30.3125 271 C31.2221029 264.91820816 31.2221029 264.91820816 29.80078125 259.0546875 C28.3172997 257.12512408 26.89011261 255.52704013 25 254 C21.47845259 254.42258569 18.33063967 254.87601012 15 256.125 C11.18272296 257.23837247 8.83173443 257.04501848 5 256 C-0.09704042 252.34376432 -0.88983718 248.55620701 -1.86132812 242.67773438 C-2.01021484 241.64970703 -2.15910156 240.62167969 -2.3125 239.5625 C-2.48072266 238.53833984 -2.64894531 237.51417969 -2.82226562 236.45898438 C-3.59168627 231.60692355 -4.2282316 226.928112 -4 222 C-4.72445313 222.17917969 -5.44890625 222.35835937 -6.1953125 222.54296875 C-14.11345646 224.28496042 -14.11345646 224.28496042 -18.5 222.875 C-22.65957447 219.75531915 -22.65957447 219.75531915 -24 217 C-24.58980176 212.3553111 -24.71862793 210.19771322 -22.3125 206.1875 C-18.87653872 203.91846897 -16.73516121 203.40338821 -12.75 202.625 C-6.91296524 201.46680596 -3.52283 199.65441038 0.9296875 195.78515625 C8.79868709 189 8.79868709 189 13 189 C13 185.7 13 182.4 13 179 C11.68 178.34 10.36 177.68 9 177 C-1.25131121 168.56184588 -8.87529897 156.98945964 -12 144 C-12.19207031 143.28199219 -12.38414062 142.56398437 -12.58203125 141.82421875 C-12.94757991 139.35420306 -12.97542173 137.34147928 -12.859375 134.8671875 C-12.3533805 118.89430358 -18.2300436 107.30133639 -25.70898438 93.59936523 C-29.63663659 85.69132569 -29.17973954 74.39309504 -27.31640625 65.875 C-25.00997614 59.75004038 -21.24310168 53.41127213 -15.93164062 49.4621582 C-13.02861239 45.76182456 -13.47105957 42.39197653 -13.53125 37.81640625 C-13.52420044 36.92388657 -13.51715088 36.03136688 -13.5098877 35.11180115 C-13.48039864 31.29923641 -13.49702951 27.48718239 -13.50927734 23.67456055 C-13.51165905 20.88819877 -13.49073368 18.10266521 -13.46875 15.31640625 C-13.48006958 14.45793594 -13.49138916 13.59946564 -13.50305176 12.71498108 C-13.46847896 8.6138854 -13.33297478 6.52802116 -11.09570312 2.98022461 C-7.46539911 -0.45004052 -4.95231566 -0.49077002 0 0 Z M6 29 C4.8362222 44.25842007 9.43544941 58.91324234 19.01953125 70.765625 C25.36387275 77.92334362 33.52155704 85.9705303 43.5625 86.625 C48.64224345 86.31579822 52.02251115 83.99328405 56 81 C57.22741445 80.10176739 58.45651269 79.20582989 59.6875 78.3125 C60.20699219 77.91675781 60.72648437 77.52101562 61.26171875 77.11328125 C68.03329625 72.77642825 76.89622352 72.20690005 84.6875 73.5625 C92.46049835 75.66445418 98.30384477 80.63746711 103 87 C105.67626675 84.55645209 106.79442896 82.70859863 107.23828125 79.01953125 C107.43527579 73.16153574 106.48665496 68.79007737 103 64 C99.60063419 60.99590929 96.73502495 59.84479958 92.375 59 C89.40903929 58.42078882 88.0315235 58.02206645 85.5 56.25 C83.5703174 53.3554761 83.06970275 51.48513726 83 48 C84.25307392 44.57053453 85.0666339 42.58668727 88.1875 40.625 C88.785625 40.41875 89.38375 40.2125 90 40 C88.63016497 36.83884224 88.0109362 36.0072908 85 34 C78.88180873 32.92399908 74.13662741 34.57042407 68.58203125 36.9765625 C52.7848152 43.2380914 32.81855604 40.81868609 17.375 34.5 C15.57370086 33.68769753 13.78048557 32.85696268 12 32 C11.31679688 31.67386719 10.63359375 31.34773438 9.9296875 31.01171875 C8.60860336 30.36346584 7.30142712 29.68686431 6 29 Z M-6 69 C-8.9310174 73.57238714 -9.21922234 76.65217071 -8.6171875 81.8515625 C-7.99344504 84.50289529 -7.99344504 84.50289529 -5 88 C-3.02 85.03 -1.04 82.06 1 79 C0.02526874 77.33073546 -0.95489789 75.66464358 -1.9375 74 C-2.75541016 72.6078125 -2.75541016 72.6078125 -3.58984375 71.1875 C-4.05519531 70.465625 -4.52054687 69.74375 -5 69 C-5.33 69 -5.66 69 -6 69 Z M66.0078125 98.49609375 C57.96291633 104.23631326 48.94447456 107.2343666 39 106 C31.68005269 104.65477789 25.89862758 101.39846586 19.6640625 97.42578125 C16.91581901 95.68542492 16.91581901 95.68542492 13 96 C12.01330241 97.89192475 11.0359398 99.78871978 10.0625 101.6875 C9.51722656 102.74324219 8.97195313 103.79898438 8.41015625 104.88671875 C3.28681242 116.19781302 5.20147769 132.56207038 9 144 C10.71118345 147.57575029 12.69816841 150.77866999 15 154 C15.5775 154.886875 16.155 155.77375 16.75 156.6875 C24.9335111 165.09833085 35.66195732 170.30352107 47.41015625 171.02734375 C59.78986979 170.89663788 70.29091169 166.83353732 79.375 158.375 C89.72193608 147.27949137 92.54841417 134.49714755 92.3203125 119.703125 C91.54834558 110.77843426 89.42417777 102.26796943 84 95 C77.24791907 90.04847398 71.73908079 94.19202364 66.0078125 98.49609375 Z M33 189 C33.64102747 192.57816465 35.13373911 194.99038931 37.16015625 197.984375 C37.78857422 198.91894531 38.41699219 199.85351562 39.06445312 200.81640625 C39.72380859 201.78449219 40.38316406 202.75257813 41.0625 203.75 C41.72572266 204.73355469 42.38894531 205.71710938 43.07226562 206.73046875 C44.70971057 209.15718572 46.35243436 211.58014787 48 214 C51.68662176 212.77112608 52.23000751 211.59940442 54.35546875 208.4140625 C54.97744141 207.48335937 55.59941406 206.55265625 56.24023438 205.59375 C56.88283203 204.6140625 57.52542969 203.634375 58.1875 202.625 C58.84169922 201.65304688 59.49589844 200.68109375 60.16992188 199.6796875 C63.79400352 194.74543679 63.79400352 194.74543679 65 189 C63.56333984 189.24363281 63.56333984 189.24363281 62.09765625 189.4921875 C57.54173549 190.14090477 53.03197199 190.14665501 48.4375 190.125 C47.61314453 190.12886719 46.78878906 190.13273438 45.93945312 190.13671875 C41.51299343 190.12964208 37.35713193 189.88978707 33 189 Z M16.36328125 209.328125 C13.77867887 211.69382493 13.77867887 211.69382493 13.87255859 214.29882812 C14.1862759 217.15080362 14.64901212 219.93185088 15.1875 222.75 C15.35314453 223.73355469 15.51878906 224.71710938 15.68945312 225.73046875 C16.10206204 228.15896692 16.53955263 230.58019537 17 233 C25.56533704 230.71845678 25.56533704 230.71845678 34 228 C33.34 227.67 32.68 227.34 32 227 C31.73316406 226.30519531 31.46632813 225.61039063 31.19140625 224.89453125 C29.62099172 221.07919628 27.3564692 218.00973351 24.9375 214.6875 C24.47794922 214.04232422 24.01839844 213.39714844 23.54492188 212.73242188 C22.39260983 211.13339855 21.19977402 209.56372663 20 208 C18.65679646 207.92502369 18.65679646 207.92502369 16.36328125 209.328125 Z M78 208 C70.24220852 216.78895832 70.24220852 216.78895832 66 227 C65.34 227.33 64.68 227.66 64 228 C66.45714547 228.83698386 68.91558857 229.66972424 71.375 230.5 C72.42300781 230.85771484 72.42300781 230.85771484 73.4921875 231.22265625 C77.16403079 232.53735912 77.16403079 232.53735912 81 233 C81.99 226.07 82.98 219.14 84 212 C82.02 210.68 80.04 209.36 78 208 Z M45 245 C45.66 246.32 46.32 247.64 47 249 C48.65 248.67 50.3 248.34 52 248 C52.33 247.01 52.66 246.02 53 245 C49.71303767 244.20046862 48.28976808 243.90341064 45 245 Z " fill="#000000" transform="translate(301,9)"/>
<path d="M0 0 C1.57363281 1.17270725 3.13719806 2.35911877 4.6875 3.5625 C5.30109375 4.01109375 5.9146875 4.4596875 6.546875 4.921875 C19.23548035 14.81665899 28.24499153 31.86890224 30.6875 47.5625 C32.13717383 59.45226182 31.8453848 70.76371612 28.26098633 82.27270508 C22.92366296 99.97486852 22.84330371 117.06548612 22.92852783 135.36560059 C22.95235076 141.6966647 22.92438097 148.02769373 22.89580536 154.35869789 C22.89079279 156.53269676 22.90038942 158.70621191 22.91265869 160.88017273 C22.93069847 170.63113536 22.19137519 180.1066507 19.6875 189.5625 C21.0178125 189.93375 21.0178125 189.93375 22.375 190.3125 C23.01179687 190.498125 23.64859375 190.68375 24.3046875 190.875 C26.09673115 191.39204866 27.89470772 191.88860286 29.6953125 192.375 C45.19063749 196.77083688 57.88635363 205.89933927 66.6875 219.5625 C73.32435097 231.55223349 75.23071817 243.76737999 75.18847656 257.29223633 C75.18749016 259.52225589 75.22956336 261.74897785 75.2734375 263.97851562 C75.2786365 265.41145127 75.28133283 266.84439868 75.28125 268.27734375 C75.28833984 269.55730225 75.29542969 270.83726074 75.30273438 272.15600586 C74.53229121 276.42187628 73.00026822 277.8650941 69.6875 280.5625 C66.78454195 282.01397903 64.91488221 281.93489025 61.6875 281.5625 C58.82446922 279.90947992 56.21301447 277.98242408 55.03051758 274.78735352 C54.58740854 271.91329467 54.54069601 269.12320212 54.51171875 266.21484375 C54.48787109 264.96896484 54.46402344 263.72308594 54.43945312 262.43945312 C54.39693436 259.84065472 54.36544291 257.24164937 54.34570312 254.64257812 C54.08952007 243.04284749 51.55239493 232.45033436 43.6875 223.5625 C33.84654112 215.20175146 20.78728707 209.92056436 7.6875 210.5625 C4.71742234 212.08505096 3.45921456 213.57251957 1.48046875 216.23046875 C-5.72847439 225.60680655 -20.06150493 230.04772063 -31.25 231.9375 C-48.58401042 233.9125034 -64.33452806 230.06269902 -78.3125 219.5625 C-85.81048116 213.56653769 -85.81048116 213.56653769 -87.3125 210.5625 C-88.47007812 210.74167969 -89.62765625 210.92085937 -90.8203125 211.10546875 C-92.35923772 211.32129363 -93.89830845 211.53608275 -95.4375 211.75 C-96.19804687 211.87052734 -96.95859375 211.99105469 -97.7421875 212.11523438 C-102.84054464 212.79648037 -105.85827786 212.50934818 -110.3125 209.5625 C-112.54521843 206.80881394 -113.24782328 205.07991376 -113.6875 201.5625 C-113.24934833 198.05728667 -112.419419 196.38819734 -110.3125 193.5625 C-106.78649637 191.78163854 -103.07084844 190.75632833 -99.3125 189.5625 C-99.52598083 188.95981796 -99.73946167 188.35713593 -99.95941162 187.7361908 C-102.43019645 179.93032258 -102.68947108 172.47990569 -102.60092926 164.36560249 C-102.57746846 162.0002119 -102.57687882 159.63574102 -102.58221436 157.27024841 C-102.59471645 150.55126753 -102.57895863 143.83277479 -102.52197266 137.11401367 C-102.3624707 116.49503513 -103.31107101 97.99939694 -109.56829834 78.20201111 C-114.77904315 59.72070483 -111.04918206 40.42234324 -102.22265625 23.78125 C-92.24624752 6.97028724 -76.84333253 -4.48998972 -58.15234375 -9.74609375 C-57.21519531 -9.97425781 -56.27804687 -10.20242188 -55.3125 -10.4375 C-54.549375 -10.62957031 -53.78625 -10.82164063 -53 -11.01953125 C-34.8038767 -13.84945159 -15.27097221 -10.43401268 0 0 Z M-77.1796875 24.2734375 C-80.18986433 27.5041401 -82.85491266 30.89609937 -85.3125 34.5625 C-84.9825 35.2225 -84.6525 35.8825 -84.3125 36.5625 C-83.52875 35.551875 -82.745 34.54125 -81.9375 33.5 C-68.1689237 17.62301063 -47.08809817 13.31360613 -27.3125 10.5625 C-27.3125 10.2325 -27.3125 9.9025 -27.3125 9.5625 C-46.73192248 7.73884865 -62.51171772 10.18637741 -77.1796875 24.2734375 Z M-65.3125 45.5625 C-64.075 45.27375 -62.8375 44.985 -61.5625 44.6875 C-59.81305848 44.30990315 -58.06301071 43.93510871 -56.3125 43.5625 C-55.43078125 43.36011719 -54.5490625 43.15773438 -53.640625 42.94921875 C-37.12961215 39.59684459 -21.58764735 42.47448258 -6.984375 50.7890625 C-2.31120564 53.8908445 1.68784599 57.64916946 5.6875 61.5625 C6.54601562 62.3978125 6.54601562 62.3978125 7.421875 63.25 C8.52443365 64.34017035 9.60923635 65.44829423 10.6875 66.5625 C12.33965291 64.91034709 11.89845636 63.02429221 11.9375 60.75 C11.87103543 54.34447711 10.56005531 48.66073322 8.6875 42.5625 C8.37425781 41.2321875 8.37425781 41.2321875 8.0546875 39.875 C7.24148405 37.20426866 6.52791476 35.66614649 4.6875 33.5625 C-16.83125546 26.95000767 -49.08779094 28.56867381 -65.3125 45.5625 Z M-73.125 76.3125 C-78.06117663 82.33393532 -81.69617042 89.74581563 -82.51318359 97.55078125 C-82.12287241 101.46338974 -79.4116521 103.7015921 -76.6875 106.3125 C-76.15253906 106.86292969 -75.61757813 107.41335937 -75.06640625 107.98046875 C-71.99866685 111.09299267 -68.78622366 113.902325 -65.3125 116.5625 C-64.63445312 116.22476563 -63.95640625 115.88703125 -63.2578125 115.5390625 C-49.66533967 109.02521818 -37.707391 107.83476619 -23.3125 112.5625 C-20.28508375 113.83759404 -17.29359641 115.18291483 -14.3125 116.5625 C-3.12026786 107.90416522 -3.12026786 107.90416522 3.359375 96.11328125 C2.55751251 92.85038334 1.42104609 90.43653694 -0.3125 87.5625 C-0.74820313 86.67949219 -1.18390625 85.79648438 -1.6328125 84.88671875 C-7.69452843 73.47337361 -16.58839088 67.3950181 -28.3125 62.5625 C-45.17104291 58.0599078 -61.38481587 63.96506497 -73.125 76.3125 Z M-82.3125 128.5625 C-82.41462012 135.33930466 -82.48426532 142.11590805 -82.53222656 148.89331055 C-82.55223827 151.19481827 -82.57945631 153.49627582 -82.61425781 155.79760742 C-82.66323699 159.12170862 -82.68557401 162.44513276 -82.703125 165.76953125 C-82.72377014 166.7845723 -82.74441528 167.79961334 -82.76568604 168.84541321 C-82.76956585 181.43275238 -77.83938754 191.33076499 -69.50390625 200.56640625 C-60.86557251 208.88147594 -49.58774311 211.957957 -37.89453125 211.83984375 C-25.92710877 210.91324943 -16.22791181 205.93408007 -8.0625 197.3125 C0.44502019 187.22888543 3.0209361 176.62987005 2.8828125 163.71875 C2.87856766 162.20420227 2.87856766 162.20420227 2.87423706 160.65905762 C2.8631153 157.46008033 2.83802563 154.2613915 2.8125 151.0625 C2.80245985 148.88281657 2.79333582 146.70312871 2.78515625 144.5234375 C2.76320225 139.20302795 2.72980518 133.88278459 2.6875 128.5625 C1.55919513 129.51194793 0.43336768 130.46434049 -0.69140625 131.41796875 C-1.31861572 131.94801514 -1.9458252 132.47806152 -2.59204102 133.02416992 C-4.44029778 134.6028058 -4.44029778 134.6028058 -6.25 136.875 C-9.33121453 139.3959937 -12.38450042 139.75968873 -16.3125 139.5625 C-18.875 138.4375 -18.875 138.4375 -21.3125 136.5625 C-29.05333884 130.71101282 -35.46494484 128.48020425 -45.3125 129.5625 C-50.3378789 130.89635236 -54.63699059 132.73445705 -58.5 136.25 C-61.90989191 139.05368891 -63.92453434 139.5625 -68.3125 139.5625 C-73.00135314 137.75909495 -76.22165658 133.77381222 -79.640625 130.20703125 C-81.04046326 128.44562452 -81.04046326 128.44562452 -82.3125 128.5625 Z " fill="#000000" transform="translate(566.3125,20.4375)"/>
<path d="M0 0 C4.25565225 3.47400184 8.34716692 7.05543057 12.296875 10.875 C12.98652344 11.53886719 13.67617187 12.20273437 14.38671875 12.88671875 C30.35241677 29.48472164 36.65512794 52.12572685 36.52392578 74.6081543 C36.52336023 75.94966117 36.52368104 77.29116866 36.52481079 78.63267517 C36.52537968 82.23940239 36.51370144 85.84599393 36.49966288 89.45268989 C36.48707729 93.23495767 36.48597889 97.01722928 36.48361206 100.79951477 C36.47742013 107.94612032 36.46104059 115.09266396 36.44091308 122.23924237 C36.4184825 130.3820182 36.40754273 138.52479714 36.39752221 146.66759622 C36.37667208 163.40343359 36.34154105 180.13920887 36.296875 196.875 C36.91328857 197.172854 37.52970215 197.47070801 38.16479492 197.77758789 C50.25738589 204.00181741 57.22870934 217.46391648 61.296875 229.875 C63.60434162 238.39580121 63.48857615 247.10697843 63.546875 255.875 C63.5610144 257.52375122 63.5610144 257.52375122 63.57543945 259.20581055 C63.57116943 260.25164307 63.56689941 261.29747559 63.5625 262.375 C63.56024414 263.3134375 63.55798828 264.251875 63.55566406 265.21875 C63.14515636 269.43226299 62.0150621 272.11577364 59.109375 275.1875 C55.49563162 277.35574603 53.45047883 277.46837198 49.296875 276.875 C46.54358479 275.07937595 44.77060039 273.82245078 43.296875 270.875 C43.17785786 268.82646821 43.11770225 266.77439663 43.0859375 264.72265625 C43.05757812 263.47033203 43.02921875 262.21800781 43 260.92773438 C42.94860753 258.30286415 42.90414234 255.67784756 42.8671875 253.05273438 C42.63923272 243.73983178 41.71125356 235.20250384 37.296875 226.875 C37.26561523 227.47650879 37.23435547 228.07801758 37.20214844 228.69775391 C36.19617033 237.29504866 31.67734421 241.51028308 25.546875 247.25 C24.65226563 248.12527344 23.75765625 249.00054687 22.8359375 249.90234375 C13.99334001 258.44497111 7.19432982 263.36785216 -5.484375 263.2109375 C-9.88920783 262.7512098 -13.68827871 261.29056896 -17.828125 259.78125 C-29.12208828 256.22119636 -38.4740649 261.64920325 -48.33862305 266.78442383 C-57.75773577 271.61403891 -64.97876957 274.72979749 -75.703125 272.875 C-76.60160156 272.73449219 -77.50007813 272.59398437 -78.42578125 272.44921875 C-87.62304524 270.35957763 -94.19293895 264.0662195 -99.765625 256.75 C-106.47862748 247.99624477 -115.99012083 243.02675827 -126.89453125 241.3984375 C-128.47041016 241.20121094 -128.47041016 241.20121094 -130.078125 241 C-133.87406585 240.43873248 -136.28205006 240.02675772 -138.890625 237.125 C-140.6929521 233.89324106 -141.4409645 231.545247 -141.703125 227.875 C-145.62982777 236.54431459 -146.28975683 244.31142905 -146.328125 253.75 C-146.35367382 256.3099922 -146.38720174 258.86992037 -146.4296875 261.4296875 C-146.43564941 262.54843262 -146.44161133 263.66717773 -146.44775391 264.81982422 C-146.8183182 269.25313357 -147.8338476 271.95604961 -150.890625 275.1875 C-154.50436838 277.35574603 -156.54952117 277.46837198 -160.703125 276.875 C-163.45641521 275.07937595 -165.22939961 273.82245078 -166.703125 270.875 C-166.94131661 266.36632151 -166.93167833 261.85334824 -166.94335938 257.33911133 C-166.95292495 255.10913739 -166.98387417 252.88014248 -167.015625 250.65039062 C-167.15466191 232.24881643 -162.78805169 217.78435263 -150.01171875 204.09375 C-147.703125 201.875 -147.703125 201.875 -144.60317993 200.02848816 C-142.39705818 198.17602009 -141.76576095 197.16684126 -141.15414047 194.31710243 C-140.95018319 190.93165605 -140.94204661 187.59179956 -140.99365234 184.20043945 C-140.98944778 182.91189056 -140.98524323 181.62334167 -140.98091125 180.29574585 C-140.97189914 177.49518717 -140.98160879 174.69554163 -141.00580978 171.89507484 C-141.04378729 167.44948095 -141.03802192 163.004585 -141.02627563 158.55888367 C-141.00942804 149.90323393 -141.03746573 141.24800476 -141.06969452 132.59242249 C-141.10814735 121.62316963 -141.1241085 110.65399556 -141.10448992 99.68469018 C-141.0990801 95.99853457 -141.10268348 92.31284755 -141.12784958 88.6267643 C-141.33518909 58.1279702 -137.16007129 31.77802656 -115.203125 8.875 C-84.19172483 -19.94864708 -34.80248284 -26.16025556 0 0 Z M-103.87109375 27.10546875 C-108.01203233 31.88717152 -111.11470348 37.09759338 -114.015625 42.6875 C-114.34135498 43.30246338 -114.66708496 43.91742676 -115.00268555 44.55102539 C-120.50428514 55.72163345 -121.13878837 67.54057299 -121.04370117 79.76293945 C-121.04285277 81.31163517 -121.0433342 82.86033208 -121.04502869 84.4090271 C-121.04588175 88.5714562 -121.02836908 92.73362057 -121.00730681 96.8959887 C-120.98842375 101.26147092 -120.98678048 105.62696066 -120.98323059 109.99247742 C-120.97394403 118.24048115 -120.94937664 126.48836414 -120.91918212 134.73631495 C-120.88553197 144.13424399 -120.86912553 153.5321791 -120.85409582 162.93015349 C-120.82282367 182.24517051 -120.77012984 201.56007551 -120.703125 220.875 C-120.16487091 221.0621759 -119.62661682 221.24935181 -119.072052 221.44219971 C-116.59378671 222.31059169 -114.12121235 223.19422594 -111.6484375 224.078125 C-110.80192627 224.37219238 -109.95541504 224.66625977 -109.08325195 224.96923828 C-97.35385308 229.19431388 -89.06694165 236.5739394 -81.60546875 246.52734375 C-78.54107003 250.30907605 -76.76123236 251.62803511 -71.9375 252.75390625 C-67.31339478 253.17418223 -64.04793234 251.82229934 -59.953125 249.8125 C-59.26138184 249.49321533 -58.56963867 249.17393066 -57.85693359 248.8449707 C-53.61783086 246.86930022 -49.47400358 244.72649864 -45.328125 242.5625 C-33.33775783 236.46983376 -22.30801079 237.08484124 -9.703125 240.875 C-8.88199219 241.25914062 -8.06085938 241.64328125 -7.21484375 242.0390625 C-3.82163521 243.16837296 -2.17833981 242.82603401 1.296875 241.875 C8.16899436 238.2891502 13.7596438 232.76040443 17.296875 225.875 C19.99886174 215.36895882 19.26422515 204.17321014 18.98504114 193.4147296 C18.89139177 189.15757203 18.8888615 184.90027158 18.87545776 180.64224243 C18.84067292 173.49812188 18.74837586 166.35677834 18.61376953 159.21386719 C18.42475575 149.18123225 18.33780281 139.14965797 18.27250504 129.11555743 C18.17938878 115.62943429 18.05606047 102.14240828 17.81578445 88.65803719 C17.79106425 87.21265078 17.76919759 85.76721185 17.75061798 84.32173347 C17.41705573 59.20066043 12.14849499 39.80584315 -5.703125 21.875 C-6.26515625 21.27816406 -6.8271875 20.68132813 -7.40625 20.06640625 C-19.87882195 7.95488244 -37.98686257 4.37202421 -54.63378906 4.52734375 C-73.82061891 5.0255327 -90.53207978 13.38190663 -103.87109375 27.10546875 Z " fill="#000000" transform="translate(225.703125,25.125)"/>
<path d="M0 0 C12.97933319 11.27479696 21.67963754 26.63120286 22.96801758 43.95986938 C23.20957014 49.38736866 23.22043776 54.81173386 23.18408203 60.24365234 C23.16799717 63.10042057 23.18400499 65.95577451 23.203125 68.8125 C23.2284042 89.22556605 19.27025395 106.20542384 4.48046875 121.05078125 C-8.45882733 133.35063537 -23.95758764 139.13961117 -41.75292969 139.02954102 C-58.78642018 138.46009632 -73.93001611 131.347084 -85.625 119.06640625 C-99.59681857 102.82445971 -102.39465637 85.25252551 -102.39233398 64.54150391 C-102.3945128 62.3738212 -102.41270432 60.20665517 -102.43164062 58.0390625 C-102.51585601 37.67897752 -98.68708392 21.23352669 -84.70703125 5.85546875 C-83.88203125 5.11296875 -83.05703125 4.37046875 -82.20703125 3.60546875 C-81.65917969 3.06535156 -81.11132812 2.52523437 -80.546875 1.96875 C-58.71943872 -18.69336114 -23.14278579 -18.0631961 0 0 Z M-65.20703125 15.60546875 C-62.03408252 17.19194311 -58.80261166 16.14181555 -55.39453125 15.66796875 C-41.08862588 13.86682789 -27.47743664 15.01196386 -13.20703125 16.60546875 C-16.24941198 14.05051169 -19.05658838 11.99254358 -22.70703125 10.41796875 C-23.43921875 10.09441406 -24.17140625 9.77085938 -24.92578125 9.4375 C-37.85385896 4.72229357 -54.42437287 6.97934204 -65.20703125 15.60546875 Z M-81.20703125 42.60546875 C-82.73961399 45.67063423 -82.39081958 48.88927934 -82.41015625 52.25390625 C-82.41585632 53.02167389 -82.4215564 53.78944153 -82.4274292 54.58047485 C-82.43689035 56.21297832 -82.4434176 57.84550099 -82.44726562 59.47802734 C-82.45685862 61.93623171 -82.48782146 64.39355857 -82.51953125 66.8515625 C-82.6232147 81.93300115 -80.69589379 94.37639 -70.1015625 105.89453125 C-61.57987031 113.94866156 -51.61200903 118.41217834 -39.89453125 118.91796875 C-27.8049078 118.5599137 -17.59723715 114.01023941 -8.89453125 105.73046875 C-0.29619249 96.59473382 3.30757599 87.02455312 3.0859375 74.5390625 C3.08169266 73.61956314 3.07744781 72.70006378 3.07307434 71.75270081 C3.05643651 68.84914416 3.01881342 65.94631149 2.98046875 63.04296875 C2.96540261 61.06055698 2.95171761 59.07813421 2.93945312 57.09570312 C2.90658201 52.26535097 2.85490486 47.43553211 2.79296875 42.60546875 C0.45051973 41.80589008 -1.89337269 41.01105746 -4.23828125 40.21875 C-4.89086914 39.99546021 -5.54345703 39.77217041 -6.21582031 39.54211426 C-29.50205559 31.70097763 -58.82644821 31.27232244 -81.20703125 42.60546875 Z " fill="#000000" transform="translate(213.20703125,61.39453125)"/>
<path d="M0 0 C3.07852088 3.12292262 3.95577802 6.27473564 5 10.41015625 C7.38012017 19.58581386 11.24567572 23.87342442 19.39453125 28.8359375 C25.48972052 32.11435124 31.76630199 34.05897599 38.578125 35.203125 C39.29009033 35.32333008 40.00205566 35.44353516 40.7355957 35.56738281 C42.12666015 35.79025791 43.52122325 35.99260356 44.91870117 36.17089844 C49.90512891 36.93161394 52.3123916 38.55312777 55.4375 42.47265625 C56.55549235 46.38562949 56.87237854 48.4655691 55.25 52.22265625 C53.02570702 54.98384753 51.00630984 57.12918901 47.45703125 57.90625 C30.44666154 57.93635685 13.8252688 51.687028 0.4375 41.47265625 C-0.449375 40.87453125 -1.33625 40.27640625 -2.25 39.66015625 C-10.52970451 31.82800333 -15.91032396 21.2004964 -16.6640625 9.8046875 C-16.49866441 6.00689299 -15.53318111 3.73447325 -13.5625 0.47265625 C-9.62700759 -2.76006966 -4.24278328 -2.52885406 0 0 Z " fill="#000000" transform="translate(127.5625,207.52734375)"/>
<path d="M0 0 C2.75329021 1.79562405 4.52627461 3.05254922 6 6 C6.56238214 10.74007802 6.70070594 13.73538212 3.6875 17.5625 C-8.54644798 30.16978442 -27.78917226 36.84261909 -45.08740234 37.47436523 C-56.17475485 37.59217256 -69.55406224 36.91611879 -78 29 C-79.60086627 25.79826746 -79.49917089 22.47422941 -79 19 C-77.20636089 16.1899654 -75.98119065 14.49059532 -73 13 C-68.41500135 12.72490008 -64.63320189 13.30167454 -60.21484375 14.48046875 C-45.88828758 17.84101896 -30.97612241 14.87351586 -18.359375 7.4453125 C-16.20141474 6.00905418 -14.08934305 4.53394806 -12 3 C-7.84262691 0.03044779 -5.136106 -0.64201325 0 0 Z " fill="#000000" transform="translate(230,193)"/>
<path d="M0 0 C0.71636627 -0.00807175 1.43273254 -0.01614349 2.17080688 -0.02445984 C3.68546139 -0.03827588 5.20014671 -0.04900911 6.71484375 -0.05688477 C8.26083521 -0.06841474 9.80678656 -0.08888296 11.35253906 -0.1184082 C13.58946711 -0.16113229 15.82521437 -0.17725823 18.0625 -0.1875 C18.74911713 -0.20500809 19.43573425 -0.22251617 20.14315796 -0.24055481 C24.92408931 -0.21905708 27.3075456 0.86409847 30.6640625 4.23828125 C32.25441369 7.41898362 32.45343698 10.82158576 31.6640625 14.23828125 C30.04736651 16.69669117 28.88816861 18.40615368 26.6640625 20.23828125 C23.72666284 20.84184325 21.62153074 21.06175989 18.6953125 21 C17.93738403 21.00336868 17.17945557 21.00673737 16.39855957 21.01020813 C14.80160716 21.00991011 13.2045963 20.99473865 11.60791016 20.96557617 C9.17041619 20.92588471 6.73836519 20.94487605 4.30078125 20.97070312 C2.74477067 20.96314336 1.18877211 20.9521892 -0.3671875 20.9375 C-1.45332336 20.94797615 -1.45332336 20.94797615 -2.56140137 20.95866394 C-6.50655451 20.84917636 -8.18732281 20.36073016 -11.27148438 17.81958008 C-14.28136214 14.05616503 -14.80007001 12.06525933 -14.3359375 7.23828125 C-10.58697893 0.38673627 -7.33223735 0.07842108 0 0 Z " fill="#000000" transform="translate(517.3359375,161.76171875)"/>
<path d="M0 0 C3.06162534 2.58537251 4.72814166 4.18442498 6 8 C6.2557918 11.62061659 6.23131941 15.24629503 6.25 18.875 C6.270625 19.86886719 6.29125 20.86273438 6.3125 21.88671875 C6.36111207 30.96502195 6.36111207 30.96502195 3 35 C0.62837527 37.37162473 -0.58515949 37.94704164 -3.9375 38.375 C-7.42596178 37.94784142 -9.23494374 37.15059932 -12 35 C-15.1530687 30.04409521 -14.40842263 24.29831889 -14.4375 18.625 C-14.47037109 17.5009375 -14.50324219 16.376875 -14.53710938 15.21875 C-14.5972665 5.96548979 -14.5972665 5.96548979 -11.66015625 2.2734375 C-7.60044021 -1.19609955 -5.0510332 -1.4142893 0 0 Z " fill="#000000" transform="translate(596,264)"/>
<path d="M0 0 C2.58142798 1.6603017 3.57877742 2.37512964 5 5 C5.73280332 9.50843389 5.65134009 13.94274363 5.5625 18.5 C5.57345703 19.72332031 5.58441406 20.94664062 5.59570312 22.20703125 C5.51293158 32.30515915 5.51293158 32.30515915 1 37 C-2.10048928 38.55024464 -4.57894218 38.28992015 -8 38 C-10.75329021 36.20437595 -12.52627461 34.94745078 -14 32 C-14.32542291 27.56889335 -14.32455369 23.12906855 -14.375 18.6875 C-14.41238281 17.45064453 -14.44976562 16.21378906 -14.48828125 14.93945312 C-14.58730635 4.75637152 -14.58730635 4.75637152 -11.6640625 1.70703125 C-7.39413584 -1.02897748 -4.85539021 -1.35950926 0 0 Z " fill="#000000" transform="translate(420,264)"/>
</svg>
