<svg width="483" height="440" xmlns="http://www.w3.org/2000/svg" xmlns:xlink="http://www.w3.org/1999/xlink" xml:space="preserve" overflow="hidden"><defs><clipPath id="clip0"><rect x="398" y="140" width="483" height="440"/></clipPath></defs><g clip-path="url(#clip0)" transform="translate(-398 -140)"><path d="M409.18 116.495 355.049 71.6948C352.099 69.2935 347.845 69.7052 345.375 72.5866 342.974 75.5368 343.386 79.8589 346.267 82.2603L395.116 122.67 316.352 217.83 289.869 195.944 290.007 195.738C297.21 194.023 303.66 190.044 308.325 184.418 320.332 169.805 318.273 148.193 303.728 136.118 296.662 130.286 287.743 127.473 278.618 128.365 269.493 129.189 261.26 133.58 255.359 140.646 250.762 146.272 248.087 153.339 247.675 160.748L247.538 160.886 221.124 138.999 247.333 107.234C249.734 104.352 249.322 100.03 246.441 97.5603L239.168 91.5228C237.865 90.425 236.218 89.739 234.572 89.9448 229.563 90.1506 224.692 88.504 220.987 85.3479 212.274 78.1442 210.97 65.1085 218.174 56.3951 225.446 47.6818 238.482 46.4471 247.195 53.6508 250.969 56.8068 253.507 61.3349 254.331 66.2747 254.605 67.9213 255.428 69.362 256.732 70.4598L264.004 76.4973C265.376 77.6636 267.297 78.2124 269.012 78.0753 270.796 77.8694 272.511 77.0461 273.678 75.6054L299.886 43.9083 324.928 64.6281C327.878 67.0294 332.2 66.6177 334.602 63.7362 337.003 60.8547 336.591 56.464 333.71 54.0626L303.385 28.9519C302.013 27.7856 300.161 27.2367 298.377 27.4425 296.593 27.5797 294.878 28.4716 293.712 29.9124L267.503 61.6095 267.366 61.4723C265.651 54.337 261.671 47.9566 256.046 43.2228 241.432 31.2163 219.752 33.2062 207.675 47.8196 195.669 62.433 197.727 84.1131 212.272 96.0494 217.898 100.783 224.896 103.459 232.374 103.802L232.512 103.802C232.512 103.802 206.303 135.705 206.303 135.705 203.902 138.655 204.313 142.977 207.195 145.378L244.175 175.978C247.125 178.379 251.447 177.967 253.848 175.086L259.886 167.813C260.915 166.51 261.532 164.932 261.464 163.286 261.395 159.649 262.15 154.367 266.061 149.564 269.56 145.31 274.5 142.703 279.988 142.223 285.408 141.674 290.829 143.32 295.014 146.888 303.795 154.092 305.03 167.128 297.826 175.841 293.847 180.644 288.77 182.359 285.203 182.908 283.556 183.182 282.047 184.005 281.017 185.309L274.98 192.65C272.579 195.6 272.99 199.922 275.94 202.324L312.989 232.923C314.292 233.952 315.802 234.501 317.38 234.501 319.369 234.501 321.29 233.678 322.662 232.031L410.138 126.307C412.539 123.357 412.128 119.035 409.246 116.633Z" transform="matrix(1 0 0 1.00119 419.955 133.599)"/><path d="M308.734 260.71 267.569 260.71 267.569 260.504C272.028 254.535 274.43 247.4 274.43 240.128 274.43 221.192 259.061 205.824 240.126 205.824 221.19 205.824 205.822 221.192 205.822 240.128 205.822 247.4 208.223 254.535 212.682 260.504L171.518 260.71 123.49 260.71C119.716 260.71 116.629 263.798 116.629 267.571L116.629 277.039C116.629 278.685 117.247 280.263 118.344 281.567 120.677 284.242 123.49 288.839 123.49 295.014 123.49 306.334 114.228 315.596 102.908 315.596 91.5874 315.596 82.3252 306.334 82.3252 295.014 82.3252 288.77 85.1382 284.242 87.4709 281.567 88.5687 280.332 89.1861 278.685 89.1861 277.039L89.1861 267.571C89.1861 263.798 86.0988 260.71 82.3253 260.71L41.1606 260.71 41.1606 137.216 164.655 137.216 164.655 171.52 164.449 171.52C158.48 167.06 151.345 164.659 144.073 164.659 125.137 164.659 109.769 180.027 109.769 198.963 109.769 217.899 125.137 233.267 144.073 233.267 151.345 233.267 158.48 230.866 164.449 226.406L164.655 240.128C164.655 243.901 167.742 246.989 171.516 246.989 175.289 246.989 178.376 243.901 178.376 240.128L178.376 219.545C178.376 215.772 175.289 212.685 171.516 212.685L162.048 212.685C160.401 212.685 158.755 213.302 157.52 214.4 154.844 216.733 150.248 219.546 144.073 219.546 132.753 219.546 123.491 210.283 123.491 198.963 123.491 187.643 132.753 178.381 144.073 178.381 150.316 178.381 154.844 181.194 157.52 183.526 158.755 184.624 160.402 185.242 162.048 185.242L171.516 185.242C175.289 185.242 178.376 182.154 178.376 178.381L178.376 130.353C178.376 126.58 175.289 123.492 171.516 123.492L34.2998 123.492C30.5263 123.492 27.439 126.58 27.439 130.353L27.439 267.569C27.439 271.342 30.5263 274.43 34.2998 274.43L75.4645 274.43 75.4645 274.636C71.0051 280.605 68.6037 287.74 68.6037 295.012 68.6037 313.948 83.9719 329.316 102.908 329.316 121.844 329.316 137.212 313.948 137.212 295.012 137.212 287.74 134.81 280.605 130.351 274.636L164.655 274.498 164.655 315.663C164.655 319.437 167.742 322.524 171.516 322.524L180.983 322.524C182.63 322.524 184.277 321.907 185.511 320.809 188.187 318.476 192.783 315.663 198.958 315.663 210.279 315.663 219.541 324.925 219.541 336.245 219.541 347.566 210.279 356.828 198.958 356.828 192.715 356.828 188.187 354.015 185.511 351.682 184.276 350.584 182.63 349.967 180.983 349.967L171.516 349.967C167.742 349.967 164.655 353.054 164.655 356.828L164.655 397.993 41.1606 397.993 41.1606 295.078C41.1606 291.305 38.0732 288.218 34.2998 288.218 30.5263 288.218 27.439 291.305 27.439 295.078L27.439 404.851C27.439 408.625 30.5263 411.712 34.2998 411.712L308.732 411.712C312.505 411.712 315.592 408.625 315.592 404.851L315.592 356.823C315.592 353.05 312.505 349.963 308.732 349.963 304.958 349.963 301.871 353.05 301.871 356.823L301.871 397.988 178.376 397.988 178.376 363.684 178.582 363.684C184.551 368.144 191.687 370.545 198.959 370.545 217.895 370.545 233.263 355.177 233.263 336.241 233.263 317.305 217.895 301.937 198.959 301.937 191.687 301.937 184.551 304.338 178.582 308.798L178.445 274.494 219.61 274.494C223.383 274.494 226.471 271.406 226.471 267.633L226.471 258.165C226.471 256.519 225.853 254.941 224.755 253.637 222.423 250.962 219.61 246.365 219.61 240.19 219.61 228.87 228.872 219.608 240.192 219.608 251.512 219.608 260.775 228.87 260.775 240.19 260.775 246.434 257.962 250.962 255.629 253.637 254.531 254.872 253.914 256.519 253.914 258.165L253.914 267.633C253.914 271.406 257.001 274.494 260.774 274.494L301.939 274.494 301.939 329.38C301.939 333.154 305.027 336.241 308.8 336.241 312.573 336.241 315.661 333.154 315.661 329.38L315.661 267.635C315.661 263.862 312.573 260.774 308.8 260.774Z" transform="matrix(1 0 0 1.00119 419.955 133.599)"/><text font-family="Arial,Arial_MSFontService,sans-serif" font-weight="700" font-size="5" transform="matrix(4.39091 0 0 4.39615 419.955 650)">Created by wyasa design</text><text font-family="Arial,Arial_MSFontService,sans-serif" font-weight="700" font-size="5" transform="matrix(4.39091 0 0 4.39615 419.955 672)">from Noun Project</text></g></svg>