<?xml version="1.0" encoding="UTF-8"?>
<svg version="1.1" xmlns="http://www.w3.org/2000/svg" width="540" height="471">
<path d="M0 0 C1.05246414 -0.00570007 2.10492828 -0.01140015 3.18928528 -0.01727295 C5.41743984 -0.02669637 7.64560816 -0.03324633 9.8737793 -0.03710938 C13.21364219 -0.04671427 16.55286203 -0.07772127 19.89257812 -0.109375 C30.1277612 -0.16074068 40.17954319 0.0447739 50.3203125 1.53125 C51.12446091 1.64797058 51.92860931 1.76469116 52.75712585 1.88494873 C57.30070123 2.640558 61.1377145 3.69075598 65.08203125 6.203125 C67.36211814 12.31293867 67.67207009 18.79785692 68.20703125 25.265625 C68.29339844 26.22017578 68.37976563 27.17472656 68.46875 28.15820312 C68.90661263 33.19362337 69.18016417 38.14927953 69.08203125 43.203125 C70.51675781 43.33654297 70.51675781 43.33654297 71.98046875 43.47265625 C76.85058307 44.17345371 81.18429588 46.0172413 85.70703125 47.890625 C86.58133789 48.24640625 87.45564453 48.6021875 88.35644531 48.96875 C95.36207093 51.84417412 102.25893606 54.91608644 109.08203125 58.203125 C110.62569528 56.95559244 112.16677408 55.70486138 113.70703125 54.453125 C114.70605469 53.64488281 115.70507812 52.83664063 116.734375 52.00390625 C119.10951228 50.0501985 121.39103103 48.02201617 123.6484375 45.93359375 C124.25026855 45.38735352 124.85209961 44.84111328 125.47216797 44.27832031 C126.64865431 43.20634661 127.81121677 42.11883941 128.95751953 41.01464844 C132.07616251 38.20376027 133.76003118 37.25870835 138.01953125 36.5234375 C142.97814811 36.89662833 146.16340112 39.57164957 149.89453125 42.640625 C150.52939453 43.13755859 151.16425781 43.63449219 151.81835938 44.14648438 C153.92680682 45.80774872 156.00329355 47.50485434 158.08203125 49.203125 C159.36787109 50.22623779 159.36787109 50.22623779 160.6796875 51.27001953 C167.29894403 56.57921487 173.46351107 62.19891115 179.45703125 68.203125 C180.36461182 69.1115918 181.27219238 70.02005859 182.20727539 70.95605469 C189.44978089 78.32541834 195.90884681 86.03521404 201.85595703 94.47753906 C202.9470463 96.01314619 204.08753484 97.51338194 205.234375 99.0078125 C207.7267305 102.36486276 208.98678474 104.45475954 209.51953125 108.640625 C207.68850585 113.1783836 205.00224005 115.99169085 201.640625 119.50390625 C199.00314343 122.28634864 196.56631979 125.16932204 194.14453125 128.140625 C193.04818359 129.48447266 193.04818359 129.48447266 191.9296875 130.85546875 C189.98658218 133.26104786 189.98658218 133.26104786 188.08203125 136.203125 C188.48184338 139.19259477 189.70311975 141.7587917 190.97265625 144.4765625 C191.35043213 145.29519775 191.72820801 146.11383301 192.11743164 146.95727539 C192.51824951 147.82215576 192.91906738 148.68703613 193.33203125 149.578125 C203.08203125 170.92502422 203.08203125 170.92502422 203.08203125 177.203125 C203.6661377 177.19297363 204.25024414 177.18282227 204.85205078 177.17236328 C211.59643317 177.10750072 218.24002607 177.49517248 224.95703125 178.078125 C225.97539062 178.15675781 226.99375 178.23539063 228.04296875 178.31640625 C229.02265625 178.40019531 230.00234375 178.48398438 231.01171875 178.5703125 C231.89069824 178.64362793 232.76967773 178.71694336 233.67529297 178.79248047 C236.23631074 179.22944861 237.92962603 179.74572745 240.08203125 181.203125 C252.47973154 203.81935008 249.30062555 252.48567095 242.41259766 276.54101562 C241.12549598 280.28561673 240.44840771 281.95887403 237.08203125 284.203125 C234.69702148 284.61376953 234.69702148 284.61376953 231.890625 284.8359375 C230.34858398 284.96162109 230.34858398 284.96162109 228.77539062 285.08984375 C227.70095703 285.16847656 226.62652344 285.24710937 225.51953125 285.328125 C224.47216797 285.41449219 223.42480469 285.50085938 222.34570312 285.58984375 C215.9111687 286.09372898 209.53524621 286.3165446 203.08203125 286.203125 C202.91960937 287.44835937 202.91960937 287.44835937 202.75390625 288.71875 C201.99850697 292.63628581 200.75551686 296.24157732 199.33203125 299.953125 C198.93322754 301.00330811 198.93322754 301.00330811 198.52636719 302.07470703 C193.05849115 316.2266651 193.05849115 316.2266651 189.08203125 320.203125 C185.95703125 320.765625 185.95703125 320.765625 182.08203125 320.203125 C180.24900818 318.90272522 180.24900818 318.90272522 178.36499023 317.17602539 C177.31696732 316.22012009 177.31696732 316.22012009 176.24777222 315.24490356 C170.26646402 309.60595271 164.41419104 303.84158185 158.57983398 298.05102539 C156.9490642 296.43693115 155.31293219 294.82823752 153.67163086 293.22485352 C151.28712386 290.89497712 148.91936657 288.54919639 146.5546875 286.19921875 C145.81936295 285.48656357 145.08403839 284.77390839 144.32643127 284.03965759 C139.33760587 279.02976266 139.33760587 279.02976266 138.07080078 274.93237305 C138.08574049 271.30169789 138.90286347 268.03976465 139.89453125 264.578125 C140.27362254 263.13875255 140.64991374 261.69863979 141.0234375 260.2578125 C141.20664551 259.55881836 141.38985352 258.85982422 141.57861328 258.13964844 C149.65700283 227.06409756 142.16312607 193.01736762 126.69140625 165.51953125 C123.0203288 159.28720506 118.77303834 153.70734038 114.08203125 148.203125 C113.33050781 147.31238281 112.57898438 146.42164063 111.8046875 145.50390625 C91.00071138 121.62869289 59.9999656 104.50642067 28.08203125 102.203125 C-11.37851012 100.81366932 -44.97636157 109.62370133 -74.91796875 136.203125 C-75.73652344 136.92628906 -76.55507812 137.64945313 -77.3984375 138.39453125 C-101.19814833 160.75642171 -114.73939601 193.70123122 -116.23046875 225.98828125 C-117.27799343 262.1264237 -104.6339969 295.37002468 -80.2734375 322.10546875 C-57.29973942 346.35046968 -25.32550296 360.80216995 8.03100586 362.10913086 C10.38197751 362.16736749 12.73037616 362.19470678 15.08203125 362.203125 C16.19312256 362.20916748 16.19312256 362.20916748 17.32666016 362.21533203 C27.61079321 362.17674667 37.08685463 360.57117761 47.00341797 357.84326172 C48.25662842 357.50705811 48.25662842 357.50705811 49.53515625 357.1640625 C50.26895508 356.95571777 51.00275391 356.74737305 51.75878906 356.53271484 C55.8415886 355.95350306 59.03169614 356.43851052 62.39131165 358.88421631 C63.12109726 359.61304016 63.85088287 360.34186401 64.6027832 361.09277344 C65.43997391 361.91743103 66.27716461 362.74208862 67.13972473 363.59173584 C68.46661568 364.9385141 68.46661568 364.9385141 69.8203125 366.3125 C70.74168503 367.23146057 71.66305756 368.15042114 72.61235046 369.097229 C74.55767882 371.03970465 76.49396907 372.9906406 78.42407227 374.94824219 C80.89485278 377.45312841 83.38519762 379.93741923 85.88241291 382.41592026 C88.26769006 384.78807164 90.63711793 387.17577323 93.0078125 389.5625 C93.90252762 390.45225525 94.79724274 391.3420105 95.71907043 392.25872803 C96.54050034 393.09599426 97.36193024 393.9332605 98.20825195 394.79589844 C99.29696342 395.89390778 99.29696342 395.89390778 100.40766907 397.01409912 C102.29905272 399.4868543 102.81399005 401.12186569 103.08203125 404.203125 C101.81412271 408.10438206 99.61690541 409.70083438 96.14453125 411.578125 C87.7656788 415.4982757 78.84070338 418.26189405 70.08203125 421.203125 C69.92383911 422.71664551 69.92383911 422.71664551 69.76245117 424.26074219 C69.36700269 428.01185996 68.95491891 431.76099625 68.5378418 435.50976562 C68.35980845 437.13101929 68.18626153 438.75277227 68.01733398 440.375 C67.77341037 442.70979962 67.51328728 445.04231449 67.25 447.375 C67.17798874 448.09806335 67.10597748 448.82112671 67.03178406 449.56610107 C66.56236767 453.56568614 66.01532314 456.34486358 63.08203125 459.203125 C58.87899391 460.58207426 54.52580278 461.19778396 50.16162109 461.87841797 C48.27327895 462.1732636 46.39011806 462.50082776 44.5078125 462.83203125 C23.63614334 465.95078641 1.62861085 465.24326232 -19.23046875 462.390625 C-20.43928711 462.22546387 -21.64810547 462.06030273 -22.89355469 461.89013672 C-32.54793971 460.41094801 -32.54793971 460.41094801 -36.91796875 457.203125 C-39.55036438 450.07018201 -39.7940046 442.22333648 -40.54296875 434.703125 C-40.7440625 432.7540625 -40.7440625 432.7540625 -40.94921875 430.765625 C-41.27729329 427.57861522 -41.600057 424.39116185 -41.91796875 421.203125 C-43.16449219 420.790625 -44.41101563 420.378125 -45.6953125 419.953125 C-55.29387714 416.71696168 -64.55658179 413.23111919 -73.62280273 408.69335938 C-77.57318141 406.71301224 -77.57318141 406.71301224 -81.91796875 406.203125 C-84.28110233 407.82107774 -84.28110233 407.82107774 -86.79296875 410.015625 C-87.76363281 410.82644531 -88.73429688 411.63726562 -89.734375 412.47265625 C-91.95290367 414.36128187 -94.1409858 416.28117983 -96.3203125 418.21484375 C-96.88830566 418.71201904 -97.45629883 419.20919434 -98.04150391 419.72143555 C-99.14567744 420.69010122 -100.24089289 421.6690999 -101.32568359 422.65942383 C-104.76345932 425.66869646 -107.29742643 427.2456267 -111.91796875 427.203125 C-114.77734375 425.83203125 -114.77734375 425.83203125 -117.66796875 423.765625 C-119.23417969 422.65380859 -119.23417969 422.65380859 -120.83203125 421.51953125 C-125.28116904 418.179862 -129.61958505 414.73369534 -133.91796875 411.203125 C-135.68800136 409.80627642 -137.45882745 408.4104327 -139.23046875 407.015625 C-142.68322582 404.25234204 -145.87206993 401.41824042 -148.91796875 398.203125 C-149.72427734 397.42775391 -149.72427734 397.42775391 -150.546875 396.63671875 C-152.0418464 395.19724513 -153.48420603 393.70357435 -154.91796875 392.203125 C-154.91796875 391.543125 -154.91796875 390.883125 -154.91796875 390.203125 C-155.57796875 390.203125 -156.23796875 390.203125 -156.91796875 390.203125 C-158.6953125 388.2890625 -158.6953125 388.2890625 -160.85546875 385.578125 C-161.65210938 384.58167969 -162.44875 383.58523438 -163.26953125 382.55859375 C-164.1524164 381.44016151 -165.03522564 380.32166935 -165.91796875 379.203125 C-166.88384815 377.99067312 -167.84999992 376.77843817 -168.81640625 375.56640625 C-169.78837433 374.34163278 -170.75973812 373.11637948 -171.73046875 371.890625 C-172.41387329 371.02993408 -172.41387329 371.02993408 -173.11108398 370.15185547 C-174.39794017 368.51515821 -175.66144896 366.86318386 -176.91796875 365.203125 C-177.68496094 364.19894531 -178.45195312 363.19476563 -179.2421875 362.16015625 C-181.20798065 358.69137907 -181.65676313 357.11974724 -180.91796875 353.203125 C-179.27525936 350.84721082 -177.72852057 348.90693569 -175.79296875 346.828125 C-174.77940847 345.69304795 -173.76768012 344.55633237 -172.7578125 343.41796875 C-172.26780762 342.87124512 -171.77780273 342.32452148 -171.27294922 341.76123047 C-168.9993401 339.14678481 -167.01413599 336.33855857 -165.0390625 333.49609375 C-164.66910156 333.06941406 -164.29914063 332.64273437 -163.91796875 332.203125 C-163.25796875 332.203125 -162.59796875 332.203125 -161.91796875 332.203125 C-160.45734025 329.55573584 -159.91796875 328.30864166 -159.91796875 325.203125 C-160.64412696 323.32674963 -160.64412696 323.32674963 -161.67578125 321.3515625 C-162.05162354 320.59037109 -162.42746582 319.82917969 -162.81469727 319.04492188 C-163.22002686 318.23087891 -163.62535645 317.41683594 -164.04296875 316.578125 C-167.21232032 310.0626153 -170.08398279 303.54318866 -172.48046875 296.703125 C-172.73135254 295.9920459 -172.98223633 295.2809668 -173.24072266 294.54833984 C-174.23038875 291.64035323 -174.91796875 289.29658743 -174.91796875 286.203125 C-175.65321777 286.18330566 -176.3884668 286.16348633 -177.14599609 286.14306641 C-180.52863502 286.0468751 -183.91073412 285.93758243 -187.29296875 285.828125 C-188.44925781 285.7971875 -189.60554688 285.76625 -190.796875 285.734375 C-209.02658289 285.1164188 -209.02658289 285.1164188 -212.94140625 281.15625 C-214.27391531 277.1267426 -214.96485843 273.15099426 -215.54296875 268.953125 C-215.72472656 267.74076172 -215.72472656 267.74076172 -215.91015625 266.50390625 C-216.26800886 264.07284232 -216.59537749 261.63908978 -216.91796875 259.203125 C-217.01658203 258.5445752 -217.11519531 257.88602539 -217.21679688 257.20751953 C-218.31678535 249.05454741 -218.16007409 240.7897985 -218.16796875 232.578125 C-218.16997787 231.3489032 -218.16997787 231.3489032 -218.17202759 230.09484863 C-218.15879484 192.71278201 -218.15879484 192.71278201 -211.91796875 181.203125 C-209.00523184 179.22732178 -206.31149024 178.85922991 -202.84765625 178.5703125 C-201.86796875 178.48652344 -200.88828125 178.40273437 -199.87890625 178.31640625 C-198.86054688 178.23777344 -197.8421875 178.15914062 -196.79296875 178.078125 C-195.7978125 177.99175781 -194.80265625 177.90539062 -193.77734375 177.81640625 C-187.47690246 177.29822374 -181.23842882 177.09327976 -174.91796875 177.203125 C-174.80582031 176.53925781 -174.69367188 175.87539062 -174.578125 175.19140625 C-173.76167317 171.49563316 -172.60015663 167.95897456 -171.35546875 164.390625 C-170.97152954 163.28315918 -170.97152954 163.28315918 -170.57983398 162.15332031 C-168.35950976 155.97605409 -165.57410026 150.1958656 -162.37084961 144.46948242 C-160.89258593 141.72811146 -159.91301491 139.68577011 -159.9453125 136.5390625 C-161.16110144 133.61921598 -162.72359625 131.85631034 -164.91796875 129.578125 C-180.90346197 112.51840663 -180.90346197 112.51840663 -180.9375 107.0859375 C-180.00290069 101.92738213 -176.73314241 98.14410076 -173.60546875 94.078125 C-172.9717334 93.23918701 -172.33799805 92.40024902 -171.68505859 91.53588867 C-166.65342667 84.9645396 -161.35173309 78.77496685 -155.55322266 72.87353516 C-153.75403819 71.03567011 -151.98352601 69.17210755 -150.2109375 67.30859375 C-141.70871684 58.48037903 -132.75911598 50.74092081 -122.81665039 43.57324219 C-121.53582579 42.64897992 -120.26427308 41.71174974 -119.00170898 40.76269531 C-115.42739222 38.10719072 -112.71851032 36.1522472 -108.07421875 36.46484375 C-104.13170804 37.81472513 -101.50872032 40.74670795 -98.57421875 43.61328125 C-95.85874924 46.26086402 -93.03959964 48.6763969 -90.10546875 51.078125 C-89.23277344 51.79742187 -88.36007813 52.51671875 -87.4609375 53.2578125 C-86.62175781 53.89976563 -85.78257812 54.54171875 -84.91796875 55.203125 C-84.1909375 55.87601563 -83.46390625 56.54890625 -82.71484375 57.2421875 C-79.28685229 58.4199611 -78.56322633 57.92541586 -75.328125 56.484375 C-73.53571111 55.57650503 -71.75354832 54.64819869 -69.98046875 53.703125 C-68.10017828 52.75280591 -66.21735178 51.80748806 -64.33203125 50.8671875 C-63.41196289 50.40602539 -62.49189453 49.94486328 -61.54394531 49.46972656 C-55.05908859 46.34185034 -48.17730452 43.203125 -40.91796875 43.203125 C-40.84449219 41.42421875 -40.84449219 41.42421875 -40.76953125 39.609375 C-40.40744681 31.48062152 -39.97223972 23.35802739 -39.10546875 15.265625 C-38.91017578 13.36490234 -38.91017578 13.36490234 -38.7109375 11.42578125 C-37.78548471 7.66470465 -37.09763329 6.39493259 -33.91796875 4.203125 C-31.24725841 3.4617381 -28.82237923 2.92454135 -26.10546875 2.515625 C-25.41904297 2.39896484 -24.73261719 2.28230469 -24.02539062 2.16210938 C-21.99191373 1.82159338 -19.95757441 1.50484449 -17.91796875 1.203125 C-16.90476563 1.02966553 -15.8915625 0.85620605 -14.84765625 0.67749023 C-9.88336295 0.0782344 -4.99599239 0.02134294 0 0 Z M-24.91796875 17.203125 C-25.03072144 18.72450073 -25.03072144 18.72450073 -25.14575195 20.27661133 C-25.42833489 24.04045786 -25.72890056 27.80268909 -26.03491211 31.56469727 C-26.16482397 33.19289354 -26.28985993 34.82148652 -26.40991211 36.45043945 C-26.58336382 38.79239439 -26.77432344 41.13236095 -26.96875 43.47265625 C-27.01888748 44.20088089 -27.06902496 44.92910553 -27.12068176 45.67939758 C-27.37363111 48.5560552 -27.57821289 50.72051514 -29.26391602 53.11499023 C-32.08240654 54.96916179 -35.31368245 55.61634441 -38.54296875 56.453125 C-51.36905402 60.01898008 -63.51141428 64.90053978 -74.92236328 71.80200195 C-77.77082506 73.4437957 -79.70908545 74.203125 -83.01953125 74.203125 C-86.57888006 72.97510169 -88.4207621 71.33503106 -91.10546875 68.703125 C-92.0490625 67.80722656 -92.99265625 66.91132812 -93.96484375 65.98828125 C-94.44888672 65.52695801 -94.93292969 65.06563477 -95.43164062 64.59033203 C-97.8342154 62.34798153 -100.32983036 60.24419815 -102.85546875 58.140625 C-104.16837891 57.04041016 -104.16837891 57.04041016 -105.5078125 55.91796875 C-108.44721689 53.70290466 -108.44721689 53.70290466 -111.91796875 53.203125 C-114.15389733 54.57861494 -116.03221904 55.92353484 -118.04296875 57.578125 C-118.62135498 58.0407373 -119.19974121 58.50334961 -119.7956543 58.97998047 C-128.0882653 65.6741125 -135.74024059 72.94367166 -143.29296875 80.453125 C-144.32901245 81.48203857 -144.32901245 81.48203857 -145.38598633 82.53173828 C-151.80731414 88.07308728 -151.80731414 88.07308728 -154.91796875 95.203125 C-155.57796875 95.203125 -156.23796875 95.203125 -156.91796875 95.203125 C-158.3587159 96.985254 -159.72307524 98.82972776 -161.04296875 100.703125 C-161.76742187 101.7240625 -162.491875 102.745 -163.23828125 103.796875 C-163.79257813 104.5909375 -164.346875 105.385 -164.91796875 106.203125 C-163.60929965 109.04556049 -162.16912481 111.26046969 -160.08984375 113.59375 C-159.53965576 114.21709229 -158.98946777 114.84043457 -158.42260742 115.48266602 C-157.84357666 116.13291748 -157.2645459 116.78316895 -156.66796875 117.453125 C-155.49062858 118.79941956 -154.31482777 120.14706196 -153.140625 121.49609375 C-152.58133301 122.13853027 -152.02204102 122.7809668 -151.44580078 123.44287109 C-149.63579182 125.52822817 -147.83821456 127.61535007 -146.10546875 129.765625 C-145.66589844 130.30316406 -145.22632813 130.84070313 -144.7734375 131.39453125 C-143.44395438 134.20526496 -143.5513936 136.1150071 -143.91796875 139.203125 C-145.16474642 141.83809726 -146.45060398 144.2620713 -147.91796875 146.765625 C-151.60625932 153.37558855 -154.62938845 160.05567863 -157.29296875 167.140625 C-157.61394531 167.99148682 -157.93492187 168.84234863 -158.265625 169.71899414 C-160.14400348 174.81469019 -161.7618548 179.9350108 -163.19384766 185.17407227 C-163.91796875 187.203125 -163.91796875 187.203125 -165.91796875 189.203125 C-168.55182124 189.65811414 -171.11579134 190.00227797 -173.76953125 190.2734375 C-174.93057877 190.40236893 -174.93057877 190.40236893 -176.11508179 190.53390503 C-178.59022716 190.80685425 -181.06648582 191.06761934 -183.54296875 191.328125 C-185.2201395 191.51091849 -186.8972243 191.69450237 -188.57421875 191.87890625 C-192.68786056 192.32949371 -196.8025418 192.76915749 -200.91796875 193.203125 C-205.20578471 218.95554349 -205.20578471 244.45070651 -200.91796875 270.203125 C-199.80421875 270.32429688 -198.69046875 270.44546875 -197.54296875 270.5703125 C-194.35186288 270.91862505 -191.16209436 271.27738171 -187.97265625 271.640625 C-184.75097356 272.00613595 -181.52904738 272.33915268 -178.30078125 272.640625 C-176.88148245 272.78618594 -175.46221031 272.93200703 -174.04296875 273.078125 C-172.76679688 273.19929688 -171.490625 273.32046875 -170.17578125 273.4453125 C-166.37131561 274.33028412 -165.15655915 275.02577088 -162.91796875 278.203125 C-162.03037519 280.76792458 -161.31345692 283.20584798 -160.66796875 285.828125 C-157.74584232 296.65138074 -153.3448394 306.88731985 -148.03515625 316.7578125 C-147.20371094 318.30855469 -147.20371094 318.30855469 -146.35546875 319.890625 C-145.85917969 320.76074219 -145.36289063 321.63085938 -144.8515625 322.52734375 C-143.55300248 326.24915803 -143.86221155 328.40899756 -144.91796875 332.203125 C-146.5207651 334.71933906 -148.44721882 336.84013378 -150.48046875 339.015625 C-151.57165817 340.23186695 -152.66149513 341.44932361 -153.75 342.66796875 C-154.28705566 343.26206543 -154.82411133 343.85616211 -155.37744141 344.46826172 C-158.72693861 348.24029454 -161.807926 352.2332469 -164.91796875 356.203125 C-160.4348979 363.32329635 -155.32738809 369.76794815 -149.91796875 376.203125 C-149.00724609 377.31880859 -149.00724609 377.31880859 -148.078125 378.45703125 C-146.7381091 380.07881088 -145.33483097 381.64803232 -143.91796875 383.203125 C-143.25796875 383.203125 -142.59796875 383.203125 -141.91796875 383.203125 C-141.70398438 383.7496875 -141.49 384.29625 -141.26953125 384.859375 C-139.44640055 388.02087332 -136.96574973 390.27223727 -134.29296875 392.703125 C-133.45245972 393.4751123 -133.45245972 393.4751123 -132.5949707 394.26269531 C-125.76230533 400.41610076 -118.35876565 405.81594984 -110.91796875 411.203125 C-105.41628306 407.19362247 -100.20657968 402.95867475 -95.10546875 398.453125 C-93.80867655 397.31092576 -92.51055149 396.17023754 -91.2109375 395.03125 C-90.64914795 394.5352832 -90.0873584 394.03931641 -89.50854492 393.52832031 C-86.83893469 391.30412318 -85.21227586 390.23798189 -81.71875 389.82421875 C-77.01448696 390.29319461 -74.11885169 391.90205146 -70.10546875 394.265625 C-58.13818692 400.9480178 -45.55648765 405.73927903 -32.32421875 409.28125 C-29.91796875 410.203125 -29.91796875 410.203125 -27.91796875 413.203125 C-27.5410766 415.79979839 -27.2646425 418.32303783 -27.06640625 420.93359375 C-27.00264801 421.68401443 -26.93888977 422.43443512 -26.87319946 423.20759583 C-26.67168903 425.60134605 -26.48218595 427.99587478 -26.29296875 430.390625 C-26.15834249 432.01503966 -26.02293513 433.63938978 -25.88671875 435.26367188 C-25.55473822 439.24279787 -25.23352202 443.22266398 -24.91796875 447.203125 C0.24404141 451.21538786 26.99581503 452.78212017 52.08203125 447.203125 C54.02729494 445.25786131 53.56124389 441.65987281 53.765625 438.9921875 C53.88975007 437.50518963 54.01410629 436.01821104 54.13867188 434.53125 C54.33052058 432.17895397 54.51965862 429.82650234 54.7043457 427.47363281 C54.88392663 425.2082967 55.0741248 422.94404271 55.265625 420.6796875 C55.31778671 419.97647369 55.36994843 419.27325989 55.4236908 418.54873657 C55.72999435 414.99722617 56.05922296 413.23733743 58.08203125 410.203125 C60.51220703 409.12817383 60.51220703 409.12817383 63.52734375 408.16015625 C64.60371094 407.80888672 65.68007813 407.45761719 66.7890625 407.09570312 C67.91699219 406.73927734 69.04492188 406.38285156 70.20703125 406.015625 C71.91052734 405.46358398 71.91052734 405.46358398 73.6484375 404.90039062 C76.45673457 403.99182393 79.2678302 403.0932023 82.08203125 402.203125 C82.08203125 394.71993619 70.55573693 385.97124529 65.48535156 380.79223633 C58.00191403 373.06361272 58.00191403 373.06361272 48.05078125 370.2109375 C43.75896845 370.86557477 40.00193622 372.38500117 36.1237793 374.29541016 C21.60213223 380.75140487 -0.9151328 376.2898491 -15.91796875 373.203125 C-16.58812012 373.07454102 -17.25827148 372.94595703 -17.94873047 372.81347656 C-52.49647898 366.0670094 -84.49156273 343.84365587 -104.39453125 315.0390625 C-117.21174739 295.83771731 -124.89031802 275.91440536 -128.91796875 253.203125 C-129.21960938 251.55763672 -129.21960938 251.55763672 -129.52734375 249.87890625 C-132.85888877 218.52906758 -127.05377909 188.69810737 -111.91796875 161.203125 C-111.5739502 160.56777832 -111.22993164 159.93243164 -110.87548828 159.27783203 C-105.3605819 149.19673743 -98.71192656 140.62418286 -90.91796875 132.203125 C-90.15613281 131.37039062 -89.39429688 130.53765625 -88.609375 129.6796875 C-78.52278469 119.13040956 -66.5552601 111.32492811 -53.91796875 104.203125 C-53.09167969 103.73261719 -52.26539063 103.26210937 -51.4140625 102.77734375 C-19.10996134 85.52976279 20.59565535 82.88473191 55.56054688 92.9140625 C93.52077094 104.84002763 124.13914397 131.05721071 142.9453125 165.96875 C149.37504098 178.39396145 153.47463325 191.48737427 156.08203125 205.203125 C156.25863281 206.0904834 156.43523437 206.9778418 156.6171875 207.89208984 C158.05419533 215.64808297 158.46605867 223.19825239 158.45703125 231.078125 C158.45759521 232.33230225 158.45815918 233.58647949 158.45874023 234.87866211 C158.32309037 246.54973907 157.35490197 259.03458077 153.3927002 270.13420105 C152.85224596 272.2135406 152.85224596 272.2135406 154.06272888 273.78509521 C154.58013138 274.29139465 155.09753387 274.79769409 155.63061523 275.31933594 C156.21129257 275.89963562 156.79196991 276.4799353 157.39024353 277.07781982 C158.02974442 277.69151428 158.6692453 278.30520874 159.328125 278.9375 C160.29577538 279.89453827 160.29577538 279.89453827 161.28297424 280.87091064 C163.35041473 282.91031502 165.43454169 284.93168027 167.51953125 286.953125 C168.92235623 288.33087932 170.32406419 289.70977198 171.72460938 291.08984375 C175.16425065 294.47429306 178.61895978 297.84266072 182.08203125 301.203125 C184.8972311 297.66234321 186.26501546 294.17729896 187.58203125 289.890625 C188.18631121 287.95887843 188.79892585 286.0328495 189.4453125 284.11474609 C189.8726767 282.8316703 190.26569507 281.536683 190.625 280.23291016 C191.23828125 278.34765625 191.23828125 278.34765625 193.08203125 275.203125 C196.03012552 274.03388083 198.00323202 273.54341005 201.08203125 273.203125 C201.98099121 273.10112793 202.87995117 272.99913086 203.80615234 272.89404297 C206.79193953 272.59821728 209.77725688 272.36078594 212.76953125 272.140625 C214.79446962 271.98564869 216.81921936 271.8281834 218.84375 271.66796875 C219.73022217 271.602146 220.61669434 271.53632324 221.5300293 271.46850586 C224.09499198 271.20177722 226.56305973 270.7491522 229.08203125 270.203125 C233.36984721 244.45070651 233.36984721 218.95554349 229.08203125 193.203125 C227.51521606 193.05278809 227.51521606 193.05278809 225.91674805 192.89941406 C222.04025219 192.52260275 218.16654014 192.12186524 214.29321289 191.71386719 C212.61679218 191.54066245 210.93968785 191.37394609 209.26196289 191.21386719 C206.84962991 190.98255737 204.44072236 190.72798063 202.03125 190.46875 C200.90610237 190.36847504 200.90610237 190.36847504 199.75822449 190.26617432 C196.53078072 189.89859628 194.5328983 189.63857487 192.15429688 187.34130859 C190.58750565 184.21700132 189.76317123 180.94453636 188.89453125 177.578125 C185.38414024 164.8745096 180.01445284 152.79525802 173.11328125 141.5625 C171.78891666 138.53251436 171.68728355 136.48124722 172.08203125 133.203125 C173.41015625 130.921875 173.41015625 130.921875 175.33203125 128.703125 C176.04875 127.85492188 176.76546875 127.00671875 177.50390625 126.1328125 C178.8801666 124.56888028 180.25710499 123.0055355 181.63867188 121.44628906 C182.74108536 120.20067952 183.84034914 118.9522756 184.93652344 117.70117188 C186.0208098 116.46695155 187.11504814 115.24139322 188.21972656 114.02539062 C191.59497221 110.23812612 191.59497221 110.23812612 192.08203125 105.203125 C190.63864527 102.54990352 190.63864527 102.54990352 188.70703125 99.953125 C188.08054687 99.06109375 187.4540625 98.1690625 186.80859375 97.25 C186.23882812 96.57453125 185.6690625 95.8990625 185.08203125 95.203125 C184.42203125 95.203125 183.76203125 95.203125 183.08203125 95.203125 C182.69917969 94.34460938 182.69917969 94.34460938 182.30859375 93.46875 C179.75999668 88.76115032 175.74436958 85.06421289 172.08203125 81.203125 C171.5111377 80.59823242 170.94024414 79.99333984 170.35205078 79.37011719 C163.10703953 71.75039677 155.69540096 64.5339308 147.33203125 58.140625 C146.66486084 57.62193848 145.99769043 57.10325195 145.31030273 56.56884766 C142.04311338 53.94948245 142.04311338 53.94948245 138.08374023 53.41186523 C135.85923482 54.29119467 134.50216726 55.30145925 132.7265625 56.8984375 C132.10837646 57.44677246 131.49019043 57.99510742 130.85327148 58.56005859 C130.20688721 59.14352051 129.56050293 59.72698242 128.89453125 60.328125 C127.54921011 61.51159201 126.20286026 62.69389067 124.85546875 63.875 C122.67123368 65.79990463 120.48932716 67.72737594 118.30859375 69.65625 C117.55320312 70.29046875 116.7978125 70.9246875 116.01953125 71.578125 C115.38917969 72.12210938 114.75882812 72.66609375 114.109375 73.2265625 C111.07112031 74.69007632 109.29475296 74.10410969 106.08203125 73.203125 C103.762408 72.05451928 101.56364093 70.87403472 99.33203125 69.578125 C87.49244239 63.00305492 74.93632075 58.3810307 61.8046875 55.125 C58.83712406 54.1202009 57.89292526 53.71323414 56.08203125 51.203125 C55.6137825 48.5716153 55.31541662 46.12489988 55.1328125 43.47265625 C55.03929756 42.34702522 55.03929756 42.34702522 54.94389343 41.19865417 C54.74799341 38.80513559 54.57104171 36.41064385 54.39453125 34.015625 C54.26491838 32.3911761 54.1340736 30.766825 54.00195312 29.14257812 C53.68101452 25.16375338 53.37705953 21.18395143 53.08203125 17.203125 C41.13649836 14.05162924 29.5684666 13.73804121 17.26660156 13.81201172 C14.08745421 13.82809756 10.90957776 13.81208458 7.73046875 13.79296875 C-3.52079705 13.78309922 -14.00371669 14.32370393 -24.91796875 17.203125 Z " fill="#000000" transform="translate(255.91796875,-0.203125)"/>
<path d="M0 0 C0.85980469 0.70898438 1.71960938 1.41796875 2.60546875 2.1484375 C25.71420112 21.99686809 37.59487978 49.06258256 40 79 C40.28677603 86.04478076 39.67280029 92.7881731 38.625 99.75 C38.49867188 100.65621094 38.37234375 101.56242187 38.2421875 102.49609375 C37.68988968 106.27933378 37.1019958 109.70838784 35.8359375 113.328125 C34.84715235 116.48854108 35.03601907 117.85338038 36 121 C37.69300137 123.26699925 37.69300137 123.26699925 39.94546509 125.39283752 C40.79496735 126.24061264 41.6444696 127.08838776 42.51971436 127.96185303 C43.45889709 128.87879944 44.39807983 129.79574585 45.36572266 130.74047852 C46.36031936 131.72575801 47.35400015 132.71196281 48.34683228 133.69902039 C50.4862157 135.82237543 52.63160426 137.93940313 54.78175735 140.05185127 C58.18927046 143.40039375 61.5808484 146.76477155 64.97006226 150.13182068 C73.39625819 158.49799569 81.8430816 166.84326465 90.29431152 175.18414307 C96.85275568 181.65739427 103.40523215 188.13645989 109.94068944 194.63292831 C113.30073151 197.97162882 116.67218782 201.2981958 120.05311131 204.6157428 C122.16799355 206.69618057 124.2721078 208.7872657 126.37359238 210.88122749 C127.79625734 212.29259647 129.23142457 213.69132932 130.66711426 215.08944702 C141.39161784 225.82747575 148.18921529 237.60490243 148.375 252.9375 C148.21179452 266.41921421 143.91188241 276.89029197 134.6875 286.8125 C124.42366658 296.32532122 111.40607637 300.85843152 97.484375 300.37890625 C81.48391772 298.63894621 71.43482116 289.96503764 60.67944336 278.68676758 C59.69164434 277.6636499 58.70296 276.64138637 57.71347046 275.61990356 C55.60104959 273.43756298 53.49278026 271.25132058 51.38712883 269.0624485 C48.05030077 265.59804069 44.69143178 262.15556468 41.32704163 258.71794128 C40.75681603 258.13515075 40.18659043 257.55236022 39.59908527 256.95190936 C38.43407224 255.76139179 37.26898905 254.57094288 36.10383713 253.38056123 C28.28406761 245.39056333 20.47781144 237.38907809 12.73950195 229.32006836 C7.5001759 223.85716861 2.22425064 218.43271113 -3.09680456 213.04934806 C-5.90484131 210.20547357 -8.69095977 207.34592421 -11.4330616 204.43830299 C-21.55503324 192.60294404 -21.55503324 192.60294404 -34.59354782 185.46654892 C-40.0419542 185.57149665 -44.23019034 187.53307609 -49 190 C-73.59713266 196.20966766 -101.85967318 189.0181425 -123.26855469 176.49853516 C-131.38951668 171.53788064 -138.32796275 165.75982721 -145 159 C-145.79921875 158.19949219 -146.5984375 157.39898437 -147.421875 156.57421875 C-162.02238997 141.19333142 -171.89542621 120.62874855 -174.6875 99.625 C-174.8127002 98.69236328 -174.93790039 97.75972656 -175.06689453 96.79882812 C-177.27249233 79.64617915 -176.46308178 58.56042814 -168 43 C-165.7109375 40.56640625 -165.7109375 40.56640625 -163 39 C-158.75781053 38.95360128 -156.50367493 40.15850546 -153.46914673 42.92958069 C-152.1418945 44.2423731 -150.82834268 45.56910469 -149.52587891 46.90649414 C-148.80323853 47.62840439 -148.08059814 48.35031464 -147.33605957 49.09410095 C-144.95418168 51.47945784 -142.59049543 53.88202538 -140.2265625 56.28515625 C-138.57713269 57.94391294 -136.92659433 59.601568 -135.2749939 61.25816345 C-130.93365956 65.61857684 -126.60755011 69.99379702 -122.28442383 74.37225342 C-117.86927304 78.83857586 -113.4399117 83.29075538 -109.01171875 87.74414062 C-100.32716589 96.48229738 -91.65862886 105.23615982 -83 114 C-79.11820114 110.72199957 -75.30617826 107.43178828 -71.71704102 103.83056641 C-70.95678116 103.07023102 -70.1965213 102.30989563 -69.41322327 101.52651978 C-68.22061134 100.32616592 -68.22061134 100.32616592 -67.00390625 99.1015625 C-66.17036118 98.26660248 -65.3368161 97.43164246 -64.47801208 96.57138062 C-61.83713476 93.92494152 -59.19977104 91.27503241 -56.5625 88.625 C-54.76390351 86.82138357 -52.96507773 85.01799575 -51.16601562 83.21484375 C-46.77468752 78.81253739 -42.38623271 74.40738286 -38 70 C-39.31081656 67.09856474 -40.70319342 65.05647165 -42.97390747 62.83268738 C-43.58247589 62.23148575 -44.19104431 61.63028412 -44.8180542 61.01086426 C-45.81714813 60.03905212 -45.81714813 60.03905212 -46.83642578 59.04760742 C-47.53897491 58.35601028 -48.24152405 57.66441315 -48.96536255 56.95185852 C-50.49007142 55.45148763 -52.0168925 53.95326087 -53.54556656 52.45693016 C-55.96334359 50.08780046 -58.37268949 47.71041077 -60.7795105 45.33015442 C-67.62262005 38.56341402 -74.47211098 31.80336749 -81.34814453 25.07006836 C-85.55406922 20.95025909 -89.74277408 16.81361021 -93.92077255 12.6654911 C-95.51643669 11.08779333 -97.11851498 9.51655567 -98.72702408 7.9519558 C-100.97512643 5.76400975 -103.20067978 3.55529821 -105.42236328 1.34057617 C-106.09247437 0.69877411 -106.76258545 0.05697205 -107.45300293 -0.60427856 C-110.63538451 -3.82219477 -111.90139753 -5.22223177 -112.48751831 -9.84550476 C-112 -13 -112 -13 -110.77734375 -14.8125 C-78.95682964 -36.07279954 -27.14002744 -22.85889432 0 0 Z M-92 -6 C-90.66575989 -4.69240723 -90.66575989 -4.69240723 -89.30456543 -3.35839844 C-80.92489539 4.85910403 -72.56642557 13.09764601 -64.2282486 21.35725403 C-59.94078275 25.60296859 -55.64619555 29.84092227 -51.33447266 34.06201172 C-47.17371506 38.13585074 -43.03280415 42.2289213 -38.90492249 46.33605957 C-37.32661503 47.89958444 -35.7412821 49.45605014 -34.14891052 51.00524902 C-31.91945349 53.17663287 -29.71630475 55.37178301 -27.51757812 57.57421875 C-26.85367569 58.20935898 -26.18977325 58.84449921 -25.50575256 59.49888611 C-22.54999252 62.50905719 -20.58608363 64.77022915 -20.26760864 69.08131409 C-21.13535084 73.72419947 -22.88729547 75.98140618 -26.20068359 79.12475586 C-26.75342453 79.6802713 -27.30616547 80.23578674 -27.87565613 80.80813599 C-29.69810768 82.63011449 -31.54729918 84.42205747 -33.3984375 86.21484375 C-34.67327002 87.47728446 -35.94641044 88.74143598 -37.21792603 90.00721741 C-40.56321491 93.32768438 -43.9322612 96.62301085 -47.30645752 99.9140625 C-50.06253006 102.61003833 -52.80171773 105.32281475 -55.54010582 108.03673458 C-61.18963511 113.63566509 -66.85014827 119.22357933 -72.54052734 124.78100586 C-73.06632889 125.29783432 -73.59213043 125.81466278 -74.13386536 126.34715271 C-76.98079703 129.11773468 -78.7181494 130.77502369 -82.67706299 131.46984863 C-87.62029651 130.77089722 -89.7913119 127.98862027 -93.16699219 124.48242188 C-94.20224281 123.44366661 -94.20224281 123.44366661 -95.25840759 122.38392639 C-97.53546745 120.09249453 -99.79075932 117.78079007 -102.046875 115.46875 C-103.62388759 113.87546773 -105.20237945 112.28364837 -106.7822876 110.6932373 C-110.93735049 106.50392836 -115.07495099 102.29780584 -119.20831299 98.08709717 C-125.83447724 91.34254889 -132.48621545 84.62324085 -139.13895416 77.90492249 C-141.4655401 75.55031178 -143.7843957 73.18829199 -146.10223389 70.82507324 C-147.51818891 69.38908145 -148.93429777 67.95324133 -150.35058594 66.51757812 C-150.99787155 65.85367569 -151.64515717 65.18977325 -152.3120575 64.50575256 C-153.83698842 62.96555481 -155.4135727 61.47677753 -157 60 C-157.66 60 -158.32 60 -159 60 C-163.4599773 85.87384984 -162.12194902 112.10315363 -146.84375 134.484375 C-129.71964583 157.84861882 -107.89514968 172.49317607 -79 177 C-75.37004808 177.32956762 -71.76897562 177.42775759 -68.125 177.4375 C-67.13991455 177.44064209 -66.1548291 177.44378418 -65.13989258 177.44702148 C-54.87295184 177.2834802 -43.29717835 175.64858918 -34 171 C-31.375 170.5 -31.375 170.5 -28 171 C-21.30589818 175.75928826 -15.63656393 182.25685693 -9.88720703 188.07861328 C-8.89760087 189.07670637 -7.90772487 190.07453199 -6.91760254 191.07211304 C-4.80040868 193.20591136 -2.68462979 195.34109914 -0.56982803 197.47726822 C2.78108495 200.8610466 6.13816401 204.23866232 9.49661255 207.61495972 C10.6508236 208.77543068 11.80503464 209.93590164 12.95924568 211.0963726 C13.82568746 211.96748857 13.82568746 211.96748857 14.70963311 212.85620284 C22.5163016 220.70573558 30.31834497 228.55978023 38.10595703 236.42822266 C43.37562341 241.75248831 48.65423358 247.06770891 53.94311631 252.37288845 C56.73462405 255.17373198 59.52142288 257.97891802 62.2972374 260.79532242 C64.90814123 263.44430263 67.53070068 266.08117457 70.162323 268.70956802 C71.57390983 270.12549986 72.97303216 271.55382463 74.37161255 272.98260498 C82.48703572 281.04683064 90.33925933 286.01865719 102 286 C112.03968675 285.84965527 118.74002144 281.88918841 126.01953125 275.1484375 C128.87454332 272.05128437 130.50837284 268.90625014 132 265 C132.4125 264.0925 132.825 263.185 133.25 262.25 C135.29954477 253.36863932 134.55858561 244.94705299 130 237 C125.38534636 230.11893291 119.67116134 224.42931849 113.7878418 218.64013672 C112.76348921 217.62455074 111.73962269 216.6084743 110.71620178 215.59194946 C108.52545571 213.41759343 106.33176962 211.24626444 104.13580894 209.07717514 C100.66269314 205.64565834 97.19902204 202.20471251 93.73701477 198.76199341 C83.89612339 188.97850416 74.04504924 179.20534556 64.17944336 169.44677734 C58.72023012 164.04663317 53.27000885 158.63757893 47.82949382 153.21859562 C44.39088857 149.79461779 40.94150841 146.38200456 37.4837507 142.97737479 C35.33753786 140.85890262 33.20188628 138.73002759 31.06909752 136.59804916 C30.07895419 135.61247302 29.08451254 134.63119337 28.08549881 133.65460968 C26.72153442 132.32004358 25.37437414 130.96836763 24.02812195 129.61593628 C23.26990489 128.86492582 22.51168783 128.11391537 21.7304945 127.34014702 C19.63831373 124.5108918 19.24613922 122.4836767 19 119 C19.70703125 116.17578125 19.70703125 116.17578125 20.8125 113.3125 C22.86643302 107.56148754 24.1886264 102.04766092 25 96 C25.20302734 94.52466797 25.20302734 94.52466797 25.41015625 93.01953125 C27.96443653 69.38509877 20.49624514 44.71795864 6 26 C-10.55058009 5.78710958 -32.45504889 -7.04256347 -58.5546875 -9.7578125 C-75.95670894 -11.12820863 -75.95670894 -11.12820863 -92 -6 Z " fill="#000000" transform="translate(338,148)"/>
</svg>
