<svg width="493" height="502" xmlns="http://www.w3.org/2000/svg" xmlns:xlink="http://www.w3.org/1999/xlink" xml:space="preserve" overflow="hidden"><defs><clipPath id="clip0"><rect x="368" y="27" width="493" height="502"/></clipPath></defs><g clip-path="url(#clip0)" transform="translate(-368 -27)"><path d="M16.886 293.309 65.8373 302.253C69.1483 312.99 73.594 323.618 79.1022 333.952L50.7057 374.895C48.71 377.773 49.06 381.666 51.5366 384.141L108.13 440.736C110.603 443.21 114.5 443.56 117.375 441.566L158.317 413.17C168.665 418.682 179.291 423.126 190.015 426.431L198.962 475.552C199.589 478.992 202.587 481.495 206.086 481.495L286.27 481.495C289.769 481.495 292.767 478.992 293.394 475.552L302.341 426.431C313.065 423.129 323.689 418.682 334.03 413.173L374.799 441.559C377.673 443.553 381.562 443.217 384.041 440.75L440.975 384.155C443.467 381.676 443.821 377.766 441.809 374.881L413.264 333.941C418.766 323.611 423.206 312.987 426.515 302.253L475.47 293.309C478.91 292.679 481.41 289.681 481.41 286.185L481.41 206.002C481.41 202.505 478.91 199.507 475.47 198.878L426.519 189.933C423.192 179.136 418.755 168.562 413.279 158.394L441.809 117.471C443.818 114.59 443.471 110.683 440.982 108.205L384.048 51.4437C381.569 48.9725 377.681 48.626 374.81 50.62L333.886 79.0023C323.949 73.678 313.371 69.2905 302.339 65.9177L293.395 16.8037C292.767 13.3602 289.769 10.8607 286.271 10.8607L206.086 10.8607C202.587 10.8607 199.589 13.3602 198.962 16.8037L190.017 65.9177C178.983 69.2905 168.405 73.6815 158.463 79.0058L117.364 50.6129C114.486 48.6189 110.592 48.9725 108.121 51.4579L51.5278 108.219C49.0583 110.697 48.7136 114.583 50.7058 117.457L79.0863 158.379C73.6064 168.558 69.1642 179.136 65.8374 189.933L16.8861 198.878C13.4461 199.507 10.9466 202.505 10.9466 206.002L10.9466 286.185C10.9465 289.681 13.4461 292.679 16.886 293.309ZM25.4276 212.04 72.8286 203.378C75.5562 202.88 77.7588 200.868 78.503 198.199 82.0154 185.595 87.1913 173.264 93.8891 161.547 95.275 159.126 95.1442 156.124 93.5532 153.829L66.0477 114.166 114.108 65.9638 153.926 93.4728C156.218 95.0603 159.218 95.191 161.633 93.8016 172.971 87.3212 185.301 82.2055 198.281 78.5888 200.954 77.8428 202.965 75.6402 203.462 72.9109L212.126 25.3419 280.23 25.3419 288.894 72.9109C289.39 75.6402 291.404 77.8428 294.075 78.5888 307.057 82.2055 319.387 87.3212 330.721 93.8016 333.141 95.1875 336.145 95.0496 338.441 93.4658L378.101 65.9602 426.458 114.173 398.819 153.815C397.221 156.11 397.083 159.118 398.472 161.547 405.165 173.26 410.337 185.592 413.851 198.199 414.597 200.868 416.8 202.88 419.526 203.378L466.928 212.04 466.928 280.146 419.526 288.808C416.8 289.306 414.597 291.318 413.851 293.987 410.369 306.485 405.186 318.887 398.451 330.848 397.086 333.269 397.228 336.26 398.819 338.541L426.451 378.173 378.115 426.222 338.625 398.724C336.339 397.133 333.352 396.992 330.932 398.36 318.955 405.109 306.555 410.292 294.077 413.764 291.404 414.506 289.392 416.712 288.894 419.442L280.23 467.014 212.126 467.014 203.462 419.442C202.966 416.712 200.952 414.506 198.279 413.764 185.805 410.292 173.404 405.109 161.424 398.36 159.01 396.995 156.022 397.14 153.744 398.717L114.092 426.219 66.053 378.18 93.5533 338.527C95.1336 336.246 95.2733 333.262 93.9104 330.848 87.1701 318.884 81.9855 306.482 78.503 293.987 77.7589 291.318 75.5545 289.307 72.8287 288.808L25.4277 280.146 25.4277 212.04Z" transform="matrix(1.00131 0 0 1 368 27)"/><path d="M246.177 383.32C321.798 383.32 383.319 321.797 383.319 246.178 383.319 170.559 321.798 109.036 246.177 109.036 170.556 109.036 109.035 170.559 109.035 246.178 109.035 321.797 170.556 383.32 246.177 383.32ZM246.177 116.276C317.805 116.276 376.079 174.551 376.079 246.178 376.079 317.806 317.805 376.08 246.177 376.08 174.55 376.08 116.275 317.805 116.275 246.178 116.275 174.55 174.55 116.276 246.177 116.276Z" transform="matrix(1.00131 0 0 1 368 27)"/><path d="M180.668 323.579 311.688 323.579C311.738 323.579 311.784 323.579 311.833 323.579 313.833 323.579 315.454 321.96 315.454 319.959 315.454 319.594 315.401 319.244 315.3 318.912 314.741 283.961 286.134 255.699 251.049 255.699L241.305 255.699C205.873 255.699 177.047 284.527 177.047 319.959 177.047 321.96 178.668 323.579 180.668 323.579ZM241.305 262.939 251.049 262.939C281.273 262.939 306.079 286.577 307.955 316.338L184.401 316.338C186.277 286.577 211.083 262.939 241.305 262.939Z" transform="matrix(1.00131 0 0 1 368 27)"/><path d="M243.856 244.951C264.855 244.951 281.142 221.331 281.142 201.013 281.142 180.455 264.416 163.729 243.856 163.729 223.296 163.729 206.568 180.455 206.568 201.013 206.568 221.331 222.856 244.951 243.856 244.951ZM243.856 170.969C260.423 170.969 273.902 184.446 273.902 201.013 273.902 217.637 260.499 237.711 243.856 237.711 227.211 237.711 213.809 217.637 213.809 201.013 213.809 184.446 227.287 170.969 243.856 170.969Z" transform="matrix(1.00131 0 0 1 368 27)"/><text font-family="Arial,Arial_MSFontService,sans-serif" font-weight="700" font-size="5" transform="matrix(7.25 0 0 7.24053 368 628)">Created by Vectors Point</text><text font-family="Arial,Arial_MSFontService,sans-serif" font-weight="700" font-size="5" transform="matrix(7.25 0 0 7.24053 368 664)">from the Noun Project</text></g></svg>