<?xml version="1.0" encoding="UTF-8"?>
<svg version="1.1" xmlns="http://www.w3.org/2000/svg" width="700" height="607">
<path d="M0 0 C1.05419128 -0.0071553 2.10838257 -0.01431061 3.19451904 -0.02168274 C4.35092896 -0.02437164 5.50733887 -0.02706055 6.6987915 -0.02983093 C7.91693542 -0.03640213 9.13507935 -0.04297333 10.39013672 -0.04974365 C14.43084966 -0.06949255 18.47152289 -0.08114464 22.51226807 -0.09111023 C23.90480824 -0.09515869 25.29734823 -0.09927564 26.689888 -0.10346031 C33.23327385 -0.12250807 39.77664844 -0.13673947 46.32005668 -0.14507228 C53.86581663 -0.15484093 61.41128295 -0.18115212 68.95693946 -0.22157317 C74.79400622 -0.25176522 80.63098895 -0.2665441 86.46813226 -0.26985329 C89.9521515 -0.27220046 93.43585691 -0.28111659 96.91979218 -0.30631447 C100.8097618 -0.33399471 104.69934724 -0.32975457 108.5894165 -0.32279968 C110.31188599 -0.34201477 110.31188599 -0.34201477 112.06915283 -0.36161804 C119.91913877 -0.31045861 124.52408565 0.76836361 130.21539307 6.45967102 C133.85471483 12.2556279 134.21153015 18.22522731 134.20367432 24.86201477 C134.20795944 25.67658646 134.21224457 26.49115814 134.21665955 27.33041382 C134.2223727 29.04398168 134.22292549 30.75757378 134.21856689 32.47114563 C134.21540619 35.07386644 134.23890569 37.67544965 134.26422119 40.2780304 C134.26649464 41.9518571 134.26719747 43.62568683 134.26617432 45.29951477 C134.27538406 46.06746872 134.28459381 46.83542267 134.29408264 47.62664795 C134.24271937 53.70889754 133.18236414 59.35997553 129.21929932 64.20576477 C128.64051025 64.66080383 128.06172119 65.1158429 127.46539307 65.58467102 C126.88918213 66.05775696 126.31297119 66.5308429 125.71929932 67.01826477 C121.74749027 69.48676545 117.73237411 69.25546583 113.15289307 69.20967102 C111.98242432 69.20064758 110.81195557 69.19162415 109.60601807 69.18232727 C108.26797119 69.16492493 108.26797119 69.16492493 106.90289307 69.14717102 C103.90723315 116.62196248 103.90723315 116.62196248 120.93121338 159.34394836 C124.17910005 163.96160992 126.58010933 168.97840314 129.09039307 174.02217102 C130.06138697 175.89158079 131.03659324 177.75880914 132.01617432 179.62373352 C132.73087891 180.9912677 132.73087891 180.9912677 133.46002197 182.38642883 C133.93616943 183.29747375 134.41231689 184.20851868 134.90289307 185.14717102 C141.85305435 198.45023233 148.78193866 211.76403733 155.68707275 225.0905304 C161.40399484 236.12075294 167.15057771 247.1353759 172.90289307 258.14717102 C179.85231681 271.45061941 186.78193712 284.76403436 193.68707275 298.0905304 C197.4572478 305.36470155 201.23680273 312.63387877 205.02789307 319.89717102 C205.75335327 321.28730408 205.75335327 321.28730408 206.49346924 322.70552063 C209.01618481 327.5379487 211.54212348 332.36867315 214.07086182 337.19795227 C216.5872111 342.00531191 219.09545985 346.8167987 221.59576416 351.63252258 C222.41912461 353.21649954 223.24466521 354.79934699 224.07330322 356.38056946 C230.79077095 369.21348219 234.71929698 380.88858489 230.27789307 395.39717102 C226.01475645 406.71087972 219.17123191 414.88712629 208.15289307 420.02217102 C203.32113001 422.10673166 199.29994556 423.26974721 194.02729893 423.28418541 C192.54867684 423.29179722 192.54867684 423.29179722 191.0401836 423.29956281 C189.95956416 423.30006057 188.87894471 423.30055833 187.76557922 423.30107117 C186.61568856 423.30545342 185.4657979 423.30983567 184.28106207 423.31435072 C181.08854778 423.32540688 177.89606113 423.33196056 174.7035321 423.33653188 C171.26023043 423.34249491 167.81694675 423.35410317 164.37365723 423.36482239 C156.05632332 423.38933313 147.73898347 423.40397303 139.42162457 423.41688246 C137.07109144 423.42059582 134.7205589 423.42456894 132.37002635 423.42863512 C117.76404741 423.45387668 103.1580675 423.47592325 88.55207157 423.48836327 C85.1695817 423.49129283 81.78709185 423.49425451 78.40460205 423.49726868 C77.56393011 423.49801473 76.72325817 423.49876078 75.85711133 423.49952944 C62.25081246 423.51217229 48.6446446 423.54538142 35.03840692 423.58707051 C21.05883324 423.62955107 7.0793265 423.65306549 -6.90031153 423.65828383 C-14.74510747 423.66169137 -22.58969883 423.67336839 -30.43443108 423.70638657 C-37.118249 423.73447276 -43.80182039 423.74534914 -50.48569273 423.7341911 C-53.89211679 423.72902569 -57.29760967 423.73451161 -60.70402718 423.75665665 C-92.28133299 423.95070587 -92.28133299 423.95070587 -104.94085693 411.53779602 C-114.26549626 401.19960894 -116.99578508 391.30418729 -116.48773193 377.61201477 C-116.04952566 371.1619971 -114.01177637 365.86478798 -111.09710693 360.14717102 C-110.69411377 359.34746887 -110.29112061 358.54776672 -109.87591553 357.72383118 C-106.88739839 351.83365369 -103.80679074 345.99479088 -100.70111084 340.16572571 C-98.18120638 335.42354935 -95.70228553 330.6602083 -93.22210693 325.89717102 C-92.73427734 324.96243958 -92.24644775 324.02770813 -91.74383545 323.06465149 C-87.80504213 315.51652137 -83.88756085 307.95742779 -79.97210693 300.39717102 C-75.67707675 292.10432048 -71.35787994 283.82542233 -66.99505615 275.56806946 C-62.81850613 267.64766743 -58.71653702 259.68879762 -54.60861206 251.73268127 C-50.79929821 244.35602729 -46.97731801 236.98686719 -43.09710693 229.64717102 C-38.92541808 221.75459633 -34.81892747 213.82878754 -30.72210693 205.89717102 C-24.7019505 194.24237707 -18.65164533 182.60375142 -12.57513428 170.97822571 C-11.01323547 167.98652128 -9.45518033 164.99283828 -7.89788818 161.99873352 C-7.3663916 160.97763489 -6.83489502 159.95653625 -6.28729248 158.90449524 C-5.28403853 156.97685802 -4.28152908 155.04883303 -3.27996826 153.12031555 C-2.59003784 151.79556213 -2.59003784 151.79556213 -1.88616943 150.44404602 C-1.46166 149.6154155 -1.03715057 148.78678497 -0.59977722 147.93304443 C0.90289307 145.14717102 0.90289307 145.14717102 2.45947266 142.7612915 C7.40337968 134.90953512 7.77225379 127.94223118 7.70758057 118.85420227 C7.71885638 117.41258545 7.73274813 115.97098696 7.74911499 114.52941895 C7.78486428 110.77282672 7.78556385 107.01705303 7.77844238 103.2603302 C7.77752352 99.41191851 7.81047194 95.56380399 7.84039307 91.7155304 C7.89398302 84.19263528 7.91047042 76.67027997 7.90289307 69.14717102 C7.0173877 69.16602356 6.13188232 69.1848761 5.21954346 69.20429993 C4.05415039 69.21896301 2.88875732 69.2336261 1.68804932 69.24873352 C0.53441895 69.26758606 -0.61921143 69.2864386 -1.80780029 69.30586243 C-6.30813352 69.08874548 -9.59110115 67.97097371 -13.09710693 65.14717102 C-16.47693705 60.90071779 -18.20144223 57.39777387 -18.27410889 51.98628235 C-18.29336174 50.73401604 -18.29336174 50.73401604 -18.31300354 49.45645142 C-18.32039047 48.5564592 -18.3277774 47.65646698 -18.33538818 46.72920227 C-18.34345993 45.79799057 -18.35153168 44.86677887 -18.35984802 43.90734863 C-18.37368057 41.93449256 -18.38440644 39.96161264 -18.39227295 37.98872375 C-18.4094429 34.98833588 -18.45333135 31.98906243 -18.49749756 28.9889679 C-18.50762879 27.0690541 -18.51614355 25.14913095 -18.52288818 23.22920227 C-18.54039627 22.33933121 -18.55790436 21.44946014 -18.57594299 20.53262329 C-18.55568083 14.64142533 -17.55252288 10.01708632 -14.09710693 5.14717102 C-9.45249101 1.4504359 -5.86937248 0.0273437 0 0 Z M0.90289307 20.14717102 C0.90289307 29.71717102 0.90289307 39.28717102 0.90289307 49.14717102 C38.19289307 49.14717102 75.48289307 49.14717102 113.90289307 49.14717102 C113.90289307 39.57717102 113.90289307 30.00717102 113.90289307 20.14717102 C76.61289307 20.14717102 39.32289307 20.14717102 0.90289307 20.14717102 Z M26.90289307 69.14717102 C27.01633057 73.91283508 27.12976807 78.67849915 27.24664307 83.58857727 C27.28297131 86.6834523 27.31432617 89.77691206 27.32867432 92.8717804 C27.35169624 97.7413788 27.38902462 102.60646387 27.53717041 107.47407532 C28.23209547 131.23984347 24.33842885 147.77691136 11.79272461 168.05647278 C9.2396625 172.23184206 6.99777801 176.53881854 4.77789307 180.89717102 C4.01961077 182.33840018 3.25944956 183.77864379 2.49664307 185.21748352 C-0.60536604 191.10276778 -3.68146692 197.00153037 -6.75036621 202.90412903 C-7.39534398 204.14401281 -8.04104897 205.38351859 -8.6875 206.62263489 C-9.58904304 208.35113308 -10.48767398 210.0811492 -11.38616943 211.81123352 C-11.90904541 212.81621887 -12.43192139 213.82120422 -12.97064209 214.85664368 C-14.17065895 216.87130735 -14.17065895 216.87130735 -14.09710693 218.14717102 C-13.55047897 218.15303726 -13.00385101 218.1589035 -12.44065857 218.16494751 C-6.64687846 218.22988767 -0.85360357 218.31453516 4.9397583 218.40962219 C7.08942925 218.44246728 9.2391781 218.47061849 11.38897705 218.49360657 C28.81121884 218.68479157 45.803999 219.64590247 62.46539307 225.14717102 C63.64198486 225.51842102 63.64198486 225.51842102 64.84234619 225.89717102 C66.40443752 226.39005769 67.96527786 226.88693009 69.52471924 227.38813782 C72.09090563 228.20717831 74.66224866 229.00596627 77.23883057 229.79170227 C78.03466553 230.03509338 78.83050049 230.2784845 79.65045166 230.5292511 C98.39070958 235.67032988 114.23902899 228.03160166 130.90289307 220.14717102 C125.52484917 209.33425385 120.06627473 198.5662861 114.52789307 187.83467102 C114.15916077 187.11927155 113.79042847 186.40387207 113.41052246 185.66679382 C108.72304898 176.57245735 104.02313128 167.48520361 99.21002197 158.45649719 C98.52957547 157.17547711 97.85896717 155.88917463 97.19911194 154.59742737 C96.24030775 152.7849896 95.22538606 151.00199123 94.18135071 149.23727417 C89.00982612 139.98809796 87.89128939 132.1646773 88.00054932 121.68623352 C87.9911371 120.15922434 87.97866275 118.63223132 87.96330261 117.10527039 C87.9314161 113.1365012 87.94039298 109.16890115 87.9586792 105.2000885 C87.9719211 100.41145458 87.93300064 95.62297895 87.90309906 90.8344574 C87.86365568 83.60471739 87.88935242 76.37787753 87.90289307 69.14717102 C67.77289307 69.14717102 47.64289307 69.14717102 26.90289307 69.14717102 Z M134.63336182 239.22920227 C115.78143572 248.54170306 115.78143572 248.54170306 105.90289307 250.14717102 C104.72726807 250.37404602 103.55164307 250.60092102 102.34039307 250.83467102 C88.53190128 252.08998846 75.47278427 250.00833233 62.52789307 245.20967102 C43.71577372 238.24437774 25.71918824 237.60902018 5.7845459 237.87251282 C2.29089277 237.91414687 -1.20288427 237.93185 -4.69671631 237.95185852 C-11.49713967 237.99418418 -18.29708767 238.06203867 -25.09710693 238.14717102 C-25.50314148 238.9308757 -25.90917603 239.71458038 -26.32751465 240.52203369 C-33.05163836 253.50014914 -39.78265388 266.47437602 -46.55072021 279.42964172 C-50.45695647 286.9106721 -54.34120209 294.4029739 -58.22210693 301.89717102 C-62.13489634 309.45206369 -66.06024572 316.99948144 -70.03460693 324.52217102 C-73.99003044 332.01354132 -77.90104692 339.52766661 -81.79611206 347.05055237 C-82.44086897 348.2957965 -83.08593496 349.54088066 -83.73135376 350.78578186 C-85.25288251 353.72133704 -86.76868821 356.659659 -88.27752686 359.60176086 C-89.53675468 362.05533747 -90.80503793 364.50261561 -92.08270264 366.94648743 C-92.72332748 368.18895357 -93.36355831 369.43162297 -94.00335693 370.67451477 C-94.57763428 371.77916077 -95.15191162 372.88380676 -95.74359131 374.02192688 C-98.30645498 379.93953471 -98.31218534 384.87255819 -96.08538818 390.87373352 C-92.58980421 397.66458147 -88.17673367 400.49113415 -81.09710693 403.14717102 C-77.19183355 403.80687278 -73.38628676 403.81607516 -69.43240356 403.76863098 C-68.29835984 403.7750198 -67.16431611 403.78140862 -65.99590743 403.78799105 C-62.21726366 403.80318294 -58.43967811 403.78281663 -54.66107178 403.7624054 C-51.94353205 403.76314292 -49.2260264 403.77137275 -46.50849915 403.77922058 C-39.90699806 403.79370693 -33.30580576 403.78155459 -26.70433401 403.76010734 C-19.01067152 403.73603375 -11.31707884 403.73781556 -3.62338705 403.74041325 C10.10614004 403.74409898 23.83552211 403.72331506 37.56500244 403.68916321 C50.87721419 403.65606178 64.1892738 403.64190763 77.50152588 403.64814758 C92.01262821 403.65491607 106.52366693 403.65243934 121.03475988 403.63278818 C121.80250387 403.6317487 122.57024787 403.63070921 123.36125683 403.62963822 C124.90306179 403.62754739 126.44486673 403.62543642 127.98667163 403.62330505 C133.345598 403.61641893 138.70450473 403.61573855 144.0634346 403.6171875 C150.59536007 403.61862919 157.12716175 403.60889999 163.65904619 403.58524114 C166.98973708 403.57340545 170.32011099 403.56784799 173.65084267 403.5720787 C177.26481122 403.5757936 180.87824955 403.56104454 184.49215698 403.5415802 C185.53982573 403.54690813 186.58749448 403.55223605 187.66691077 403.55772543 C194.38884835 403.49526463 200.42881889 402.90458942 205.89117432 398.56904602 C209.76688972 393.67581242 212.50493364 389.16029236 213.34039307 382.83467102 C212.18880141 373.12839852 206.50814137 364.23627002 202.02789307 355.70967102 C201.36311662 354.43599033 200.69881879 353.16205975 200.03497314 351.88789368 C198.66868697 349.26666156 197.30007758 346.64666281 195.92974854 344.02754211 C193.99590303 340.32883909 192.07407532 336.62401661 190.15679932 332.91670227 C184.7415101 322.44694714 179.30651089 311.98873469 173.80010986 301.56660461 C169.95870503 294.28201307 166.18142533 286.96448482 162.40289307 279.64717102 C158.04977996 271.21901398 153.69174109 262.79374703 149.27789307 254.39717102 C148.71231689 253.3191925 148.71231689 253.3191925 148.13531494 252.21943665 C145.4652876 247.15360098 142.70047565 242.14358085 139.90289307 237.14717102 C138.01036792 237.14717102 136.28789012 238.40035156 134.63336182 239.22920227 Z " fill="#000000" transform="translate(166.09710693359375,169.8528289794922)"/>
<path d="M0 0 C4.85388773 2.12142108 9.44521725 4.6671336 14.0625 7.25 C15.30201413 7.92710142 16.5422451 8.60289229 17.78320312 9.27734375 C21.20987202 11.14831651 24.60887457 13.06523475 28 15 C28.85190918 15.48146484 29.70381836 15.96292969 30.58154297 16.45898438 C34.21803047 18.60166548 36.42517354 20.06740912 38 24 C38.52861377 28.86324671 37.40611725 31.78929481 35 36 C35.71808838 36.27602051 36.43617676 36.55204102 37.17602539 36.83642578 C39.9323982 37.97214575 42.53877471 39.24314875 45.18359375 40.6171875 C46.18205322 41.13539062 47.1805127 41.65359375 48.20922852 42.1875 C49.27455811 42.744375 50.3398877 43.30125 51.4375 43.875 C53.10607056 44.74511719 53.10607056 44.74511719 54.80834961 45.6328125 C64.67480964 50.79578056 74.45237783 56.11254483 84.21240234 61.47314453 C89.09062403 64.14510095 93.98310904 66.79067786 98.875 69.4375 C99.87136475 69.97689209 100.86772949 70.51628418 101.89428711 71.07202148 C104.92935843 72.71498849 107.96464583 74.35755562 111 76 C122.63438204 82.29541867 134.26660636 88.59425932 145.875 94.9375 C153.90032173 99.32228229 161.9452726 103.66948867 170 108 C199.74875889 123.99929559 199.74875889 123.99929559 213.625 131.875 C217.90531793 134.30276926 222.20503337 136.64646522 226.625 138.8125 C268.53516459 159.3938977 268.53516459 159.3938977 274.26953125 173.25 C277.84685715 186.71757985 273.2441687 197.43374319 266.63500977 208.89038086 C266.09545654 209.81343018 265.55590332 210.73647949 265 211.6875 C259.77181828 220.75588353 254.82551069 229.92765977 250.13476562 239.28588867 C246.29033241 246.83133654 242.47345744 254.24475895 234.8125 258.4375 C233.55373047 259.14712891 233.55373047 259.14712891 232.26953125 259.87109375 C225.49935866 263.23870111 216.74316313 262.9989389 209.421875 261.45703125 C202.3375611 258.81899128 195.7255696 254.61519909 189.16015625 250.8984375 C183.5860486 247.74996886 177.9503783 244.71981955 172.3125 241.6875 C164.37781914 237.41241642 156.51124997 233.03700235 148.6875 228.5625 C139.27477224 223.18762544 129.70151543 218.1783591 120.05639648 213.23510742 C111.7225883 208.94460493 103.55637029 204.41487399 95.42407227 199.75610352 C87.89530513 195.46039681 80.25182679 191.42469175 72.55151367 187.4465332 C63.2302011 182.62461813 54.02923834 177.59464675 44.82861328 172.54736328 C39.89472541 169.84833157 34.94675042 167.17536056 30 164.5 C22.12191121 160.2348536 14.24458976 155.96831186 6.375 151.6875 C5.46838623 151.19548096 4.56177246 150.70346191 3.62768555 150.1965332 C-0.40826942 147.9976336 -4.42117666 145.77470594 -8.37890625 143.4375 C-9.03101074 143.05376221 -9.68311523 142.67002441 -10.35498047 142.2746582 C-12.04860073 141.2699032 -13.73369272 140.25081009 -15.41796875 139.23046875 C-18.02354002 137.62251785 -18.02354002 137.62251785 -21 139 C-21.474375 139.804375 -21.94875 140.60875 -22.4375 141.4375 C-24.18056133 144.29612059 -24.79646693 145.13418025 -28 146 C-36.01738325 145.88760678 -41.93478336 142.21831383 -48.8125 138.375 C-49.92431641 137.77042969 -51.03613281 137.16585937 -52.18164062 136.54296875 C-72.23051915 125.53896169 -72.23051915 125.53896169 -74 122 C-74.99151206 113.45575258 -72.01628447 108.23419023 -67.8125 100.9375 C-66.84650925 99.20613695 -65.88053792 97.47476247 -64.91609192 95.74253845 C-63.9274103 93.97248559 -62.93068747 92.20715567 -61.93261719 90.44238281 C-59.57801282 86.24835533 -57.29917981 82.01670848 -55.02709961 77.77758789 C-49.88293318 68.1821492 -44.57550408 58.69019488 -39.17138672 49.23925781 C-35.88509583 43.45105011 -32.7124796 37.61243805 -29.61328125 31.72265625 C-29.23624054 31.00701508 -28.85919983 30.2913739 -28.47073364 29.55404663 C-26.60690253 26.01215574 -24.75261516 22.46566919 -22.91113281 18.91210938 C-11.52898293 -2.90575998 -11.52898293 -2.90575998 0 0 Z M-2 22 C-7.60671856 31.78516735 -13.00070635 41.67680404 -18.3125 51.625 C-23.35198519 61.0628529 -28.42339812 70.48160898 -33.55712891 79.86865234 C-37.44990616 86.98713779 -41.32303978 94.1161023 -45.1875 101.25 C-45.75291504 102.29317383 -46.31833008 103.33634766 -46.90087891 104.41113281 C-47.42214355 105.37374023 -47.9434082 106.33634766 -48.48046875 107.328125 C-48.94348389 108.1830957 -49.40649902 109.03806641 -49.88354492 109.91894531 C-50.6079882 111.26929617 -51.31468759 112.62937518 -52 114 C-49.59087645 115.36936501 -47.17425815 116.72041993 -44.75 118.0625 C-43.72712891 118.64741211 -43.72712891 118.64741211 -42.68359375 119.24414062 C-42.01972656 119.60830078 -41.35585938 119.97246094 -40.671875 120.34765625 C-39.76066895 120.85824585 -39.76066895 120.85824585 -38.83105469 121.37915039 C-36.49676585 122.17062992 -35.27367402 121.88922847 -33 121 C-31.63779457 119.02081981 -31.63779457 119.02081981 -30.5625 116.375 C-27.71339086 110.32241491 -24.51985342 104.54958632 -21.1875 98.75 C-14.98544759 87.89233157 -9.10217755 76.8816398 -3.26660156 65.82470703 C1.59349956 56.61978199 6.52904407 47.46319627 11.59790039 38.37084961 C12.05156982 37.54979736 12.50523926 36.72874512 12.97265625 35.8828125 C13.36718994 35.17527832 13.76172363 34.46774414 14.16821289 33.73876953 C15.14384688 32.02054927 15.14384688 32.02054927 15 30 C12.54429825 28.66161267 10.08570084 27.32913768 7.625 26 C6.92632812 25.6184375 6.22765625 25.236875 5.5078125 24.84375 C1.9571054 22.74275256 1.9571054 22.74275256 -2 22 Z M25 53 C24.45811035 54.00861084 24.45811035 54.00861084 23.90527344 55.03759766 C12.40622337 76.43396655 0.83676565 97.78809696 -11 119 C-5.91302672 123.14494119 -1.49487239 124.24307111 5.01475525 124.62014771 C5.70899788 124.66269208 6.40324051 124.70523645 7.1185208 124.74907005 C9.43790629 124.88913186 11.75779875 125.01705729 14.07788086 125.14501953 C15.74378166 125.24311033 17.40963881 125.341945 19.07545471 125.44146729 C23.59565592 125.70935835 28.11640269 125.96670378 32.637326 126.2220788 C37.37009736 126.49111897 42.10231787 126.76952502 46.83460999 127.04684448 C54.78257096 127.51128545 62.7308711 127.96948596 70.67944336 128.42333984 C81.88315133 129.06307655 93.08615158 129.71459953 104.28905666 130.36822343 C112.05397275 130.82081145 119.81905484 131.27054077 127.58416677 131.7197547 C129.46556546 131.82861115 131.34695936 131.93755055 133.22834849 132.04657221 C138.59363594 132.35738657 143.95902002 132.66641698 149.32457542 132.97257233 C150.94916366 133.06551133 152.57371908 133.159026 154.19823837 133.25316238 C156.41815658 133.38167335 158.63818729 133.50802951 160.85826111 133.63381958 C162.09987472 133.70496538 163.34148832 133.77611118 164.62072659 133.84941292 C167.75299744 133.98899308 170.86520105 134.02809473 174 134 C170.33777651 130.88489662 166.53639742 128.51518883 162.28515625 126.3125 C161.64192917 125.97354706 160.99870209 125.63459412 160.33598328 125.28536987 C158.96074588 124.56131097 157.58426991 123.83960045 156.20666504 123.12005615 C152.56582585 121.21817628 148.93407856 119.29904829 145.30078125 117.3828125 C144.57929901 117.00295197 143.85781677 116.62309143 143.11447144 116.23171997 C137.29681217 113.16613155 131.5139706 110.04043677 125.75 106.875 C117.52731406 102.36515807 109.27101534 97.92040809 101 93.5 C91.67832385 88.51703057 82.37592529 83.50092148 73.10351562 78.42675781 C68.34147447 75.82114576 63.5740011 73.22631081 58.796875 70.6484375 C57.7538623 70.08552002 56.71084961 69.52260254 55.63623047 68.94262695 C53.57284439 67.82901527 51.50937025 66.71556673 49.44580078 65.60229492 C42.69680774 61.94998401 36.02311184 58.19246867 29.4140625 54.29296875 C27.16257842 52.84261925 27.16257842 52.84261925 25 53 Z M39 146 C41.76265841 148.17201293 44.52189495 149.89641624 47.6484375 151.49609375 C49.01512573 152.20064697 49.01512573 152.20064697 50.40942383 152.91943359 C51.38806396 153.42039551 52.3667041 153.92135742 53.375 154.4375 C62.15009516 158.97170175 70.85842363 163.6074863 79.51733398 168.359375 C85.53678354 171.66103428 91.57572539 174.92357344 97.62792969 178.16479492 C107.0052769 183.18758322 116.32627577 188.28442958 125.5625 193.5625 C134.50815929 198.66921916 143.58043333 203.48082929 152.73681641 208.19775391 C160.4126419 212.15658801 168.01373775 216.23397298 175.58398438 220.390625 C180.70338414 223.20127585 185.83188473 225.99368341 190.9765625 228.7578125 C191.56689774 229.07502762 192.15723297 229.39224274 192.76545715 229.71907043 C195.65445554 231.27079088 198.54445494 232.82062411 201.43530273 234.36889648 C202.47887939 234.92907471 203.52245605 235.48925293 204.59765625 236.06640625 C205.52070557 236.56084229 206.44375488 237.05527832 207.39477539 237.56469727 C209.18967957 238.5535682 210.96038824 239.58722612 212.70874023 240.65625 C215.05113155 242.02998701 216.3214257 242.43209965 219 242.4375 C219.9590625 242.46650391 219.9590625 242.46650391 220.9375 242.49609375 C224.97477231 241.52500742 227.21252123 239.23122968 229.42236328 235.77612305 C231.02936358 232.92102094 232.55518458 230.03395866 234.0625 227.125 C235.20648833 224.96325427 236.35103287 222.8018028 237.49609375 220.640625 C238.07472168 219.54041016 238.65334961 218.44019531 239.24951172 217.30664062 C241.98806978 212.13355409 244.8075829 207.00543058 247.625 201.875 C249.42767627 198.58916092 251.2212088 195.29882877 253 192 C253.60585938 190.87980469 254.21171875 189.75960937 254.8359375 188.60546875 C256.47017592 184.94762638 256.10938488 182.81351053 255 179 C251.35637007 174.73523893 247.4505228 172.33404137 242.546875 169.828125 C241.84604797 169.46023865 241.14522095 169.09235229 240.42315674 168.71331787 C238.20323134 167.55008711 235.97698627 166.39964551 233.75 165.25 C231.51016415 164.08349887 229.27170152 162.91441863 227.03399658 161.74383545 C225.64551649 161.01859986 224.25553926 160.29622209 222.86395264 159.57696533 C218.10852223 157.10852223 218.10852223 157.10852223 217 156 C214.84622599 155.7802972 212.68560282 155.62768023 210.52441406 155.50010681 C209.83978938 155.45841686 209.1551647 155.41672691 208.44979382 155.37377363 C206.13864852 155.23420648 203.82716356 155.10138884 201.515625 154.96850586 C199.86505311 154.87023288 198.21450528 154.77155501 196.5639801 154.67250061 C192.06589221 154.40378662 187.56747673 154.14097279 183.06897354 153.87931514 C178.36310428 153.60475391 173.6575245 153.32531516 168.9519043 153.04652405 C161.03957494 152.57849542 153.12703613 152.11414872 145.21435547 151.65209961 C136.07737296 151.11852781 126.94070296 150.57985086 117.8041935 150.03824323 C109.01418359 149.51724142 100.22399775 148.99927225 91.43371582 148.48288155 C87.69546381 148.26325958 83.95726903 148.04269764 80.21911621 147.82139397 C75.80672668 147.56035736 71.39418679 147.30202136 66.9815197 147.04572105 C65.36623814 146.95149272 63.75100783 146.8563809 62.13583565 146.76029587 C54.41880695 146.30176888 46.73372611 145.8742514 39 146 Z " fill="#000000" transform="translate(375,8)"/>
<path d="M0 0 C1.21108151 1.16344062 2.40099946 2.34955771 3.5625 3.5625 C4.04332031 4.0575 4.52414063 4.5525 5.01953125 5.0625 C12.57896628 13.46694741 15.07089012 23.72652306 14.80859375 34.8046875 C13.86289312 45.40253899 8.93468913 54.72459977 1.1875 61.9375 C-7.88028655 69.47120541 -17.35169234 72.09186681 -29.0625 71.875 C-39.69573235 70.89044145 -49.42473541 66.14670038 -56.6875 58.3125 C-63.76154966 49.37168724 -67.7678619 38.0289526 -66.4375 26.5625 C-64.35849821 14.97949001 -58.80923901 4.84262252 -49.4375 -2.4375 C-33.78976468 -11.78333583 -14.32300537 -12.14224703 0 0 Z M-43.4375 18.5625 C-46.63259043 23.96110107 -48.21917598 29.1572663 -47.10546875 35.3984375 C-44.89311778 42.56593714 -40.71788703 46.7244857 -34.4375 50.5625 C-28.55114627 52.52461791 -21.83514423 52.579486 -16.125 50 C-11.034279 47.04173708 -7.65707612 42.94862719 -5 37.75 C-3.84857198 31.22524124 -4.46346513 24.78142328 -8.14453125 19.16015625 C-13.07357789 13.069582 -18.01911128 10.25716522 -25.875 9.25 C-32.86418708 10.10233989 -38.90952631 13.11978415 -43.4375 18.5625 Z " fill="#000000" transform="translate(193.4375,25.4375)"/>
<path d="M0 0 C7.41521348 5.98225478 11.99684761 14.46928391 13.11328125 23.9375 C13.37939843 34.38259941 11.51517266 41.81746246 4.69140625 49.87109375 C-2.32456988 56.72302727 -10.12310876 59.62622332 -19.85546875 59.9921875 C-29.46833906 59.62814981 -36.34171084 56.36113965 -43.3125 49.78515625 C-49.89996819 42.15824534 -51.66131714 33.95510835 -51.5703125 24.13671875 C-50.87600078 15.01287605 -46.30114329 7.21734481 -39.703125 0.9921875 C-28.22977858 -8.0785052 -11.98751957 -7.88276415 0 0 Z M-31.23046875 20.8046875 C-32.62320758 24.32749748 -32.75525716 26.727839 -32.29296875 30.4921875 C-30.1770199 34.42180679 -28.05805739 37.11602849 -24.29296875 39.4921875 C-20.02450695 40.41451844 -15.94414404 40.46329239 -12.12109375 38.21484375 C-9.68413008 36.15550874 -7.72727875 34.36080749 -6.29296875 31.4921875 C-5.90065458 26.7844175 -5.81960117 24.42139053 -7.98046875 20.1796875 C-11.31775386 16.30122102 -13.55532149 14.71743807 -18.66796875 14.0546875 C-24.07411544 14.70715348 -27.65102948 16.53245354 -31.23046875 20.8046875 Z " fill="#000000" transform="translate(256.29296875,91.5078125)"/>
</svg>
