<?xml version="1.0" encoding="UTF-8"?>
<svg version="1.1" xmlns="http://www.w3.org/2000/svg" width="700" height="524">
<path d="M0 0 C1.55252472 -0.00810448 1.55252472 -0.00810448 3.13641357 -0.01637268 C6.54362949 -0.02883812 9.94999692 -0.01238382 13.35717773 0.00561523 C15.7317662 0.00546021 18.10635491 0.00397063 20.48094177 0.00120544 C25.4514386 -0.00017754 30.42164651 0.01236408 35.39208984 0.03515625 C41.75986301 0.06355563 48.12715683 0.0607978 54.49496555 0.04806614 C59.39605293 0.04110837 64.2970297 0.04889919 69.19810295 0.06132317 C71.54602573 0.06583559 73.89396039 0.0661763 76.24188423 0.06225777 C79.52348266 0.05934429 82.80442236 0.07585944 86.0859375 0.09765625 C87.05389755 0.0931546 88.0218576 0.08865295 89.01914978 0.08401489 C94.98173485 0.14974749 99.5689575 0.78588856 104.12280273 5.03686523 C108.88579728 11.26539656 109.21277074 15.70785579 108.47827148 23.50170898 C106.31889511 27.98041555 103.5487421 30.68369087 99.47827148 33.50170898 C94.05191983 35.31049287 88.14712586 34.55371682 82.47827148 34.50170898 C82.47827148 40.77170898 82.47827148 47.04170898 82.47827148 53.50170898 C84.01985428 53.49282654 85.56143707 53.48394409 87.1497345 53.47479248 C101.70054988 53.39359231 116.25128161 53.33344788 130.80226612 53.2944603 C138.28249559 53.27388288 145.76255531 53.24585529 153.24267578 53.19995117 C159.7665113 53.15993487 166.2902238 53.13424118 172.81417865 53.12535501 C176.26485764 53.12016508 179.71518487 53.10806945 183.1657505 53.07878876 C187.02885891 53.0462768 190.89163115 53.04575901 194.75488281 53.04760742 C195.88417709 53.03322632 197.01347137 53.01884521 198.17698669 53.00402832 C210.39198642 53.06698332 220.66682808 57.19527314 229.63842773 65.50170898 C236.88488234 73.08678297 241.57770354 82.29894173 241.6254425 92.87524414 C241.63617546 94.51086052 241.63617546 94.51086052 241.64712524 96.17951965 C241.64981415 97.37123276 241.65250305 98.56294586 241.65527344 99.79077148 C241.66184464 101.04979782 241.66841583 102.30882416 241.67518616 103.60600281 C241.69618875 107.77955866 241.70658919 111.95311469 241.71655273 116.12670898 C241.72060257 117.56773904 241.72471956 119.00876891 241.72890282 120.44979858 C241.74795098 127.2254536 241.76217935 134.00109778 241.77051479 140.77677441 C241.78026766 148.57433272 241.80653735 156.37160568 241.84701568 164.16906357 C241.8772888 170.21004844 241.89199445 176.25095208 241.8952958 182.29201126 C241.89763475 185.89298431 241.90644199 189.49365243 241.93175697 193.09454346 C241.9596152 197.12237126 241.95517262 201.14957186 241.94824219 205.17749023 C241.96745728 206.94076912 241.96745728 206.94076912 241.98706055 208.7396698 C241.92711608 218.34769478 240.27094667 228.1969457 233.79077148 235.68920898 C233.1887793 236.40463867 232.58678711 237.12006836 231.96655273 237.85717773 C231.15438377 238.75461379 230.33413651 239.64584395 229.47827148 240.50170898 C237.72827148 240.50170898 245.97827148 240.50170898 254.47827148 240.50170898 C253.81827148 237.53170898 253.15827148 234.56170898 252.47827148 231.50170898 C252.22379589 228.26422119 252.22379589 228.26422119 252.21757507 225.2409668 C252.21049026 224.080448 252.20340546 222.9199292 252.19610596 221.72424316 C252.19858337 220.48033813 252.20106079 219.23643311 252.20361328 217.95483398 C252.19925786 216.60851765 252.19407197 215.2622038 252.18812561 213.91589355 C252.17481582 210.28367835 252.17414776 206.6515677 252.17668891 203.01933289 C252.17776376 199.97767944 252.17286235 196.93604671 252.16808349 193.89439774 C252.15701678 186.71530842 252.15653535 179.53627144 252.16259766 172.35717773 C252.1686402 164.96977056 252.15631287 157.58255371 252.13502759 150.19517899 C252.11737576 143.83311379 252.11141573 137.471109 252.11466533 131.10902023 C252.11647209 127.3177039 252.11390268 123.52652347 252.09995079 119.73522949 C252.0873179 116.16953199 252.08936761 112.60413018 252.10236168 109.03843689 C252.10583039 107.11867491 252.09459083 105.19890367 252.08279419 103.2791748 C252.1341053 94.78974669 252.80271015 86.68912971 258.72827148 80.12670898 C259.26967773 79.50022461 259.81108398 78.87374023 260.36889648 78.22827148 C265.29004891 74.20021709 270.19432913 73.12629047 276.43237305 73.09765625 C277.08872238 73.090793 277.74507172 73.08392975 278.42131042 73.07685852 C280.57073196 73.05870072 282.7194154 73.06241356 284.86889648 73.06811523 C286.37953932 73.06354643 287.89018008 73.05823879 289.40081787 73.05223083 C292.56132466 73.04332006 295.72157853 73.04569747 298.88208008 73.05566406 C302.90440704 73.06712079 306.92585174 73.04698347 310.9480629 73.01774693 C314.06764144 72.99926871 317.18701337 72.9997008 320.306633 73.00538445 C321.78799421 73.00553641 323.26937057 72.99959691 324.75067902 72.98709297 C342.97901067 72.85493982 354.11770623 78.94091469 367.0133667 91.54301453 C368.31857269 92.84321281 368.31857269 92.84321281 369.65014648 94.16967773 C370.5761969 95.08574295 371.50224731 96.00180817 372.45635986 96.94563293 C374.40109788 98.87256632 376.33970012 100.80543624 378.2746582 102.7421875 C380.7291994 105.19703367 383.20376316 107.63055685 385.68409348 110.05930614 C388.08230698 112.41574831 390.45845531 114.79403298 392.83764648 117.16967773 C394.15499786 118.45469429 394.15499786 118.45469429 395.4989624 119.76567078 C403.65537793 128.01298976 409.5749642 137.33083944 409.6254425 149.15444946 C409.63617546 150.88274994 409.63617546 150.88274994 409.64712524 152.64596558 C409.64981415 153.90627594 409.65250305 155.1665863 409.65527344 156.46508789 C409.66154174 157.80904311 409.66818887 159.15299662 409.67518616 160.49694824 C409.69619015 164.90737714 409.706587 169.31780622 409.71655273 173.72827148 C409.72060204 175.24983106 409.72471902 176.77139046 409.72890282 178.29294968 C409.74794862 185.44449168 409.76217938 192.59602342 409.77051479 199.74758589 C409.78027698 207.98606105 409.80657225 216.22426679 409.84701568 224.46264708 C409.87724531 230.84075281 409.89199024 237.21878162 409.8952958 243.59695756 C409.89763901 247.40130416 409.90650337 251.20536276 409.93175697 255.00963211 C409.95516236 258.59336298 409.95922155 262.17661879 409.94899559 265.76040649 C409.94826987 267.68840628 409.96727431 269.61638261 409.98706055 271.54428101 C409.92531886 281.93962816 407.70343852 290.06470216 400.47045898 297.74780273 C394.65056483 302.8715919 387.27689041 306.50170898 379.47827148 306.50170898 C379.52467773 307.21713867 379.57108398 307.93256836 379.61889648 308.66967773 C380.11708283 322.42317947 375.70069271 335.03639924 366.29077148 345.18920898 C355.51295385 355.25326386 343.09000581 359.8950341 328.47436523 359.71655273 C313.90609071 358.67189159 302.21819651 352.19623615 292.47827148 341.50170898 C284.17713121 330.29743769 282.47827148 320.2910632 282.47827148 306.50170898 C253.76827148 306.50170898 225.05827148 306.50170898 195.47827148 306.50170898 C195.47827148 310.46170898 195.47827148 314.42170898 195.47827148 318.50170898 C193.87148009 330.80634838 187.83641357 342.30961128 178.33374023 350.30639648 C167.20103271 358.68740085 154.34309521 362.6896575 140.47827148 361.50170898 C136.00210684 360.50643274 131.76455512 359.12247763 127.47827148 357.50170898 C126.73706055 357.22456055 125.99584961 356.94741211 125.23217773 356.66186523 C113.8284812 351.68278647 105.79635905 341.42785924 101.16577148 330.18920898 C97.92710831 321.70309157 98.47827148 316.72748894 98.47827148 306.50170898 C88.24827148 306.50170898 78.01827148 306.50170898 67.47827148 306.50170898 C67.14827148 311.12170898 66.81827148 315.74170898 66.47827148 320.50170898 C62.78209156 334.32815983 55.80289326 345.09572613 43.54077148 352.81420898 C31.98270075 359.35785518 19.42333168 361.25598663 6.41577148 358.37670898 C-7.29529959 354.5670798 -17.13944082 346.53210375 -24.52172852 334.50170898 C-28.81826134 325.78165222 -32.11345347 316.17671762 -29.52172852 306.50170898 C-30.14104248 306.52265625 -30.76035645 306.54360352 -31.3984375 306.56518555 C-34.25186394 306.64922719 -37.10502888 306.70064343 -39.95922852 306.75170898 C-40.93311523 306.78522461 -41.90700195 306.81874023 -42.91040039 306.85327148 C-52.26572436 306.97842632 -60.63798876 304.02314665 -67.52172852 297.50170898 C-75.071812 288.1075959 -76.49945664 279.42009108 -75.52172852 267.50170898 C-73.59438594 258.88060177 -68.37050227 251.92812575 -61.08422852 247.00170898 C-60.23860352 246.50670898 -59.39297852 246.01170898 -58.52172852 245.50170898 C-59.20235352 244.88295898 -59.88297852 244.26420898 -60.58422852 243.62670898 C-68.88562655 235.27800954 -74.61516203 225.04302305 -74.66889954 213.1214447 C-74.67605484 212.02958862 -74.68321014 210.93773254 -74.69058228 209.81278992 C-74.69461563 208.02286369 -74.69461563 208.02286369 -74.69873047 206.19677734 C-74.70530167 204.93614471 -74.71187286 203.67551208 -74.71864319 202.37667847 C-74.73964399 198.19831608 -74.750045 194.01995351 -74.76000977 189.84155273 C-74.76405945 188.39926192 -74.76817644 186.95697129 -74.77235985 185.51468086 C-74.79140641 178.73422249 -74.80563597 171.95377493 -74.81397182 165.17329496 C-74.82372871 157.36723682 -74.85000966 149.56146341 -74.89047271 141.7555055 C-74.92072836 135.70944075 -74.93544978 129.66345715 -74.93875283 123.61731821 C-74.94109346 120.01246493 -74.94992321 116.40791597 -74.975214 112.80314445 C-75.00303404 108.77271795 -74.99863492 104.74291905 -74.99169922 100.71240234 C-75.00450928 99.53328781 -75.01731934 98.35417328 -75.03051758 97.139328 C-74.95297467 84.72594041 -70.91377887 74.52915202 -62.55688477 65.34155273 C-55.66913655 58.67799886 -45.82222831 53.36081123 -36.05029297 53.38818359 C-34.6992321 53.38829689 -34.6992321 53.38829689 -33.32087708 53.38841248 C-32.35204086 53.39357376 -31.38320465 53.39873505 -30.38500977 53.40405273 C-28.893144 53.40617516 -28.893144 53.40617516 -27.37113953 53.40834045 C-24.19213869 53.41394138 -21.01320809 53.42649403 -17.83422852 53.43920898 C-15.67993266 53.44422387 -13.5256357 53.44878679 -11.37133789 53.45288086 C-6.08810767 53.46391111 -0.80493001 53.48117636 4.47827148 53.50170898 C4.47827148 47.23170898 4.47827148 40.96170898 4.47827148 34.50170898 C2.47764648 34.56358398 0.47702148 34.62545898 -1.58422852 34.68920898 C-8.81669521 34.6735033 -12.77058677 33.88603183 -18.33422852 29.06420898 C-22.23256741 24.49758342 -23.03669863 21.03450526 -22.89672852 15.10327148 C-22.28096685 10.83142491 -20.55571827 7.55570307 -17.52172852 4.50170898 C-11.62156238 0.34556976 -7.1124178 -0.07118758 0 0 Z M-12.52172852 15.50170898 C-12.40831317 17.91048156 -12.40831317 17.91048156 -11.52172852 20.50170898 C-7.04289647 24.27264585 -2.50361265 23.92739973 3.05444336 23.88989258 C4.01274551 23.89514954 4.97104767 23.90040649 5.95838928 23.90582275 C9.1214332 23.9190106 12.28397257 23.91028878 15.44702148 23.90014648 C17.64750261 23.90216756 19.84798308 23.90507928 22.04846191 23.90884399 C26.65843081 23.91326571 31.26822522 23.90684105 35.87817383 23.89282227 C41.78648517 23.87573064 47.69438767 23.88557261 53.60268402 23.90353966 C58.14600707 23.91438151 62.68923323 23.91092927 67.2325592 23.90315628 C69.41105701 23.90115539 71.58956362 23.90360963 73.76805115 23.91059494 C76.81297092 23.91821583 79.85722909 23.90659582 82.90209961 23.88989258 C84.25193687 23.89900162 84.25193687 23.89900162 85.62904358 23.90829468 C90.86228702 23.85512643 94.58937694 23.39060353 98.47827148 19.50170898 C98.89544427 17.08633061 98.89544427 17.08633061 98.47827148 14.50170898 C96.70293756 12.43960291 95.19462953 11.6020963 92.49525642 11.22381783 C89.90590019 11.10215651 87.33246676 11.08512933 84.74023438 11.09765625 C83.75281754 11.090793 82.7654007 11.08392975 81.74806213 11.07685852 C78.48220462 11.05854874 75.21682559 11.0624341 71.95092773 11.06811523 C69.68175601 11.06355541 67.41258568 11.05825044 65.14341736 11.05223083 C60.38624463 11.04329147 55.6292397 11.04573229 50.87207031 11.05566406 C44.77420363 11.06715393 38.676916 11.04694567 32.5791254 11.01774693 C27.89253557 10.99940528 23.20608502 10.99967337 18.51946831 11.00538445 C16.27118556 11.00553791 14.02289352 10.99947268 11.77464485 10.98709297 C8.63129425 10.9722239 5.48901993 10.98283075 2.34570312 11 C1.41618835 10.99033203 0.48667358 10.98066406 -0.4710083 10.97070312 C-5.76874103 11.03132971 -8.67117926 11.47663818 -12.52172852 15.50170898 Z M14.47827148 34.50170898 C14.47827148 40.77170898 14.47827148 47.04170898 14.47827148 53.50170898 C33.28827148 53.50170898 52.09827148 53.50170898 71.47827148 53.50170898 C71.47827148 47.23170898 71.47827148 40.96170898 71.47827148 34.50170898 C52.66827148 34.50170898 33.85827148 34.50170898 14.47827148 34.50170898 Z M-57.31469727 75.61108398 C-63.48116421 84.44207368 -64.9675801 92.04550105 -64.90991211 102.6340332 C-64.91516907 103.82858124 -64.92042603 105.02312927 -64.92584229 106.25387573 C-64.93673777 109.51029306 -64.9342478 112.76634092 -64.92470503 116.02275229 C-64.9170659 119.44536154 -64.9241661 122.86794755 -64.92886353 126.29055786 C-64.93431025 132.0385577 -64.92715959 137.78644162 -64.9128418 143.53442383 C-64.89653284 150.15780061 -64.90179525 156.78090004 -64.91832101 163.40427005 C-64.93198553 169.11157075 -64.93383095 174.81878849 -64.92600501 180.52610028 C-64.92135363 183.92565835 -64.92063274 187.3250866 -64.93061447 190.72463608 C-64.93826954 194.52014398 -64.92656632 198.3151267 -64.90991211 202.1105957 C-64.9159848 203.22156616 -64.9220575 204.33253662 -64.92831421 205.47717285 C-64.83802033 216.63695829 -62.51180132 225.45005566 -54.52172852 233.50170898 C-46.59100431 239.94283629 -39.58680738 241.80252913 -29.52838135 241.76913452 C-28.52575658 241.77366563 -27.5231318 241.77819675 -26.49012446 241.78286517 C-23.13244816 241.79551944 -19.77493384 241.79388811 -16.41723633 241.79223633 C-14.00895987 241.79822096 -11.60068534 241.80502635 -9.19241333 241.81259155 C-3.33041862 241.82843031 2.53153815 241.83470028 8.39354989 241.83581631 C13.1606802 241.83676775 17.92779728 241.84088284 22.6949234 241.84721756 C36.22185659 241.86482571 49.74875808 241.87405721 63.2757028 241.87255661 C64.00448406 241.8724767 64.73326532 241.87239679 65.48413086 241.87231445 C66.21380598 241.87223269 66.9434811 241.87215093 67.69526759 241.87206669 C79.51546218 241.87125413 91.33552923 241.89038533 103.15568694 241.91859119 C115.30356757 241.94734941 127.45138606 241.96112984 139.59930158 241.95940363 C146.41497767 241.9587407 153.23052011 241.96419042 160.04616547 241.98575974 C166.45824097 242.00592236 172.87010742 242.00526778 179.28219986 241.99072647 C181.6323424 241.98863696 183.98250258 241.99334767 186.3326149 242.00544739 C189.54773636 242.02092524 192.76188857 242.01157407 195.97698975 241.9961853 C196.90094189 242.00647243 197.82489404 242.01675956 198.77684474 242.02735841 C207.46283282 241.93585935 215.44719637 239.34130631 221.88061523 233.33374023 C230.08484806 223.92595247 231.78010955 214.73370142 231.75292969 202.66650391 C231.75804062 201.49160904 231.76315155 200.31671417 231.76841736 199.10621643 C231.78229011 195.23148469 231.78135812 191.35693132 231.77905273 187.48217773 C231.78136398 185.46404051 231.78486795 183.44590765 231.78845948 181.42777234 C231.79953436 175.08480541 231.80000395 168.7418977 231.79394531 162.39892578 C231.78791126 155.87725894 231.80020658 149.35580815 231.82151538 142.83417815 C231.83919022 137.21607892 231.84512338 131.59804809 231.84187764 125.97992212 C231.84007343 122.63283967 231.84394669 119.28603363 231.85659218 115.93895531 C231.8689809 112.20083542 231.86214936 108.46321011 231.85058594 104.72509766 C231.85822968 103.63125763 231.86587341 102.5374176 231.87374878 101.41043091 C231.79967908 90.53218186 229.49772163 82.21830499 222.22827148 73.93920898 C213.68607973 66.36772084 205.72085502 64.1947104 194.50979614 64.24101257 C193.52194559 64.23718703 192.53409504 64.23336148 191.51630962 64.22942001 C188.21467597 64.21912242 184.91321728 64.22307604 181.61157227 64.22705078 C179.24093465 64.22270252 176.87029843 64.21751899 174.49966431 64.21156311 C168.06577958 64.19817413 161.6319536 64.19759435 155.19805765 64.20012641 C151.1775455 64.20141068 147.15704219 64.19878635 143.13653183 64.19513893 C142.46844135 64.19454374 141.80035086 64.19394855 141.11201521 64.19333533 C139.75464353 64.19212354 138.39727185 64.1909094 137.03990017 64.18969295 C124.3189442 64.17882404 111.59801476 64.18097679 98.8770573 64.1870778 C87.25026786 64.19224597 75.62356222 64.180993 63.99678935 64.16197958 C52.04663522 64.14258776 40.09652071 64.13434756 28.14635074 64.13810283 C21.44196883 64.14001289 14.73766878 64.13728061 8.03329849 64.12338829 C1.727921 64.11081161 -4.5772888 64.11275275 -10.88266373 64.12579918 C-13.19452216 64.12816484 -15.5063924 64.12543066 -17.8182373 64.11717606 C-20.97878099 64.10670635 -24.13876221 64.11481152 -27.29928589 64.12748718 C-28.20990497 64.1201129 -29.12052404 64.11273861 -30.05873764 64.10514086 C-40.37564418 64.1919382 -50.4618113 67.5488652 -57.31469727 75.61108398 Z M265.47827148 88.50170898 C263.33228403 91.76144541 263.22141641 94.4805711 263.20411682 98.33322144 C263.19414169 99.52485901 263.18416656 100.71649658 263.17388916 101.94424438 C263.17322449 103.24824188 263.17255981 104.55223938 263.171875 105.89575195 C263.16425186 107.28560837 263.1558241 108.67546056 263.14665222 110.06530762 C263.1247163 113.83808872 263.11590964 117.61078879 263.11082578 121.38362646 C263.10718133 123.74157133 263.10094083 126.09949501 263.09382439 128.45743179 C263.06933367 136.68590476 263.05627868 144.91431472 263.05273438 153.14282227 C263.0490987 160.80919102 263.01920038 168.47515953 262.97732979 176.14140594 C262.94262584 182.72667781 262.92718593 189.31181703 262.92648834 195.89717972 C262.92569559 199.82887684 262.91695856 203.76016613 262.88849068 207.69176865 C262.86230749 211.39048807 262.86010539 215.08846161 262.87614632 218.78723145 C262.87882418 220.7875741 262.85677918 222.78790224 262.83395386 224.78811646 C262.73048276 232.03231674 262.73048276 232.03231674 265.89073181 238.29251099 C269.45047418 241.33175935 271.03289533 241.62641323 275.61611938 241.6219635 C277.24838219 241.6240255 277.24838219 241.6240255 278.91362 241.62612915 C280.71220207 241.62073624 280.71220207 241.62073624 282.54711914 241.61523438 C283.8056218 241.6153804 285.06412445 241.61552643 286.36076355 241.61567688 C289.81716065 241.61596446 293.27352323 241.61007407 296.72991228 241.60310292 C300.34007118 241.59686286 303.95023082 241.59626507 307.56039429 241.59507751 C314.39915862 241.59196613 321.23790702 241.58375533 328.07666433 241.57372802 C337.31617888 241.56047393 346.55569777 241.55506542 355.79521942 241.54922581 C370.35624872 241.53981532 384.91724438 241.51989511 399.47827148 241.50170898 C399.47827148 220.71170898 399.47827148 199.92170898 399.47827148 178.50170898 C390.89891602 178.46303711 390.89891602 178.46303711 382.14624023 178.42358398 C378.50492049 178.39839299 374.86368195 178.37204279 371.22241211 178.34155273 C365.45328552 178.29335442 359.68434713 178.24925859 353.91503906 178.23071289 C349.25934176 178.21547692 344.60413954 178.18090951 339.94866371 178.13339996 C338.17987708 178.11865736 336.41101973 178.11067209 334.64217186 178.10982513 C322.1318439 178.09781959 310.69628979 177.72051373 301.19702148 168.45483398 C288.42981442 153.94664414 292.23549682 129.93234645 292.35327148 112.00170898 C292.36447567 109.32853527 292.37244435 106.65536385 292.38061523 103.98217773 C292.40246059 97.48860715 292.43577195 90.99517554 292.47827148 84.50170898 C289.29108706 84.38441699 286.10446581 84.31410133 282.91577148 84.25170898 C282.02051758 84.21819336 281.12526367 84.18467773 280.20288086 84.15014648 C274.0673519 84.06024862 270.42866807 84.78078014 265.47827148 88.50170898 Z M302.47827148 84.50170898 C302.38532447 93.09920273 302.31438215 101.69648427 302.2710228 110.2943573 C302.25020556 114.28732127 302.22199659 118.27993985 302.17651367 122.27270508 C302.13284459 126.1306698 302.10909034 129.98830365 302.09876251 133.84649658 C302.09140867 135.31363122 302.0770486 136.78074908 302.05535126 138.2477417 C301.92811484 147.21221577 301.8224755 154.70707217 308.44311523 161.52514648 C309.41958008 162.19416992 309.41958008 162.19416992 310.41577148 162.87670898 C311.38836914 163.56893555 311.38836914 163.56893555 312.38061523 164.27514648 C317.38616211 167.20203982 321.65328071 167.78525699 327.38964844 167.72875977 C328.17066422 167.72905182 328.95167999 167.72934387 329.75636292 167.72964478 C332.32654094 167.72825634 334.89642563 167.71271819 337.46655273 167.69702148 C339.25302472 167.69328962 341.03949875 167.69044347 342.82597351 167.68844604 C347.51955858 167.68082323 352.21301916 167.66118635 356.90655518 167.63903809 C361.69932369 167.61855053 366.49211239 167.60943811 371.28491211 167.59936523 C380.68275316 167.57793918 390.08050195 167.54381955 399.47827148 167.50170898 C399.50709396 164.62793851 399.52810294 161.75446111 399.54467773 158.88061523 C399.55358032 158.07289673 399.56248291 157.26517822 399.57165527 156.4329834 C399.63628096 141.47403706 393.82720664 133.85033658 383.66064453 123.51220703 C379.06259313 118.88026466 374.45979663 114.30563121 369.50561523 110.05249023 C364.28749818 105.54903527 359.57513614 100.55061373 354.83374023 95.55444336 C348.95888617 89.53459746 342.69422282 84.66834707 333.92480469 84.38818359 C332.4595445 84.38834158 330.99427825 84.39397079 329.52905273 84.40405273 C328.37012764 84.40617516 328.37012764 84.40617516 327.18778992 84.40834045 C324.72207759 84.41393432 322.25645633 84.42648566 319.79077148 84.43920898 C318.11824675 84.44422478 316.4457206 84.44878755 314.77319336 84.45288086 C310.67485102 84.46390174 306.57657669 84.48116214 302.47827148 84.50170898 Z M-61.33422852 262.78686523 C-64.76595933 267.74255546 -65.39927955 272.60157863 -64.52172852 278.50170898 C-62.32141198 285.59399141 -58.92485059 289.63771224 -52.60766602 293.44311523 C-49.22509683 295.15973743 -46.59094892 295.62316899 -42.85375977 295.59936523 C-41.96108398 295.59614258 -41.0684082 295.59291992 -40.14868164 295.58959961 C-38.75552734 295.57703125 -38.75552734 295.57703125 -37.33422852 295.56420898 C-36.39385742 295.55969727 -35.45348633 295.55518555 -34.48461914 295.55053711 C-32.16359139 295.53875524 -29.84269207 295.52230457 -27.52172852 295.50170898 C-27.13243164 294.60709961 -26.74313477 293.71249023 -26.34204102 292.79077148 C-19.93322026 278.67883405 -11.03341186 270.24277864 3.47827148 264.50170898 C15.37023448 260.70784954 28.09404509 261.74708184 39.43530273 266.82592773 C52.40237941 273.58441777 58.71671423 282.05807538 64.47827148 295.50170898 C76.35827148 295.50170898 88.23827148 295.50170898 100.47827148 295.50170898 C102.78827148 291.21170898 105.09827148 286.92170898 107.47827148 282.50170898 C116.03382462 271.71427242 125.04936099 265.99557889 138.35327148 262.81420898 C152.40506509 261.40902962 165.6409417 263.88026753 177.11108398 272.47436523 C184.93085734 279.09199433 188.95161085 286.44838772 193.47827148 295.50170898 C223.83827148 295.50170898 254.19827148 295.50170898 285.47827148 295.50170898 C288.94327148 288.57170898 288.94327148 288.57170898 292.47827148 281.50170898 C300.66231828 271.68085284 310.53082563 265.50717099 323.10327148 262.68920898 C324.21702148 262.62733398 325.33077148 262.56545898 326.47827148 262.50170898 C327.20014648 262.45143555 327.92202148 262.40116211 328.66577148 262.34936523 C341.28396055 261.84382881 353.13419454 265.54987412 362.95092773 273.50561523 C368.60110452 278.77848472 372.15169589 284.57588767 375.47827148 291.50170898 C376.14404134 292.83549035 376.81036249 294.16899754 377.47827148 295.50170898 C383.92841383 295.15616564 388.5464646 293.81177098 393.47827148 289.50170898 C397.67596906 284.17146429 399.61053594 279.55780723 399.57592773 272.73999023 C399.57109375 271.06259766 399.57109375 271.06259766 399.56616211 269.35131836 C399.5577832 268.18407227 399.5494043 267.01682617 399.54077148 265.81420898 C399.53400391 264.0459375 399.53400391 264.0459375 399.52709961 262.24194336 C399.51530422 259.3284811 399.49884419 256.41512035 399.47827148 253.50170898 C342.54191059 253.41018813 285.605557 253.33968788 228.66913703 253.29744767 C221.94991609 253.29245832 215.23069532 253.2872721 208.51147461 253.28198242 C207.84283116 253.28145939 207.1741877 253.28093635 206.48528232 253.28039746 C184.81236761 253.26335188 163.13949461 253.23330651 141.46660516 253.1965201 C118.56365684 253.15771646 95.66072515 253.13372472 72.75774336 253.12535501 C59.03672527 253.11986182 45.31582694 253.10250119 31.59484571 253.07004312 C22.19062246 253.04892757 12.78646128 253.04250224 3.38221604 253.04770347 C-2.04657156 253.05026984 -7.47514964 253.04628786 -12.90390015 253.02488708 C-17.87343262 253.0054394 -22.84261441 253.00442753 -27.81216294 253.0181134 C-29.61041617 253.01980519 -31.40869118 253.01471599 -33.20690149 253.00217625 C-35.65195027 252.98611658 -38.09573426 252.99477837 -40.54076385 253.00951767 C-41.58735983 252.99375559 -41.58735983 252.99375559 -42.65509915 252.97767508 C-50.64669981 253.08649575 -56.53827608 256.62250246 -61.33422852 262.78686523 Z M-1.52172852 278.50170898 C-2.19719727 278.86264648 -2.87266602 279.22358398 -3.56860352 279.59545898 C-11.61152729 284.57780114 -16.5808381 293.97325941 -19.20922852 302.81420898 C-20.44162123 313.41278633 -19.10232278 323.95160888 -12.77172852 332.87670898 C-11.7233366 334.11548053 -10.63899564 335.32468106 -9.52172852 336.50170898 C-8.6593457 337.4240332 -8.6593457 337.4240332 -7.77954102 338.36499023 C-0.47287209 345.4442732 7.90549405 348.75520662 18.04077148 349.06420898 C29.07289443 348.63643279 38.22109102 344.87268439 46.47827148 337.50170898 C54.70740255 328.14126612 57.37307468 318.80270208 56.88061523 306.50561523 C56.15485491 296.99385922 51.59286583 289.47901702 45.08764648 282.70092773 C35.36693218 274.50817002 24.8066042 272.60330815 12.52172852 273.27075195 C7.3795725 273.85193231 2.95431543 276.03027368 -1.52172852 278.50170898 Z M120.16577148 283.25170898 C111.81803933 292.17282072 108.38136579 302.40234056 108.47827148 314.50170898 C110.00556175 324.98635023 114.92947457 335.03610266 123.47827148 341.50170898 C134.21593456 347.74420864 144.04727605 350.61763745 156.52514648 347.81811523 C165.56364121 344.74145248 174.26800508 339.71731746 179.47827148 331.50170898 C184.94286753 320.36518804 186.7373393 311.03086776 183.83374023 298.78295898 C180.61621736 289.49768748 173.34721162 281.84814415 165.08374023 276.68530273 C149.91083674 269.79266442 132.40375261 271.74709002 120.16577148 283.25170898 Z M301.47045898 286.86108398 C294.06408709 296.83954318 292.12100446 306.0814353 293.47827148 318.50170898 C296.38430499 329.15716517 301.84885895 337.44341266 311.23999023 343.25170898 C321.02326394 348.71531734 331.64193447 350.26179656 342.60327148 347.43920898 C354.50063204 343.36503246 362.08963618 334.88774685 367.49780273 323.93139648 C371.12957032 314.93155809 370.37946111 304.93163683 366.73217773 296.09936523 C361.97528805 286.24474954 355.58517612 279.43125061 345.41577148 275.06420898 C329.39333086 269.87320788 312.44155425 273.96897982 301.47045898 286.86108398 Z " fill="#000000" transform="translate(182.521728515625,120.498291015625)"/>
<path d="M0 0 C14.33203916 10.94808547 24.03179622 26.02261766 27.76953125 43.73046875 C29.35443931 55.69307913 29.33249201 68.7087772 25.21875 80.12109375 C24.8784375 81.11109375 24.538125 82.10109375 24.1875 83.12109375 C21.32781975 90.69538197 17.23581409 96.80737294 12.21875 103.12109375 C11.56519531 103.971875 10.91164063 104.82265625 10.23828125 105.69921875 C0.18766237 117.7521853 -16.03662326 124.68352971 -31.09375 127.80859375 C-52.15245992 129.59323018 -72.00834397 124.69531297 -88.375 110.94140625 C-103.62336485 96.58723564 -111.42287454 78.12709233 -112.09375 57.24609375 C-111.69533985 38.37141307 -104.51013848 21.1953777 -91.65625 7.43359375 C-66.05303593 -16.92932622 -29.18649509 -19.71728109 0 0 Z M-89.05078125 20.59375 C-91.34820571 23.94913064 -93.24372119 27.44061075 -95.09375 31.05859375 C-95.43164551 31.71472656 -95.76954102 32.37085938 -96.11767578 33.046875 C-102.77444461 46.6907232 -102.84878967 63.65578229 -98.1015625 77.9140625 C-91.4691202 94.02422559 -80.79012549 105.0581884 -65.09375 112.43359375 C-49.12058119 119.02569517 -31.74988448 118.23736747 -15.88671875 111.66796875 C-1.10652839 104.30576072 9.76947691 92.05639497 15.44140625 76.57421875 C20.45637633 60.74808201 19.04856094 44.07131978 11.53125 29.24609375 C8.14155494 23.5538028 3.88075855 18.79963425 -0.78125 14.12109375 C-1.32265625 13.55648437 -1.8640625 12.991875 -2.421875 12.41015625 C-12.77872714 2.52407012 -27.6915446 -1.7125271 -41.65625 -2.31640625 C-60.02637162 -1.77610856 -77.25881971 6.44899803 -89.05078125 20.59375 Z " fill="#000000" transform="translate(315.78125,221.87890625)"/>
<path d="M0 0 C0.75023437 0.04382813 1.50046875 0.08765625 2.2734375 0.1328125 C9.78482556 2.50351637 12.92234356 11.40460521 16.3125 17.8125 C16.89322266 18.88435547 17.47394531 19.95621094 18.07226562 21.06054688 C23.10212472 30.45155547 25.9921524 38.07205466 24.625 48.875 C22.04962826 56.87569528 18.10718748 62.86720016 10.625 66.875 C4.1047959 69.97317645 -3.30750043 70.08456073 -10.19921875 68.03515625 C-17.23681295 64.83429028 -22.50658817 60.30777571 -25.5390625 53.11328125 C-29.27831077 40.67621634 -25.20078103 30.23347736 -19.46240234 19.17163086 C-18.48973148 17.29266368 -17.54630694 15.40093455 -16.60546875 13.50585938 C-9.38975407 -0.73707967 -9.38975407 -0.73707967 0 0 Z M-2.375 10.875 C-4.33797379 14.43496182 -6.29455438 17.99839831 -8.25 21.5625 C-8.80558594 22.56990234 -9.36117188 23.57730469 -9.93359375 24.61523438 C-10.73603516 26.07993164 -10.73603516 26.07993164 -11.5546875 27.57421875 C-12.04694824 28.46971436 -12.53920898 29.36520996 -13.04638672 30.2878418 C-16.21275147 36.45358366 -17.86863896 42.04430691 -15.7578125 48.87109375 C-13.69266064 53.12018938 -10.90302053 55.41782912 -6.58984375 57.28125 C-1.30096942 58.69907874 3.08260959 57.60254265 7.9375 55.3125 C11.28516033 52.27624993 13.61109975 49.32916868 14.625 44.875 C14.64185139 36.34819664 11.09234539 30.17153273 7.0625 22.8125 C6.13920898 21.08483398 6.13920898 21.08483398 5.19726562 19.32226562 C3.686155 16.49918298 2.16194518 13.68407564 0.625 10.875 C-0.365 10.875 -1.355 10.875 -2.375 10.875 Z " fill="#000000" transform="translate(275.375,245.125)"/>
<path d="M0 0 C6.50888593 5.75522545 9.39461804 12.87021792 9.9921875 21.45703125 C10.01700711 29.53581302 7.34968246 35.94461475 2 42 C-3.84392987 46.97265305 -9.69339821 49.60124057 -17.375 50.3125 C-26.04551696 49.56504164 -33.19396522 46.17328568 -39.1875 39.8125 C-44.05429871 33.80883755 -45.58037208 27.1106052 -45.2734375 19.47265625 C-44.31286622 10.7863474 -40.6152306 4.72097066 -34 -1 C-31.09777189 -2.75292646 -28.22377818 -3.9691407 -25 -5 C-24.195625 -5.268125 -23.39125 -5.53625 -22.5625 -5.8125 C-14.11471822 -6.43063037 -7.07215888 -4.73920146 0 0 Z M-30 10 C-33.06092234 13.86593556 -34.89898627 18.05032743 -35 23 C-33.44473695 29.96427526 -29.92626932 34.04915379 -24 38 C-18.3698228 39.12603544 -14.43351278 39.2554204 -9 37 C-5.07884864 33.70266818 -1.42704832 30.15313759 -0.71484375 24.89453125 C-0.52095621 19.86188509 -1.09861628 16.25536279 -4 12 C-8.17892089 7.88794184 -11.31087089 5.84150821 -17.1875 5.6875 C-22.76062756 5.7604467 -25.62840412 6.52056654 -30 10 Z " fill="#000000" transform="translate(347,409)"/>
<path d="M0 0 C5.31543994 4.87248661 8.40212211 10.16184063 9.05078125 17.4140625 C9.27810215 26.48296989 7.87814451 33.81797812 1.5625 40.625 C-4.32732329 45.98398084 -10.57419357 48.39513027 -18.4375 49 C-27.14280361 48.41964643 -34.09988437 45.03817661 -40.1875 38.75 C-45.3950674 31.24862316 -46.95040811 23.69650478 -45.625 14.75 C-43.87106874 7.31887021 -40.05434619 1.7741608 -33.875 -2.6875 C-22.61583181 -9.47694815 -10.15687606 -8.35787218 0 0 Z M-32.5 11.3125 C-35.44917987 15.57242647 -35.70537585 19.70550565 -35.1875 24.75 C-33.45026272 29.6721723 -30.69857692 33.11608145 -26.1875 35.75 C-20.54505069 38.08773794 -15.87135536 38.11035806 -10.19921875 35.86328125 C-5.94144896 33.50703972 -3.90310208 30.2462589 -1.8125 25.875 C-0.73066677 20.46583387 -1.34715365 16.4306927 -3.8125 11.5 C-7.39864684 7.34761945 -10.48195409 5.13538299 -15.875 4.3671875 C-23.38862261 4.06092571 -27.39227624 5.65258989 -32.5 11.3125 Z " fill="#000000" transform="translate(532.1875,410.25)"/>
<path d="M0 0 C5.96205357 4.06503652 9.07953007 9.10938685 11 16 C11.78264154 24.35424344 12.05714702 32.02347374 7 39 C5.948125 40.5778125 5.948125 40.5778125 4.875 42.1875 C0.00688507 47.73806095 -7.9128037 50.6730243 -15.125 51.25 C-24.93060146 50.61738055 -31.40578213 47.32092759 -38 40 C-43.27292836 32.77521418 -43.58356675 25.69738903 -43 17 C-41.77402829 9.95066264 -37.2693866 4.63122559 -32 0 C-21.60833456 -6.20092823 -10.33375946 -6.62964933 0 0 Z M-30.9375 14.3125 C-33.01805154 19.57507154 -33.50610543 23.34109887 -31.875 28.6875 C-29.29069584 33.25310402 -26.34073285 36.1061781 -22 39 C-16.06905455 40.54204582 -11.3432116 39.87040043 -6 37 C-1.41144735 32.93831665 0.84223684 29.40588813 1.25 23.1875 C1.16354161 18.46687187 -0.02275221 14.95088449 -3.46484375 11.5546875 C-8.50300303 7.24330426 -11.60644018 6.59267727 -18.1015625 6.65234375 C-23.67046901 7.32031232 -27.40068384 10.09113878 -30.9375 14.3125 Z " fill="#000000" transform="translate(217,408)"/>
<path d="M0 0 C1.02075623 -0.00287018 1.02075623 -0.00287018 2.06213379 -0.00579834 C3.50122446 -0.00715963 4.94032744 -0.00346705 6.37939453 0.00488281 C8.58524087 0.01558372 10.79027281 0.00498628 12.99609375 -0.0078125 C14.39323097 -0.00649089 15.79036768 -0.00392848 17.1875 0 C18.46302734 0.00225586 19.73855469 0.00451172 21.05273438 0.00683594 C24.09375 0.265625 24.09375 0.265625 26.09375 2.265625 C26.6452992 7.45018752 26.6452992 7.45018752 24.96655273 9.93212891 C22.24741937 11.86823977 20.12967615 11.65415736 16.81640625 11.6640625 C15.58083984 11.66792969 14.34527344 11.67179687 13.07226562 11.67578125 C11.77998047 11.66417969 10.48769531 11.65257812 9.15625 11.640625 C7.22362305 11.65802734 7.22362305 11.65802734 5.25195312 11.67578125 C3.39666992 11.66998047 3.39666992 11.66998047 1.50390625 11.6640625 C0.37090088 11.66067871 -0.76210449 11.65729492 -1.92944336 11.65380859 C-5.20533832 11.22662308 -6.61467814 10.61890761 -8.90625 8.265625 C-9.28125 5.203125 -9.28125 5.203125 -8.90625 2.265625 C-6.03758116 -0.60304384 -4.00969387 0.00709142 0 0 Z " fill="#000000" transform="translate(482.90625,315.734375)"/>
</svg>
