<?xml version="1.0" encoding="UTF-8"?>
<!DOCTYPE svg PUBLIC "-//W3C//DTD SVG 1.1//EN" "http://www.w3.org/Graphics/SVG/1.1/DTD/svg11.dtd">
<svg xmlns="http://www.w3.org/2000/svg" version="1.1" width="540px" height="426px" style="shape-rendering:geometricPrecision; text-rendering:geometricPrecision; image-rendering:optimizeQuality; fill-rule:evenodd; clip-rule:evenodd" xmlns:xlink="http://www.w3.org/1999/xlink">
<g><path style="opacity:0.913" fill="#000000" d="M 139.5,100.5 C 177.168,100.333 214.835,100.5 252.5,101C 254.667,101.833 256.167,103.333 257,105.5C 257.5,112.158 257.666,118.825 257.5,125.5C 280.502,125.333 303.502,125.5 326.5,126C 333.963,127.794 340.796,130.96 347,135.5C 347.333,131.833 347.667,128.167 348,124.5C 349.167,122 351,120.167 353.5,119C 380.882,118.035 408.216,118.368 435.5,120C 439.274,121.302 442.441,123.469 445,126.5C 463,155.167 481,183.833 499,212.5C 499.667,255.167 499.667,297.833 499,340.5C 498.315,343.057 496.815,344.891 494.5,346C 483.152,346.168 471.819,346.668 460.5,347.5C 455.969,374.032 440.302,388.366 413.5,390.5C 386.733,387.732 371.399,373.065 367.5,346.5C 329.167,346.5 290.833,346.5 252.5,346.5C 248.572,373.259 233.072,387.926 206,390.5C 189.729,389.662 177.062,382.662 168,369.5C 153.337,388.507 134.503,394.34 111.5,387C 94.6835,379.174 85.1835,366.007 83,347.5C 79.9243,346.712 76.7577,346.212 73.5,346C 72.3333,344.833 71.1667,343.667 70,342.5C 69.8331,320.492 69.3331,298.492 68.5,276.5C 53.6385,269.802 44.4718,258.469 41,242.5C 40.3333,215.833 40.3333,189.167 41,162.5C 45.9455,142.554 58.4455,130.388 78.5,126C 97.1637,125.5 115.83,125.333 134.5,125.5C 134.334,118.825 134.5,112.158 135,105.5C 136.025,103.313 137.525,101.646 139.5,100.5 Z M 150.5,116.5 C 180.833,116.5 211.167,116.5 241.5,116.5C 241.5,119.5 241.5,122.5 241.5,125.5C 211.167,125.5 180.833,125.5 150.5,125.5C 150.5,122.5 150.5,119.5 150.5,116.5 Z M 363.5,134.5 C 369.5,134.5 375.5,134.5 381.5,134.5C 381.333,156.169 381.5,177.836 382,199.5C 383.167,200.667 384.333,201.833 385.5,203C 415.167,203.333 444.833,203.667 474.5,204C 479.547,209.259 482.547,215.426 483.5,222.5C 474.392,222.057 465.392,222.557 456.5,224C 454.951,225.214 453.785,226.714 453,228.5C 452.333,240.833 452.333,253.167 453,265.5C 457.244,280.887 467.41,287.887 483.5,286.5C 483.5,289.167 483.5,291.833 483.5,294.5C 443.5,294.5 403.5,294.5 363.5,294.5C 363.5,241.167 363.5,187.833 363.5,134.5 Z M 397.5,134.5 C 408.505,134.333 419.505,134.5 430.5,135C 442.082,152.162 453.415,169.496 464.5,187C 442.169,187.5 419.836,187.667 397.5,187.5C 397.5,169.833 397.5,152.167 397.5,134.5 Z M 79.5,141.5 C 92.8333,141.5 106.167,141.5 119.5,141.5C 119.5,182.167 119.5,222.833 119.5,263.5C 104.783,263.913 90.1165,263.413 75.5,262C 67.6667,258.167 61.8333,252.333 58,244.5C 56.8785,230.544 56.3785,216.544 56.5,202.5C 56.3785,188.456 56.8785,174.456 58,160.5C 62.5846,151.073 69.7512,144.739 79.5,141.5 Z M 135.5,141.5 C 176.167,141.5 216.833,141.5 257.5,141.5C 257.5,145.167 257.5,148.833 257.5,152.5C 216.833,152.5 176.167,152.5 135.5,152.5C 135.5,148.833 135.5,145.167 135.5,141.5 Z M 273.5,141.5 C 290.503,141.333 307.503,141.5 324.5,142C 334.424,144.922 341.591,151.088 346,160.5C 347.122,174.456 347.622,188.456 347.5,202.5C 347.622,216.544 347.122,230.544 346,244.5C 341.47,254.371 333.97,260.537 323.5,263C 306.837,263.5 290.17,263.667 273.5,263.5C 273.5,222.833 273.5,182.167 273.5,141.5 Z M 135.5,168.5 C 153.836,168.333 172.17,168.5 190.5,169C 181.874,183.752 173.374,198.585 165,213.5C 158.042,234.302 164.208,249.802 183.5,260C 204.493,265.898 219.66,259.064 229,239.5C 231,231.833 231,224.167 229,216.5C 220.547,200.425 211.714,184.591 202.5,169C 220.83,168.5 239.164,168.333 257.5,168.5C 257.5,200.167 257.5,231.833 257.5,263.5C 216.833,263.5 176.167,263.5 135.5,263.5C 135.5,231.833 135.5,200.167 135.5,168.5 Z M 195.5,191.5 C 196.376,191.369 197.043,191.702 197.5,192.5C 203.201,202.373 208.701,212.373 214,222.5C 215.203,240.962 206.703,248.462 188.5,245C 179.41,239.643 176.243,231.809 179,221.5C 184.764,211.638 190.264,201.638 195.5,191.5 Z M 468.5,238.5 C 473.334,239.808 478.167,239.808 483,238.5C 483.5,249.161 483.667,259.828 483.5,270.5C 478.235,271.429 473.735,270.096 470,266.5C 468.583,257.248 468.083,247.915 468.5,238.5 Z M 346.5,268.5 C 347.493,276.984 347.826,285.651 347.5,294.5C 343.167,294.5 338.833,294.5 334.5,294.5C 334.171,288.463 334.504,282.463 335.5,276.5C 339.766,274.546 343.433,271.879 346.5,268.5 Z M 84.5,279.5 C 119.167,279.5 153.833,279.5 188.5,279.5C 188.5,284.5 188.5,289.5 188.5,294.5C 153.833,294.5 119.167,294.5 84.5,294.5C 84.5,289.5 84.5,284.5 84.5,279.5 Z M 204.5,279.5 C 242.5,279.5 280.5,279.5 318.5,279.5C 318.5,284.5 318.5,289.5 318.5,294.5C 280.5,294.5 242.5,294.5 204.5,294.5C 204.5,289.5 204.5,284.5 204.5,279.5 Z M 84.5,310.5 C 88.1817,310.335 91.8484,310.501 95.5,311C 91.1063,316.286 87.6063,322.119 85,328.5C 84.5005,322.509 84.3338,316.509 84.5,310.5 Z M 162.5,311.5 C 165.976,310.357 169.642,310.19 173.5,311C 171.291,312.873 169.458,315.04 168,317.5C 166.383,315.237 164.55,313.237 162.5,311.5 Z M 239.5,311.5 C 286.332,310.335 333.332,310.168 380.5,311C 375.435,316.29 371.769,322.457 369.5,329.5C 329.839,330.5 290.172,330.833 250.5,330.5C 248.63,323.089 244.963,316.755 239.5,311.5 Z M 447.5,310.5 C 459.5,310.5 471.5,310.5 483.5,310.5C 483.5,317.167 483.5,323.833 483.5,330.5C 475.14,330.831 466.807,330.498 458.5,329.5C 455.581,322.653 451.915,316.32 447.5,310.5 Z M 120.5,313.5 C 143.458,310.81 156.458,320.81 159.5,343.5C 156.476,366.343 143.476,376.177 120.5,373C 99.9061,363.556 94.0728,348.389 103,327.5C 107.347,320.771 113.18,316.105 120.5,313.5 Z M 197.5,313.5 C 214.774,310.719 227.274,317.053 235,332.5C 239.953,352.095 233.12,365.595 214.5,373C 196.318,376.291 183.818,369.458 177,352.5C 173.32,333.856 180.153,320.856 197.5,313.5 Z M 405.5,313.5 C 425.182,310.705 438.015,318.705 444,337.5C 445.888,354.9 438.722,366.733 422.5,373C 405.216,376.274 392.716,370.108 385,354.5C 380.184,334.798 387.018,321.131 405.5,313.5 Z M 125.5,335.5 C 132.304,334.221 136.304,336.888 137.5,343.5C 137.096,348.737 134.263,351.403 129,351.5C 126.739,351.561 124.739,350.894 123,349.5C 120.425,344.034 121.258,339.367 125.5,335.5 Z M 202.5,335.5 C 209.304,334.221 213.304,336.888 214.5,343.5C 213.303,350.273 209.303,352.773 202.5,351C 197.208,345.835 197.208,340.668 202.5,335.5 Z M 410.5,335.5 C 421.204,335.396 424.204,340.229 419.5,350C 410.059,353.544 405.559,350.377 406,340.5C 407.025,338.313 408.525,336.646 410.5,335.5 Z"/></g>
<g><path style="opacity:0.849" fill="#000000" d="M 296.5,152.5 C 305.833,152.5 315.167,152.5 324.5,152.5C 324.805,157.762 324.471,162.928 323.5,168C 314.506,168.5 305.506,168.666 296.5,168.5C 296.5,163.167 296.5,157.833 296.5,152.5 Z"/></g>
<g><path style="opacity:0.847" fill="#000000" d="M 296.5,178.5 C 305.833,178.5 315.167,178.5 324.5,178.5C 324.5,183.833 324.5,189.167 324.5,194.5C 315.167,194.5 305.833,194.5 296.5,194.5C 296.5,189.167 296.5,183.833 296.5,178.5 Z"/></g>
<g><path style="opacity:0.845" fill="#000000" d="M 296.5,206.5 C 305.833,206.5 315.167,206.5 324.5,206.5C 324.5,211.833 324.5,217.167 324.5,222.5C 315.167,222.5 305.833,222.5 296.5,222.5C 296.5,217.167 296.5,211.833 296.5,206.5 Z"/></g>
<g><path style="opacity:0.868" fill="#000000" d="M 386.5,218.5 C 397.5,218.5 408.5,218.5 419.5,218.5C 419.5,223.833 419.5,229.167 419.5,234.5C 408.5,234.5 397.5,234.5 386.5,234.5C 386.5,229.167 386.5,223.833 386.5,218.5 Z"/></g>
<g><path style="opacity:0.848" fill="#000000" d="M 296.5,233.5 C 305.833,233.5 315.167,233.5 324.5,233.5C 324.5,238.833 324.5,244.167 324.5,249.5C 315.167,249.5 305.833,249.5 296.5,249.5C 296.5,244.167 296.5,238.833 296.5,233.5 Z"/></g>
<g><path style="opacity:0.904" fill="#000000" d="M 122.5,319.5 C 140.446,317.788 150.779,325.788 153.5,343.5C 150.828,361.33 140.495,369.163 122.5,367C 106.327,359.817 101.494,347.983 108,331.5C 111.541,325.78 116.374,321.78 122.5,319.5 Z M 125.5,335.5 C 121.258,339.367 120.425,344.034 123,349.5C 124.739,350.894 126.739,351.561 129,351.5C 134.263,351.403 137.096,348.737 137.5,343.5C 136.304,336.888 132.304,334.221 125.5,335.5 Z"/></g>
<g><path style="opacity:0.899" fill="#000000" d="M 199.5,319.5 C 217.595,317.694 227.929,325.694 230.5,343.5C 229.91,355.525 223.91,363.359 212.5,367C 194.605,369.283 184.272,361.45 181.5,343.5C 182.688,331.753 188.688,323.753 199.5,319.5 Z M 202.5,335.5 C 197.208,340.668 197.208,345.835 202.5,351C 209.303,352.773 213.303,350.273 214.5,343.5C 213.304,336.888 209.304,334.221 202.5,335.5 Z"/></g>
<g><path style="opacity:0.901" fill="#000000" d="M 407.5,319.5 C 425.402,317.737 435.736,325.737 438.5,343.5C 435.251,363.253 423.918,370.753 404.5,366C 391.394,359.28 386.894,348.78 391,334.5C 394.822,327.504 400.322,322.504 407.5,319.5 Z M 410.5,335.5 C 408.525,336.646 407.025,338.313 406,340.5C 405.559,350.377 410.059,353.544 419.5,350C 424.204,340.229 421.204,335.396 410.5,335.5 Z"/></g>
</svg>
