<?xml version="1.0" encoding="UTF-8"?>
<svg version="1.1" xmlns="http://www.w3.org/2000/svg" width="1040" height="841">
<path d="M0 0 C3.26378763 2.94323705 6.03489143 5.8150386 8.625 9.3671875 C8.625 10.0271875 8.625 10.6871875 8.625 11.3671875 C9.8625 11.5528125 9.8625 11.5528125 11.125 11.7421875 C25.76150443 14.35584901 38.39845259 20.38380174 48.625 31.3671875 C49.31851562 32.10324219 50.01203125 32.83929688 50.7265625 33.59765625 C63.52257183 48.34518052 68.78374809 65.98762706 67.78027344 85.24853516 C66.49290384 102.81424793 56.41013294 120.27124996 43.75 132.1796875 C33.48717326 140.95173666 23.26884561 146.02737358 9.625 145.3671875 C9.625 144.3771875 9.625 143.3871875 9.625 142.3671875 C10.23907715 142.05080322 10.8531543 141.73441895 11.48583984 141.40844727 C27.86898726 133.20914746 27.86898726 133.20914746 41.625 121.3671875 C42.36878906 120.531875 43.11257813 119.6965625 43.87890625 118.8359375 C47.73362522 114.25716577 50.65637678 110.02697926 52.625 104.3671875 C52.20089844 104.9240625 51.77679687 105.4809375 51.33984375 106.0546875 C49.4543172 108.50794402 47.5434883 110.93963497 45.625 113.3671875 C45.10808594 114.03621094 44.59117187 114.70523438 44.05859375 115.39453125 C38.14274123 122.64478659 30.31515584 129.74642636 21.4375 133.04296875 C13.79227109 135.72505172 13.79227109 135.72505172 8.46435547 141.47314453 C6.50926692 146.71657607 5.46626144 152.17403578 4.30419922 157.63525391 C-0.78421021 178.10229257 -14.43381899 195.1996989 -28.375 210.3671875 C-27.8903125 210.92664063 -27.405625 211.48609375 -26.90625 212.0625 C-17.06370882 223.83569348 -6.69539584 239.47697422 -6.90625 255.34375 C-7.47796544 257.81165497 -8.45732756 258.765727 -10.375 260.3671875 C-8.37492203 264.89367974 -5.19986529 268.35302521 -2.0546875 272.125 C-0.375 274.3671875 -0.375 274.3671875 -0.375 276.3671875 C1.275 276.3671875 2.925 276.3671875 4.625 276.3671875 C4.955 275.3771875 5.285 274.3871875 5.625 273.3671875 C13.14554831 271.69968497 19.81437895 273.58094544 26.45947266 277.4296875 C30.70247023 280.16608901 34.67712396 283.22575684 38.625 286.3671875 C39.41003906 286.96789062 40.19507813 287.56859375 41.00390625 288.1875 C57.61786004 301.64772871 65.12307207 324.25373528 69.625 344.3671875 C69.90601563 345.59308594 70.18703125 346.81898438 70.4765625 348.08203125 C74.95013183 368.72057739 72.28028736 389.00904848 66.4453125 409.12890625 C65.72081772 411.98893566 65.44297227 414.37702489 65.375 417.3046875 C64.38080594 431.50745983 51.57776514 449.02408638 41.625 458.3671875 C33.12011209 465.63955273 24.44599023 472.06772371 13.625 475.3671875 C12.85671875 475.60824219 12.0884375 475.84929687 11.296875 476.09765625 C-18.93075323 483.75737837 -58.21416382 469.71925076 -83.98803711 454.57397461 C-85.22857856 453.8344791 -86.46782822 453.0928108 -87.70556641 452.34863281 C-89.98450876 451.00886267 -92.33437352 449.82077746 -94.6875 448.6171875 C-109.22835436 440.67984896 -122.18926947 430.50912039 -134.375 419.3671875 C-135.4709645 418.38107717 -136.56731061 417.39539077 -137.6640625 416.41015625 C-142.2677817 412.24017127 -146.77763829 408.0275644 -151.0625 403.52734375 C-157.60246533 396.68540446 -163.34613894 391.23942712 -171.98828125 387.09375 C-182.03610193 381.97133161 -191.25180432 374.75997747 -199.828125 367.49609375 C-201.59306539 366.02079849 -203.39893775 364.5936389 -205.234375 363.20703125 C-206.60335937 362.17255859 -206.60335937 362.17255859 -208 361.1171875 C-209.22589844 360.21226562 -209.22589844 360.21226562 -210.4765625 359.2890625 C-212.72611147 357.01174132 -213.06111988 355.50598872 -213.375 352.3671875 C-208.76658808 352.86070774 -206.18240155 353.87667577 -202.5625 356.7421875 C-197.69114857 360.44254099 -192.69986166 363.85815088 -187.5625 367.1796875 C-186.84537842 367.64745605 -186.12825684 368.11522461 -185.3894043 368.59716797 C-181.48636102 371.11435134 -177.58295847 373.37881152 -173.375 375.3671875 C-176.10551889 369.33729162 -179.48891573 364.26408621 -183.47265625 358.98046875 C-185.28568792 356.48987699 -186.98372741 354.11780183 -188.375 351.3671875 C-188.045 350.3771875 -187.715 349.3871875 -187.375 348.3671875 C-178.28936058 356.00738428 -169.55902227 363.81162556 -161.734375 372.75 C-156.31138763 378.76556546 -150.42639532 384.35969715 -144.66015625 390.04296875 C-142.375 392.3671875 -142.375 392.3671875 -140.0625 395.2421875 C-137.57598642 398.27190866 -134.77021795 400.7310846 -131.7890625 403.265625 C-129.43354692 405.31621947 -127.15674007 407.43750739 -124.88500977 409.58007812 C-117.72341171 416.31285719 -110.23874692 422.47373637 -102.375 428.3671875 C-101.80136719 428.79773438 -101.22773437 429.22828125 -100.63671875 429.671875 C-91.90425255 436.1768724 -82.87017214 442.03729272 -73.375 447.3671875 C-72.77026855 447.70991699 -72.16553711 448.05264648 -71.54248047 448.40576172 C-59.47290749 455.14189262 -46.59799383 459.46120829 -33.375 463.3671875 C-32.6648877 463.57778809 -31.95477539 463.78838867 -31.22314453 464.00537109 C-16.13542471 468.26732788 4.28607071 469.432141 18.625 462.3671875 C30.79861002 455.51731364 39.07496141 445.53292569 45.625 433.3671875 C45.96418457 432.738125 46.30336914 432.1090625 46.65283203 431.4609375 C59.69902774 406.73020826 67.36824392 375.13973622 59.8828125 347.640625 C56.62878154 338.108906 50.23078115 333.95681026 41.5 329.5546875 C37.27403377 327.49817609 33.11263629 325.76531127 28.625 324.3671875 C28.63853516 325.35332031 28.63853516 325.35332031 28.65234375 326.359375 C28.20528729 340.70405615 21.17035709 353.88092581 14.625 366.3671875 C13.53851455 368.55312362 12.45515178 370.74061475 11.375 372.9296875 C9.90690181 375.90140239 8.46632614 378.60519829 6.625 381.3671875 C5.635 381.3671875 4.645 381.3671875 3.625 381.3671875 C2.7259809 372.49737793 5.34475978 365.43885838 8.5 357.2421875 C15.1938692 339.44812063 17.16565203 328.34056341 9.625 310.3671875 C4.90829509 300.13093429 -0.83967044 290.53838802 -7.375 281.3671875 C-7.90222656 280.56925781 -8.42945313 279.77132813 -8.97265625 278.94921875 C-13.83142303 272.01323964 -20.28029926 267.74367759 -27.375 263.3671875 C-28.17679688 262.8721875 -28.97859375 262.3771875 -29.8046875 261.8671875 C-43.07803049 254.5186239 -59.99181919 250.65390161 -74.8984375 254.20703125 C-79.25412009 255.60443547 -83.29832978 257.30729411 -87.375 259.3671875 C-86.65961361 261.76223164 -85.94215882 264.15662813 -85.22216797 266.55029297 C-84.70031226 268.28550081 -84.18062999 270.02136616 -83.66455078 271.75830078 C-71.73692476 311.41323811 -48.87715732 355.73555651 -12.03125 377.4921875 C1.21406332 384.57006003 16.09174841 388.04398877 30.625 391.3671875 C30.295 392.6871875 29.965 394.0071875 29.625 395.3671875 C11.47657044 399.65174956 -5.86579203 393.64810079 -21.375 384.3671875 C-53.08219796 363.87892398 -69.15455734 329.01030505 -85.36206055 296.37451172 C-88.76965089 289.5272596 -92.29605866 282.74980294 -95.88500977 275.99609375 C-98.31965666 271.40635333 -100.66020337 266.78695437 -102.9375 262.1171875 C-114.21348516 239.4861799 -128.87895804 216.67179892 -153.8671875 208.09375 C-172.39957342 202.72455408 -190.76730222 209.19315168 -207.375 217.3671875 C-208.00116211 217.67140625 -208.62732422 217.975625 -209.27246094 218.2890625 C-227.04132035 227.02087056 -242.48145132 238.95260853 -257.0546875 252.26953125 C-259.0620432 254.08426191 -261.11067609 255.82110437 -263.1875 257.5546875 C-272.10602708 265.33583157 -279.84915351 274.56117238 -287.25 283.7578125 C-289.49078774 286.50936803 -291.78281243 289.20140823 -294.125 291.8671875 C-294.82109375 292.66125 -295.5171875 293.4553125 -296.234375 294.2734375 C-298.375 296.3671875 -298.375 296.3671875 -301.078125 297.8984375 C-303.46237059 299.15464056 -303.46237059 299.15464056 -304.35546875 301.24609375 C-304.39769139 305.83147248 -300.83164061 309.68222658 -298.375 313.3671875 C-297.776875 314.3159375 -297.17875 315.2646875 -296.5625 316.2421875 C-293.33957374 319.37303015 -289.53154463 320.77739799 -285.375 322.3671875 C-285.808125 321.33980469 -286.24125 320.31242187 -286.6875 319.25390625 C-293.43721507 302.6920683 -293.43721507 302.6920683 -291.375 295.3671875 C-289.35565317 293.29446587 -288.21767347 292.39411504 -285.296875 292.30078125 C-275.13667116 294.65809473 -269.04065847 300.86358994 -263.375 309.3671875 C-258.54899234 317.79664593 -255.60288298 326.44023308 -252.9375 335.7421875 C-249.48580697 347.41964445 -245.997626 358.66773825 -238.375 368.3671875 C-237.79492188 368.17382812 -237.21484375 367.98046875 -236.6171875 367.78125 C-232.203125 366.30989583 -227.7890625 364.83854167 -223.375 363.3671875 C-224.85613281 363.49287109 -224.85613281 363.49287109 -226.3671875 363.62109375 C-227.64851562 363.72292969 -228.92984375 363.82476563 -230.25 363.9296875 C-231.52617187 364.03410156 -232.80234375 364.13851563 -234.1171875 364.24609375 C-237.375 364.3671875 -237.375 364.3671875 -239.375 363.3671875 C-239.375 361.3871875 -239.375 359.4071875 -239.375 357.3671875 C-232.79026627 353.44436741 -227.1251969 350.93298736 -219.375 352.3671875 C-215.53793545 354.24489994 -214.10546822 356.45434479 -212.5625 360.3046875 C-208.00499751 376.41310148 -213.60293914 393.54834753 -221.3125 407.71875 C-221.99689547 408.93664563 -222.68420064 410.15291275 -223.375 411.3671875 C-223.931875 412.36492187 -224.48875 413.36265625 -225.0625 414.390625 C-229.55681995 421.9315753 -235.2546044 428.13667983 -241.375 434.3671875 C-241.93574219 434.96402344 -242.49648438 435.56085938 -243.07421875 436.17578125 C-251.0590793 443.90915013 -265.4338578 450.62631382 -276.5 450.6796875 C-282.4021059 450.52789355 -284.95022255 448.8250993 -289.0625 444.6171875 C-293.82923516 437.91799214 -294.20252531 430.38688134 -293.375 422.3671875 C-292.715 421.7071875 -292.055 421.0471875 -291.375 420.3671875 C-290.95347656 421.58277344 -290.53195312 422.79835938 -290.09765625 424.05078125 C-289.54442192 425.63546942 -288.99102828 427.22010198 -288.4375 428.8046875 C-288.15970703 429.60712891 -287.88191406 430.40957031 -287.59570312 431.23632812 C-287.32822266 432.00009766 -287.06074219 432.76386719 -286.78515625 433.55078125 C-286.53902588 434.25775146 -286.29289551 434.96472168 -286.03930664 435.69311523 C-285.50032025 437.37401382 -285.50032025 437.37401382 -284.375 438.3671875 C-284.01148438 436.93439453 -284.01148438 436.93439453 -283.640625 435.47265625 C-283.30236424 434.16659388 -282.96380622 432.86060848 -282.625 431.5546875 C-282.30015625 430.29011719 -281.9753125 429.02554687 -281.640625 427.72265625 C-280.20492688 422.49386372 -278.28068212 417.43945859 -276.375 412.3671875 C-277.29442383 412.06651367 -277.29442383 412.06651367 -278.23242188 411.75976562 C-320.98813927 397.65709444 -320.98813927 397.65709444 -331.375 379.3671875 C-334.58423278 372.66555435 -335.01482785 365.70724753 -335.375 358.3671875 C-336.84278851 359.83497601 -336.82319107 361.32034835 -337.21044922 363.34887695 C-338.28814095 368.37486183 -340.0260062 372.92947614 -342.0078125 377.66015625 C-342.36080414 378.52013718 -342.71379578 379.3801181 -343.07748413 380.26615906 C-343.82686495 382.09111534 -344.57917597 383.91487081 -345.33422852 385.73748779 C-347.29575159 390.47769829 -349.22956473 395.22917879 -351.1640625 399.98046875 C-351.53988464 400.90263184 -351.91570679 401.82479492 -352.30291748 402.77490234 C-356.27667435 412.54638486 -359.98488083 422.37837734 -363.375 432.3671875 C-363.88305176 433.83285156 -363.88305176 433.83285156 -364.40136719 435.328125 C-377.31378104 472.78221711 -386.0689276 511.84002803 -390.99560547 551.1340332 C-391.13498535 552.17648193 -391.27436523 553.21893066 -391.41796875 554.29296875 C-391.53164795 555.20473877 -391.64532715 556.11650879 -391.76245117 557.0559082 C-392.4515904 559.65617964 -393.32168698 560.68074885 -395.375 562.3671875 C-409.34234366 538.15712516 -388.25417583 484.68029335 -381.73907471 459.95367432 C-373.44762533 429.23646503 -362.52471544 398.23770711 -348.16894531 369.78271484 C-346.90877027 365.94871366 -347.93673802 363.32222744 -349.57421875 359.75390625 C-350.06535156 358.86316406 -350.55648437 357.97242188 -351.0625 357.0546875 C-351.77986328 355.73017578 -351.77986328 355.73017578 -352.51171875 354.37890625 C-353.99189977 351.9864124 -355.4922915 349.94241519 -357.23828125 347.7578125 C-361.0572368 342.72360039 -363.43133074 337.22866702 -365.875 331.4296875 C-366.38272949 330.23456543 -366.89045898 329.03944336 -367.41357422 327.80810547 C-374.05116589 311.92358316 -379.35377003 295.53447528 -384.76464844 279.20263672 C-386.19102443 274.90456518 -387.65405249 270.62012319 -389.1328125 266.33984375 C-398.01591032 240.49018287 -405.167734 214.24108329 -411.3125 187.6171875 C-411.49813507 186.81378937 -411.68377014 186.01039124 -411.87503052 185.18264771 C-413.08462224 179.91977595 -414.24823532 174.64838439 -415.375 169.3671875 C-415.52849915 168.65763916 -415.68199829 167.94809082 -415.84014893 167.21704102 C-417.48762333 159.50738432 -418.61204324 152.20320798 -418.38671875 144.27929688 C-418.36551015 139.00896055 -419.16064608 133.83004046 -419.875 128.6171875 C-420.01808594 127.52664063 -420.16117187 126.43609375 -420.30859375 125.3125 C-420.65720296 122.66306998 -421.01273856 120.01477912 -421.375 117.3671875 C-421.705 119.0171875 -422.035 120.6671875 -422.375 122.3671875 C-423.035 122.3671875 -423.695 122.3671875 -424.375 122.3671875 C-430.62991731 97.12412836 -422.30603927 69.28219336 -409.375 47.3671875 C-394.21535815 23.1256453 -373.02567081 5.93957038 -345.375 -1.6328125 C-344.21484375 -1.9525 -343.0546875 -2.2721875 -341.859375 -2.6015625 C-299.86232861 -12.25194763 -256.72503157 3.30642874 -221.375 25.3671875 C-208.48352813 33.70262456 -196.67972372 42.97646272 -185.375 53.3671875 C-185.18502441 52.83988037 -184.99504883 52.31257324 -184.79931641 51.76928711 C-178.55187843 34.68615923 -170.3934522 21.04728177 -158.375 7.3671875 C-157.570625 6.43712891 -157.570625 6.43712891 -156.75 5.48828125 C-117.92486501 -36.34580171 -42.56134899 -34.85253323 0 0 Z M-146.375 8.3671875 C-147.37853516 9.15802734 -147.37853516 9.15802734 -148.40234375 9.96484375 C-155.94815177 16.04631675 -162.94583704 24.75072714 -167.375 33.3671875 C-167.045 34.0271875 -166.715 34.6871875 -166.375 35.3671875 C-165.84132813 34.79871094 -165.30765625 34.23023438 -164.7578125 33.64453125 C-155.58971176 24.14333343 -145.01875868 16.58177373 -132.375 12.3671875 C-132.5625 15.2421875 -132.5625 15.2421875 -133.375 18.3671875 C-135.02366836 19.07719796 -136.69537197 19.73388513 -138.375 20.3671875 C-140.61079092 21.78473915 -142.77662999 23.22037801 -144.9375 24.7421875 C-145.78344727 25.32226562 -145.78344727 25.32226562 -146.64648438 25.9140625 C-149.85509512 28.15070812 -152.80198495 30.41042204 -155.375 33.3671875 C-155.375 34.0271875 -155.375 34.6871875 -155.375 35.3671875 C-156.86 35.8621875 -156.86 35.8621875 -158.375 36.3671875 C-160.06262888 38.27019559 -161.60223645 40.15164989 -163.125 42.1796875 C-163.56529541 42.76137695 -164.00559082 43.34306641 -164.45922852 43.94238281 C-174.6388731 57.62886402 -180.32881826 69.35647366 -177.91796875 86.64453125 C-177.45483225 89.23343095 -176.95091589 91.80127651 -176.375 94.3671875 C-175.715 94.3671875 -175.055 94.3671875 -174.375 94.3671875 C-174.17197266 93.1296875 -174.17197266 93.1296875 -173.96484375 91.8671875 C-170.98272407 75.86731188 -164.39785762 63.07559549 -154.375 50.3671875 C-153.76269531 49.55894531 -153.15039062 48.75070313 -152.51953125 47.91796875 C-137.1723992 29.04743331 -110.26833892 15.10513721 -86.375 12.3671875 C-68.25781926 11.19026306 -50.97333061 11.00924386 -34.8984375 20.2578125 C-32.53494832 21.53226351 -32.53494832 21.53226351 -30.42578125 21.22265625 C-27.62798152 20.05557408 -24.91130395 18.76067414 -22.1875 17.4296875 C-18.1764243 15.53494035 -14.48031523 13.97706515 -10.125 13.1171875 C-8.8875 12.8696875 -7.65 12.6221875 -6.375 12.3671875 C-6.045 11.7071875 -5.715 11.0471875 -5.375 10.3671875 C-16.9480512 -4.86051145 -39.91168349 -12.42799146 -58.37109375 -15.2890625 C-90.17064784 -18.92802318 -121.80086133 -13.40106425 -146.375 8.3671875 Z M-169.375 36.3671875 C-168.375 38.3671875 -168.375 38.3671875 -168.375 38.3671875 Z M-345.7578125 105.51953125 C-347.59453908 107.20877547 -347.59453908 107.20877547 -347.375 109.3671875 C-346.73433594 109.6353125 -346.09367187 109.9034375 -345.43359375 110.1796875 C-335.0337362 114.89139643 -330.14953156 121.41827342 -325.6640625 131.81640625 C-320.464171 146.13974375 -318.29000232 165.15899059 -324.3203125 179.63671875 C-325.375 181.3671875 -325.375 181.3671875 -327.375 182.3671875 C-327.375 174.1171875 -327.375 165.8671875 -327.375 157.3671875 C-330.345 159.3471875 -333.315 161.3271875 -336.375 163.3671875 C-340.57475037 163.91498103 -343.05519884 163.99409305 -346.875 162.1796875 C-348.375 160.3671875 -348.375 160.3671875 -348.625 157.6796875 C-348.5425 156.9165625 -348.46 156.1534375 -348.375 155.3671875 C-345.40975808 154.29970041 -344.06234761 154.43418444 -340.875 155.1171875 C-339.72 155.1996875 -338.565 155.2821875 -337.375 155.3671875 C-334.9383326 153.25895821 -334.9383326 153.25895821 -333.375 150.3671875 C-332.9625 149.7690625 -332.55 149.1709375 -332.125 148.5546875 C-330.0225647 142.42258455 -331.24330997 138.01860144 -333.875 132.3046875 C-336.80360539 126.85499492 -340.01188499 122.57210734 -345.375 119.3671875 C-348.41951623 118.28365004 -348.41951623 118.28365004 -351.375 119.3671875 C-356.28855085 122.46753735 -359.61742295 126.7930675 -362.953125 131.46484375 C-364.87678925 134.0385374 -367.03827154 136.16791365 -369.375 138.3671875 C-367.37277331 143.75779781 -365.36159239 147.65131941 -360.875 151.3046875 C-357.11204894 154.47710245 -354.11016178 158.03976996 -351.125 161.9296875 C-330.75924702 188.43529848 -308.33292226 211.43535592 -273.61328125 216.05078125 C-257.11093933 217.66319343 -239.02825316 215.43351734 -225.1875 205.6171875 C-223.89767034 204.55654245 -222.62731681 203.47187347 -221.375 202.3671875 C-220.65828125 201.76648438 -219.9415625 201.16578125 -219.203125 200.546875 C-211.46680177 193.53083014 -206.99079847 184.59878443 -202.375 175.3671875 C-203.96648775 162.45955869 -208.47700389 149.88304775 -214.375 138.3671875 C-214.68840332 137.75262695 -215.00180664 137.13806641 -215.32470703 136.50488281 C-222.3141331 123.05192547 -231.96538395 110.29095635 -244.375 101.3671875 C-245.035 101.6971875 -245.695 102.0271875 -246.375 102.3671875 C-246.09785156 103.08003906 -245.82070313 103.79289062 -245.53515625 104.52734375 C-243.52581553 109.84029803 -241.87862719 114.70138158 -241.375 120.3671875 C-245.23075913 116.93591561 -247.53066052 113.00472552 -250.125 108.6171875 C-257.86966915 95.98092469 -267.9213455 86.34340862 -282.6875 82.3671875 C-284.57579143 81.99348893 -286.47180737 81.65555002 -288.375 81.3671875 C-289.09300781 81.24214844 -289.81101562 81.11710937 -290.55078125 80.98828125 C-296.78063099 80.40150182 -301.58131185 83.81268404 -306.375 87.3671875 C-308.64685529 89.34609086 -308.64685529 89.34609086 -310.375 91.3671875 C-310.375 92.0271875 -310.375 92.6871875 -310.375 93.3671875 C-311.035 93.3671875 -311.695 93.3671875 -312.375 93.3671875 C-314.92464086 96.90378611 -317.16535353 100.61078851 -319.375 104.3671875 C-321.025 104.0371875 -322.675 103.7071875 -324.375 103.3671875 C-325.33442128 100.79688604 -325.46671193 99.63184191 -324.5546875 97 C-321.42184146 90.97818216 -318.18638885 86.17857635 -313.375 81.3671875 C-325.11980938 81.3671875 -337.79797236 97.71117596 -345.7578125 105.51953125 Z M-395.375 82.3671875 C-403.60207117 94.3019746 -408.03111229 104.60830448 -406.375 119.3671875 C-404.77897702 123.34791147 -403.97023067 124.97036706 -400.375 127.3671875 C-400.11283691 126.86791748 -399.85067383 126.36864746 -399.58056641 125.85424805 C-398.38874241 123.58683056 -397.19439956 121.32074925 -396 119.0546875 C-395.5875 118.26900391 -395.175 117.48332031 -394.75 116.67382812 C-394.35039062 115.91650391 -393.95078125 115.15917969 -393.5390625 114.37890625 C-393.17248535 113.68240967 -392.8059082 112.98591309 -392.42822266 112.26831055 C-391.49546611 110.58463525 -390.44267862 108.96870543 -389.375 107.3671875 C-389.849375 106.6246875 -390.32375 105.8821875 -390.8125 105.1171875 C-393.54504813 100.30790279 -393.64414091 95.56116282 -393.9375 90.1171875 C-393.98068359 89.37210937 -394.02386719 88.62703125 -394.06835938 87.859375 C-394.17396725 86.0288385 -394.27494201 84.19803574 -394.375 82.3671875 C-394.705 82.3671875 -395.035 82.3671875 -395.375 82.3671875 Z M55.625 96.3671875 C56.625 98.3671875 56.625 98.3671875 56.625 98.3671875 Z M-388.375 118.3671875 C-390.77986557 124.83026372 -391.18037239 131.52585211 -390.375 138.3671875 C-388.97065254 141.19918525 -388.97065254 141.19918525 -387.375 143.3671875 C-383.12051682 142.00366662 -380.94490605 140.18649347 -378.0625 136.8046875 C-377.36511719 135.99902344 -376.66773438 135.19335938 -375.94921875 134.36328125 C-374.27179239 132.66001387 -374.27179239 132.66001387 -374.375 131.3671875 C-376.0146875 130.9959375 -376.0146875 130.9959375 -377.6875 130.6171875 C-381.56787777 129.3018052 -382.55646985 128.90853568 -384.375 125.3671875 C-385.10760159 123.05370878 -385.786438 120.7214355 -386.375 118.3671875 C-387.035 118.3671875 -387.695 118.3671875 -388.375 118.3671875 Z " fill="#231D20" transform="translate(681.375,179.6328125)"/>
<path d="M0 0 C9.83766553 7.29891314 17.70024885 16.97432894 20.26953125 29.203125 C21.91838677 42.41686991 19.62536037 53.75906566 11.55078125 64.45703125 C2.57901163 74.34171778 -8.48504817 79.80056825 -21.76953125 80.67578125 C-34.55352372 81.00711583 -43.47176581 77.58539385 -54.07421875 70.76953125 C-63.45967003 61.63106553 -68.47823801 49.96730502 -68.76171875 36.95703125 C-68.63650459 23.67041786 -63.97794159 13.14888989 -54.94921875 3.58203125 C-52.01502759 0.80905939 -49.3232423 -1.22415222 -45.44921875 -2.54296875 C-42.07421875 -2.23046875 -42.07421875 -2.23046875 -39.44921875 -1.54296875 C-39.11921875 -0.55296875 -38.78921875 0.43703125 -38.44921875 1.45703125 C-39.10921875 2.11703125 -39.76921875 2.77703125 -40.44921875 3.45703125 C-39.67578125 4.400625 -38.90234375 5.34421875 -38.10546875 6.31640625 C-37.60644043 6.93257813 -37.10741211 7.54875 -36.59326172 8.18359375 C-35.48689217 9.54527935 -34.37111198 10.89936674 -33.24658203 12.24609375 C-30.64175385 15.42618919 -28.33742868 18.3324644 -26.78515625 22.16015625 C-25.03277529 26.11472718 -24.06310924 28.0063905 -20.44921875 30.45703125 C-10.87577936 31.88756428 0.21022991 31.0455949 9.55078125 28.45703125 C5.64514197 17.97730351 -0.56508624 10.78310941 -10.44921875 5.45703125 C-16.82422121 2.64519981 -23.60462513 1.54449005 -30.44921875 0.45703125 C-30.1015625 -1.46484375 -30.1015625 -1.46484375 -29.44921875 -3.54296875 C-19.94531734 -8.41676435 -8.57705232 -5.40340617 0 0 Z M-49.44921875 10.45703125 C-56.93299212 18.29518944 -59.80176042 27.88115164 -59.66015625 38.515625 C-58.93377624 48.64459073 -54.46357192 55.85386788 -47.19921875 62.70703125 C-42.07338156 66.88533061 -36.05715692 69.45703125 -29.44921875 69.45703125 C-24.99354456 49.25835546 -24.99354456 49.25835546 -30.484375 30.34277344 C-32.78653167 27.49543571 -35.17422829 24.79563116 -37.75488281 22.19775391 C-40.14161624 19.74567764 -42.09486055 17.07601541 -44.13671875 14.33203125 C-45.84246448 12.08507951 -45.84246448 12.08507951 -47.44921875 10.45703125 C-48.10921875 10.45703125 -48.76921875 10.45703125 -49.44921875 10.45703125 Z " fill="#211D1E" transform="translate(158.44921875,439.54296875)"/>
<path d="M0 0 C3.74056558 0.5614977 5.19336301 1.97761243 7.6875 4.75 C38.56233612 36.58493741 84.47700234 55.93538883 125 72 C125.82209961 72.33112793 126.64419922 72.66225586 127.49121094 73.00341797 C138.74244204 77.52886787 150.25978051 80.98835972 162 84 C162.81500977 84.21462891 163.63001953 84.42925781 164.46972656 84.65039062 C195.11337367 92.4632185 227.09556239 89.4126293 254.9375 74.41796875 C268.04346153 66.58868069 278.90918489 55.38177066 289.50048828 44.53173828 C291.64938071 42.33666321 293.82386007 40.16803513 296 38 C296.62885362 47.25113555 291.13396848 55.87907386 285.23461914 62.70532227 C282.91368609 65.23546853 280.49475623 67.6417887 278 70 C277.24541504 70.71349609 277.24541504 70.71349609 276.47558594 71.44140625 C251.52988845 94.57487682 224.30060425 101.1928984 191 100 C184.21854726 99.55803396 177.63683796 98.43135713 171 97 C169.97148926 96.77957031 168.94297852 96.55914063 167.88330078 96.33203125 C141.49997117 90.51438587 116.52260846 81.2345392 92 70 C90.68491455 69.40517822 90.68491455 69.40517822 89.34326172 68.79833984 C75.09543316 62.33216017 61.49444182 54.90834786 48 47 C47.17306641 46.51885742 46.34613281 46.03771484 45.49414062 45.54199219 C6.23312132 22.59953741 6.23312132 22.59953741 0 9 C-0.29038132 5.96601581 -0.24282803 3.03535043 0 0 Z " fill="#201D1E" transform="translate(390,631)"/>
<path d="M0 0 C3.81554713 2.70442626 7.41563369 5.47540582 9.7578125 9.57421875 C10.06723539 12.33323951 9.94708048 14.78251606 9.7578125 17.57421875 C8.64792969 17.69796875 8.64792969 17.69796875 7.515625 17.82421875 C4.14145029 18.74184133 2.97539307 20.00895942 0.6328125 22.57421875 C-1.92068402 25.34374712 -4.14806297 27.51451555 -7.33984375 29.5390625 C-10.69601597 31.68175147 -12.94853054 33.30139829 -15.2421875 36.57421875 C-16.12644572 42.61067843 -14.53228327 48.69695929 -13.2421875 54.57421875 C-12.89923247 56.57259133 -12.56153064 58.57193728 -12.2421875 60.57421875 C-1.83836283 55.72082163 3.84143384 50.07347817 8.0703125 39.19921875 C9.05242108 34.02082804 9.42985077 28.83023698 9.7578125 23.57421875 C10.4178125 23.57421875 11.0778125 23.57421875 11.7578125 23.57421875 C15.38569361 30.5708466 17.01362609 35.87699291 14.9453125 43.61328125 C11.50582184 53.81232647 5.44232731 62.27358122 -4.08203125 67.61328125 C-15.03928564 72.48757524 -24.70582928 72.76669304 -36.01953125 69.03515625 C-41.43282908 66.5811279 -45.26287861 62.91867021 -49.2421875 58.57421875 C-49.76554688 58.01863281 -50.28890625 57.46304688 -50.828125 56.890625 C-57.34198457 48.97529867 -58.99037283 37.91490015 -58.60546875 27.984375 C-57.34605157 16.16210404 -52.13173318 8.1544515 -43.2421875 0.57421875 C-39.69387906 -1.57127007 -36.18830229 -3.1658386 -32.2421875 -4.42578125 C-31.63503906 -4.62171875 -31.02789063 -4.81765625 -30.40234375 -5.01953125 C-19.62739591 -7.04592289 -9.27518666 -5.89798455 0 0 Z M-44.4921875 13.82421875 C-47.48552574 18.52803599 -50.2421875 23.92988742 -50.2421875 29.57421875 C-45.74286527 29.77877427 -41.24474835 29.90228151 -36.7421875 30.01171875 C-35.47375 30.07037109 -34.2053125 30.12902344 -32.8984375 30.18945312 C-24.59572696 30.38266302 -24.59572696 30.38266302 -17.6640625 26.3046875 C-16.50580161 25.07760827 -15.36314487 23.83546667 -14.2421875 22.57421875 C-11.69592415 20.54142839 -9.12360033 18.55008019 -6.5390625 16.56640625 C-4.08784198 14.44034763 -2.19272094 12.16001767 -0.2421875 9.57421875 C-15.64336594 -0.9065832 -31.31681655 0.6488478 -44.4921875 13.82421875 Z " fill="#221E1F" transform="translate(935.2421875,177.42578125)"/>
<path d="M0 0 C4.48256233 3.24882958 8.1077213 6.17344814 9.44140625 11.73046875 C9.69140625 14.60546875 9.69140625 14.60546875 8.69140625 16.60546875 C8.13453125 16.70085938 7.57765625 16.79625 7.00390625 16.89453125 C3.49859874 17.97217646 1.27355087 20.48780439 -1.30859375 22.98046875 C-7.03705755 28.42534524 -7.03705755 28.42534524 -9.6640625 30.16796875 C-11.51507922 31.49019857 -11.51507922 31.49019857 -11.734375 33.76953125 C-11.67830078 34.98769531 -11.67830078 34.98769531 -11.62109375 36.23046875 C-11.56888672 37.5453125 -11.56888672 37.5453125 -11.515625 38.88671875 C-11.2167032 42.81218232 -10.81245736 46.7005258 -10.30859375 50.60546875 C-9.76589844 50.32832031 -9.22320312 50.05117188 -8.6640625 49.765625 C-7.59091797 49.22228516 -7.59091797 49.22228516 -6.49609375 48.66796875 C-5.43455078 48.12849609 -5.43455078 48.12849609 -4.3515625 47.578125 C-2.30859375 46.60546875 -2.30859375 46.60546875 0.69140625 45.60546875 C1.8165671 43.77262432 1.8165671 43.77262432 2.69140625 41.60546875 C3.02140625 40.96609375 3.35140625 40.32671875 3.69140625 39.66796875 C6.69156773 33.48013569 7.81797888 27.39751578 8.69140625 20.60546875 C12.90393597 24.68319752 13.50335831 26.42411268 14.00390625 32.23046875 C13.8302564 40.73931146 9.70227786 47.57821648 3.9765625 53.625 C-2.62279854 59.34444623 -10.37290888 61.9924143 -19.07421875 61.8125 C-27.57776712 61.0245838 -34.33786423 57.69036136 -40.30859375 51.60546875 C-46.72388395 43.29443969 -49.41835909 34.05135519 -48.30859375 23.60546875 C-46.47873291 13.87183922 -41.82514341 5.50094271 -33.578125 -0.17578125 C-23.01187075 -5.84991434 -10.3870401 -6.27440494 0 0 Z M-34.61328125 12.48828125 C-37.51498697 16.11207043 -38.96223991 20.20324601 -40.30859375 24.60546875 C-33.26215765 26.95428078 -24.55299869 27.15518131 -17.30859375 25.60546875 C-12.29900791 23.0520736 -8.89672074 18.82009411 -5.30859375 14.60546875 C-4.31859375 13.94546875 -3.32859375 13.28546875 -2.30859375 12.60546875 C-2.30859375 11.94546875 -2.30859375 11.28546875 -2.30859375 10.60546875 C-1.64859375 10.27546875 -0.98859375 9.94546875 -0.30859375 9.60546875 C-12.09990823 2.83638081 -24.34058504 2.79784313 -34.61328125 12.48828125 Z " fill="#211E1E" transform="translate(389.30859375,690.39453125)"/>
<path d="M0 0 C5.64120575 3.49754756 8.01312179 7.7432441 10 14 C10.82842122 17.64787752 11.47397493 21.29706039 12 25 C12.88300781 24.4946875 13.76601563 23.989375 14.67578125 23.46875 C28.86804922 15.65346694 28.86804922 15.65346694 37 18 C40.52593807 20.28672488 42.3767242 22.96423552 43.6015625 26.96484375 C43.95200784 30.24215668 43.45436275 32.27547561 41.69921875 35.07421875 C33.94683321 44.43054612 23.61319814 49.57574467 13 55 C12.10539063 55.46148437 11.21078125 55.92296875 10.2890625 56.3984375 C5.17819149 59 5.17819149 59 4 59 C3.92263143 55.20894015 4.01898593 53.05772844 6.6484375 50.22265625 C11.78438746 46.13429175 17.42050355 43.00198005 23.11328125 39.765625 C27.10029931 37.32701585 30.97334869 34.59637391 34 31 C34 30.01 34 29.02 34 28 C32.68 28 31.36 28 30 28 C29.525625 29.19625 29.05125 30.3925 28.5625 31.625 C24.37792665 39.89243833 14.83883285 43.24516929 6.91796875 47.19140625 C3.21483298 49.4866564 0.94336808 52.11326385 -1 56 C-1.04022391 58.3329866 -1.04320247 60.66706666 -1 63 C-5 63 -5 63 -7.11328125 61.390625 C-9.33425224 58.57647542 -10.18970746 56.1872935 -11.1875 52.75 C-11.51105469 51.67234375 -11.83460938 50.5946875 -12.16796875 49.484375 C-14.06840575 41.52573741 -14.21126764 33.71081971 -14.25 25.5625 C-14.270625 24.48162109 -14.29125 23.40074219 -14.3125 22.28710938 C-14.34965263 14.62902261 -14.01196743 7.33758553 -8.6875 1.4375 C-5.35916489 -0.34277227 -3.72331676 -0.68387451 0 0 Z " fill="#211D1E" transform="translate(870,444)"/>
<path d="M0 0 C3.45371539 2.14897846 5.63996703 4.14657326 7 8 C7.8177939 12.14471976 8.11855091 16.0527169 8.09765625 20.2734375 C8.09443359 21.42714844 8.09121094 22.58085938 8.08789062 23.76953125 C8.07532227 25.55423828 8.07532227 25.55423828 8.0625 27.375 C8.05798828 28.58800781 8.05347656 29.80101563 8.04882812 31.05078125 C8.03708354 34.03390507 8.0206584 37.01692679 8 40 C6.68 40 5.36 40 4 40 C3.67 39.34 3.34 38.68 3 38 C3 40.31 3 42.62 3 45 C5.97 45.495 5.97 45.495 9 46 C9 46.99 9 47.98 9 49 C2.68425979 52.81415118 -5.66762636 51.98880626 -12.625 50.40087891 C-15.42420107 49.63099921 -18.17931334 48.78062608 -20.9375 47.875 C-21.81269287 47.59213135 -22.68788574 47.3092627 -23.58959961 47.01782227 C-30.58340434 44.55996329 -36.81329803 41.28005295 -41 35 C-41.5 31.625 -41.5 31.625 -41 28 C-37.78217135 24.10473374 -35.29611273 22.75400607 -30.3125 22.0625 C-24.71391081 21.7386851 -19.43804402 22.74904311 -14 24 C-14.33 23.34 -14.66 22.68 -15 22 C-15.53291257 14.40599593 -14.31223788 8.14721267 -9.75 1.9375 C-6.172076 -0.58331009 -4.2944145 -0.69017376 0 0 Z M-4 8 C-4.66 9.65 -5.32 11.3 -6 13 C-5.06414062 13.99580078 -5.06414062 13.99580078 -4.109375 15.01171875 C-1.64567738 18.50195705 -0.92114779 21.68691503 -0.25 25.8125 C-0.12496094 26.50537109 0.00007813 27.19824219 0.12890625 27.91210938 C0.43259145 29.60573839 0.71816718 31.30259781 1 33 C1.33 33 1.66 33 2 33 C2.48150298 20.68174661 2.48150298 20.68174661 -1 9 C-1.99 8.67 -2.98 8.34 -4 8 Z " fill="#221E1F" transform="translate(234,76)"/>
<path d="M0 0 C4.28123813 4.09509734 5.86840322 7.08202762 6.12939453 12.86914062 C6.13108643 14.49625977 6.13108643 14.49625977 6.1328125 16.15625 C6.13474609 17.93708984 6.13474609 17.93708984 6.13671875 19.75390625 C6.13285156 20.99011719 6.12898437 22.22632813 6.125 23.5 C6.13080078 25.35431641 6.13080078 25.35431641 6.13671875 27.24609375 C6.13542969 28.43332031 6.13414062 29.62054687 6.1328125 30.84375 C6.13168457 31.92849609 6.13055664 33.01324219 6.12939453 34.13085938 C6.01802062 36.60041816 5.71632123 38.64688119 5 41 C4.01 41 3.02 41 2 41 C1.67 40.34 1.34 39.68 1 39 C1 40.32 1 41.64 1 43 C2.32 43.66 3.64 44.32 5 45 C5 46.32 5 47.64 5 49 C0.51739115 51.24130443 -4.41713992 50.45022678 -9.0625 49.12890625 C-19.12229327 45.44112146 -31.03308215 40.33710209 -37.8125 31.6875 C-39.35879763 28.18798431 -39.48209401 25.78788154 -39 22 C-37.13291495 19.63502561 -35.67938569 18.33969285 -33 17 C-31.24729792 17.0372306 -29.49579977 17.15270685 -27.75 17.3125 C-26.35007812 17.43044922 -26.35007812 17.43044922 -24.921875 17.55078125 C-21.78328999 18.03331772 -18.98080575 18.91967839 -16 20 C-15.82984375 19.04738281 -15.6596875 18.09476563 -15.484375 17.11328125 C-15.24203125 15.85902344 -14.9996875 14.60476563 -14.75 13.3125 C-14.51796875 12.07113281 -14.2859375 10.82976563 -14.046875 9.55078125 C-12.94449455 5.8117371 -11.67578185 3.7950512 -9 1 C-5.82121306 -0.58939347 -3.5043228 -0.41576711 0 0 Z M-4 8 C-6.5654594 10.5654594 -6.54046087 12.47686668 -7 16 C-6.36578125 16.23460937 -5.7315625 16.46921875 -5.078125 16.7109375 C-3 18 -3 18 -2.171875 20.1640625 C-2.03265625 20.97617187 -1.8934375 21.78828125 -1.75 22.625 C-1.60046875 23.44226563 -1.4509375 24.25953125 -1.296875 25.1015625 C-1.19890625 25.72804688 -1.1009375 26.35453125 -1 27 C-0.67 27 -0.34 27 0 27 C0.66124398 16.9859945 0.66124398 16.9859945 -3 8 C-3.33 8 -3.66 8 -4 8 Z " fill="#211D1E" transform="translate(763,647)"/>
<path d="M0 0 C4.32415022 0.56463088 5.89663085 2.75917832 8.52294922 6.00195312 C10.82087831 9.11042448 12.72504837 12.35299752 14.5625 15.75 C15.1827002 16.88381104 15.1827002 16.88381104 15.81542969 18.04052734 C24.10153421 33.42248406 32.00184386 49.17715201 37.81640625 65.671875 C38.90883137 68.74364465 40.13214619 71.70145102 41.4375 74.6875 C47.57460438 89.37758477 51.8280214 104.61503614 55.8125 120 C56.10465393 121.11823654 56.10465393 121.11823654 56.40270996 122.25906372 C61.71552317 142.68697108 61.71552317 142.68697108 62 150 C61.34 150.66 60.68 151.32 60 152 C55.21697859 145.23173153 52.99525777 138.41529118 50.6875 130.5 C50.09920589 128.54328464 49.5057384 126.58818241 48.91218567 124.63305664 C48.31515509 122.66500226 47.72188041 120.69584233 47.12890625 118.7265625 C41.24573837 99.30600141 34.01376901 80.62451638 26 62 C25.5963623 61.05608398 25.19272461 60.11216797 24.77685547 59.13964844 C17.70249161 42.68092436 9.84547588 26.33695182 0.15087891 11.25073242 C-1.69177332 7.64712383 -1.50518275 4.96929301 -1 1 C-0.67 0.67 -0.34 0.34 0 0 Z " fill="#211D1E" transform="translate(755,590)"/>
<path d="M0 0 C2.1131852 4.22637039 0.7585617 9.55484232 -0.59228516 13.90917969 C-1.33842638 16.0699553 -2.10358885 18.2231198 -2.875 20.375 C-7.45293659 33.31003028 -9.85156591 47.24878746 -9 61 C-10.98 61.495 -10.98 61.495 -13 62 C-16.44678406 55.67045109 -16.32211084 50.2842424 -15.9375 43.1875 C-15.88440674 42.08398193 -15.83131348 40.98046387 -15.77661133 39.84350586 C-15.04623524 27.45406349 -13.40719514 12.91415749 -7 2 C-4 0 -4 0 0 0 Z " fill="#221E1F" transform="translate(537,728)"/>
<path d="M0 0 C1.875 0.75 1.875 0.75 2.875 1.75 C3.96493809 11.79300098 2.4980968 20.98601021 -3.9453125 29.01953125 C-7.58876679 32.7620753 -10.04748221 34.89035232 -15.375 35.0625 C-19.99294005 34.99535709 -22.73117263 34.05680616 -26.125 30.75 C-26.625 27.625 -26.625 27.625 -26.125 24.75 C-25.465 24.09 -24.805 23.43 -24.125 22.75 C-21.4932044 23.10564805 -19.09290258 23.76017723 -16.5625 24.5625 C-14.05209983 25.00769877 -14.05209983 25.00769877 -12.0625 23.375 C-7.79897259 17.59860803 -5.71464458 11.86892202 -5.49609375 4.6953125 C-4.88276594 1.48018357 -3.34310436 -0.3933064 0 0 Z " fill="#221E1F" transform="translate(396.125,284.25)"/>
<path d="M0 0 C4.77759499 0.3595022 7.8997638 1.82363354 12.0703125 4.046875 C12.75996094 4.39492187 13.44960937 4.74296875 14.16015625 5.1015625 C19.3032543 7.75669916 23.67468524 10.39093412 26.9453125 15.296875 C27.1328125 17.921875 27.1328125 17.921875 26.9453125 20.296875 C25.9453125 21.296875 25.9453125 21.296875 22.9453125 21.609375 C13.539647 21.3999371 1.41869114 13.77025364 -5.0546875 7.296875 C-4.35327994 0.42308091 -4.35327994 0.42308091 0 0 Z " fill="#211E1F" transform="translate(193.0546875,233.703125)"/>
<path d="M0 0 C2.375 0.25 2.375 0.25 5 1 C7.36064367 4.42293332 7.65569032 8.3429842 8.125 12.375 C8.25237549 13.42107422 8.25237549 13.42107422 8.38232422 14.48828125 C9.15176585 21.33739548 9.19377746 28.11013472 9 35 C5.535 35.495 5.535 35.495 2 36 C-0.61039581 31.41571584 -1.6525169 27.25036366 -2.1875 22.0625 C-2.26935547 21.38509766 -2.35121094 20.70769531 -2.43554688 20.00976562 C-3.31356761 12.31417213 -3.38307017 6.9071016 0 0 Z " fill="#221E1F" transform="translate(723,120)"/>
<path d="M0 0 C2.4375 0.875 2.4375 0.875 5 3 C7.07743701 9.63796439 5.94321287 15.84489922 3 22 C0.3036472 26.33342415 -3.19784325 29.22570915 -8 31 C-10.81297429 31.36038105 -13.14235689 31.24634854 -16 31 C-17 30 -17 30 -17.1875 27.0625 C-17 24 -17 24 -15 22 C-13.71751427 21.5947123 -12.42417924 21.22308199 -11.125 20.875 C-7.76752555 19.6541002 -6.23285418 18.51657736 -4.5 15.375 C-2.82937634 11.46964599 -2.75088048 8.07262913 -3.15234375 3.8828125 C-3.10207031 3.26148438 -3.05179687 2.64015625 -3 2 C-2.01 1.34 -1.02 0.68 0 0 Z " fill="#221E1F" transform="translate(417,338)"/>
<path d="M0 0 C1 1 1 1 1.5 3.1875 C0.7022903 7.67461706 -2.42956048 9.42171187 -6 12 C-8.28931141 13.57170783 -10.59424391 15.10532859 -12.93359375 16.6015625 C-15.20215539 18.05962675 -15.20215539 18.05962675 -17.6875 20.5 C-18.450625 20.995 -19.21375 21.49 -20 22 C-23.3125 21.25 -23.3125 21.25 -26 20 C-25.8766514 14.07926708 -24.07864221 11.148584 -20.04296875 6.86328125 C-13.76908766 1.14121379 -8.52179055 -1.57810936 0 0 Z " fill="#221E1F" transform="translate(213,265)"/>
<path d="M0 0 C1 1 1 1 1.25 4.125 C0.79890833 7.12815826 0.07314473 7.93935547 -2.30859375 9.9140625 C-5.15296755 11.72797795 -8.03454784 13.39267509 -11 15 C-12.093125 15.639375 -13.18625 16.27875 -14.3125 16.9375 C-17.45064817 18.17816323 -19.65721268 18.45583463 -23 18 C-25 15 -25 15 -25.0625 12.6875 C-22.6642578 6.62135797 -16.53132483 3.48253357 -10.89453125 0.76171875 C-6.87353564 -0.85497021 -4.23316401 -1.14409838 0 0 Z " fill="#221E1F" transform="translate(782,148)"/>
<path d="M0 0 C1.875 0 1.875 0 4 1 C11.09369617 8.30233429 10.09861955 21.12358762 10.6875 30.75 C10.73608154 31.53665039 10.78466309 32.32330078 10.8347168 33.13378906 C11.12378469 38.75243062 11.12378469 38.75243062 10 41 C8.125 40.6875 8.125 40.6875 6 40 C4.00633466 37.00950198 3.66233787 35.85804812 3.25390625 32.4296875 C3.13853516 31.5325 3.02316406 30.6353125 2.90429688 29.7109375 C2.67927251 27.84387817 2.45528684 25.97669332 2.23242188 24.109375 C1.54407508 18.76993357 0.50585901 13.92724631 -1.36816406 8.87329102 C-2.17587835 6.47854923 -2.3787298 4.49961667 -2 2 C-1.34 1.34 -0.68 0.68 0 0 Z " fill="#221E1F" transform="translate(550,733)"/>
</svg>
