<svg width="500" height="495" xmlns="http://www.w3.org/2000/svg" xmlns:xlink="http://www.w3.org/1999/xlink" xml:space="preserve" overflow="hidden"><defs><clipPath id="clip0"><rect x="330" y="9" width="500" height="495"/></clipPath></defs><g clip-path="url(#clip0)" transform="translate(-330 -9)"><path d="M440.028 61.5154C442.636 61.5154 444.766 59.404 444.766 56.7778L444.766 28.3889C444.766 25.7807 442.654 23.6514 440.028 23.6514L364.318 23.6514C361.71 23.6514 359.581 25.7628 359.581 28.3889 359.581 30.9972 361.692 33.1265 364.318 33.1265L435.291 33.1265 435.291 52.0585 421.096 52.0585 33.1265 52.0407 18.932 52.0407 18.932 33.1264 345.405 33.1264C348.013 33.1264 350.142 31.015 350.142 28.3889 350.142 25.7806 348.031 23.6513 345.405 23.6513L14.1945 23.6513C11.5862 23.6513 9.45691 25.7805 9.45691 28.3889L9.45691 56.7778C9.45691 59.386 11.5683 61.5153 14.1945 61.5153L28.3889 61.5153 28.3889 307.559 14.1945 307.541C11.5862 307.541 9.45691 309.652 9.45691 312.278L9.45691 340.667C9.45691 343.276 11.5683 345.405 14.1945 345.405L222.374 345.405 222.374 376.437 171.878 422.337C169.944 424.093 169.802 427.092 171.558 429.026 173.315 430.96 176.314 431.102 178.248 429.345L222.375 389.211 222.375 425.832C222.375 428.441 224.486 430.57 227.112 430.57 229.72 430.57 231.85 428.458 231.85 425.832L231.85 389.211 275.977 429.328C276.881 430.161 278.017 430.57 279.153 430.57 280.43 430.57 281.725 430.055 282.648 429.026 284.404 427.092 284.263 424.094 282.329 422.337L231.851 376.419 231.851 345.405 440.03 345.405C442.638 345.405 444.768 343.293 444.768 340.667L444.768 312.278C444.768 309.67 442.656 307.541 440.03 307.541L425.836 307.541 425.836 61.5154ZM435.291 335.929 18.932 335.929 18.932 316.997 435.309 316.997ZM416.376 307.541 37.8454 307.541 37.8454 61.5154 416.358 61.5154ZM89.9038 274.432 156.139 274.432C158.747 274.432 160.876 272.32 160.876 269.694L160.876 264.957 227.111 264.957C229.719 264.957 231.848 262.845 231.848 260.219L231.848 236.568 260.237 236.568C262.846 236.568 264.975 234.456 264.975 231.83L264.975 212.898C264.975 210.29 262.863 208.161 260.237 208.161L231.848 208.161 231.848 141.517C243.736 139.512 253.122 130.108 255.092 118.203 255.234 118.221 255.358 118.292 255.5 118.292L331.21 118.292 331.21 170.332 302.821 170.332C300.213 170.332 298.083 172.443 298.083 175.069L298.083 194.001C298.083 196.61 300.195 198.739 302.821 198.739L369.056 198.739C371.664 198.739 373.793 196.627 373.793 194.001L373.793 175.069C373.793 172.461 371.682 170.332 369.056 170.332L340.667 170.332 340.667 113.554C340.667 110.946 338.555 108.816 335.929 108.816L255.5 108.816C255.358 108.816 255.234 108.887 255.092 108.905 252.856 95.4561 241.181 85.1647 227.111 85.1647 213.076 85.1647 201.419 95.4202 199.148 108.816L123.011 108.816C120.403 108.816 118.274 110.928 118.274 113.554L118.274 170.331 89.8848 170.331C87.2765 170.331 85.1472 172.443 85.1472 175.069L85.1472 194.001C85.1472 196.609 87.2586 198.739 89.8848 198.739L156.12 198.739C158.728 198.739 160.857 196.627 160.857 194.001L160.857 175.069C160.857 172.461 158.746 170.331 156.12 170.331L127.731 170.331 127.748 118.291 199.148 118.291C201.153 130.144 210.521 139.512 222.373 141.517L222.373 208.179 193.984 208.179C191.376 208.179 189.247 210.29 189.247 212.916L189.247 231.848C189.247 234.456 191.358 236.586 193.984 236.586L222.373 236.586 222.373 255.518 160.876 255.5 160.876 250.762C160.876 248.154 158.765 246.025 156.139 246.025L89.9039 246.043C87.2956 246.043 85.1663 248.154 85.1663 250.78L85.1663 269.712C85.1663 272.303 87.2777 274.432 89.9039 274.432ZM364.318 189.265 307.54 189.265 307.54 179.808 364.318 179.808ZM151.401 189.265 94.6232 189.265 94.6232 179.808 151.401 179.808ZM208.179 113.555C208.179 103.122 216.66 94.6232 227.111 94.6232 237.544 94.6232 246.043 103.104 246.043 113.555 246.043 123.988 237.562 132.487 227.111 132.487 216.678 132.487 208.179 123.988 208.179 113.555ZM198.722 217.654 255.5 217.654 255.5 227.111 198.722 227.111ZM94.6232 255.5 151.401 255.5 151.401 264.957 94.6232 264.957ZM89.9034 236.568 156.138 236.568C158.746 236.568 160.876 234.456 160.876 231.83L160.876 212.898C160.876 210.29 158.764 208.161 156.138 208.161L89.9034 208.178C87.2951 208.178 85.1658 210.29 85.1658 212.916L85.1658 231.848C85.1658 234.456 87.2772 236.568 89.9034 236.568ZM94.6232 217.654 151.401 217.654 151.401 227.11 94.6232 227.11ZM369.055 208.179 302.821 208.179C300.212 208.179 298.083 210.29 298.083 212.916L298.083 231.848C298.083 234.457 300.195 236.586 302.821 236.586L369.055 236.586C371.664 236.586 373.793 234.475 373.793 231.848L373.793 212.916C373.793 210.308 371.664 208.179 369.055 208.179ZM364.318 227.111 307.54 227.111 307.54 217.654 364.318 217.654Z" transform="matrix(1.00071 0 0 1 352.727 54.4223)"/><text font-family="Arial,Arial_MSFontService,sans-serif" font-weight="700" font-size="5" transform="matrix(4.54545 0 0 4.54223 352.727 588)">Created by Chehuna</text><text font-family="Arial,Arial_MSFontService,sans-serif" font-weight="700" font-size="5" transform="matrix(4.54545 0 0 4.54223 352.727 611)">from Noun Project</text></g></svg>