<svg width="446" height="401" xmlns="http://www.w3.org/2000/svg" xmlns:xlink="http://www.w3.org/1999/xlink" xml:space="preserve" overflow="hidden"><defs><clipPath id="clip0"><rect x="332" y="134" width="446" height="401"/></clipPath></defs><g clip-path="url(#clip0)" transform="translate(-332 -134)"><path d="M202.399 40.5179C113.037 40.5179 40.3275 113.227 40.3275 202.59 40.3275 291.952 113.037 364.661 202.399 364.661 204.647 364.661 206.451 362.857 206.451 360.61 206.451 358.362 204.647 356.558 202.399 356.558 117.502 356.558 48.4311 287.487 48.4311 202.59 48.4311 117.692 117.502 48.6215 202.399 48.6215 287.297 48.6215 356.367 117.692 356.367 202.59 356.367 226.505 350.844 249.801 340.429 270.838 333.275 266.723 325.172 264.491 316.704 264.491 303.947 264.491 291.95 269.461 282.929 278.483 259.124 302.287 264.775 357.967 265.028 360.341 265.234 362.24 266.737 363.728 268.621 363.934 269.412 364.013 276.044 364.694 285.429 364.694 304.39 364.694 334.557 361.94 350.464 346.033 369.078 327.42 369.078 297.112 350.464 278.482 349.404 277.421 348.28 276.424 347.141 275.474 358.457 253.047 364.471 228.149 364.471 202.591 364.471 113.228 291.762 40.5189 202.4 40.5189ZM344.751 284.213C360.214 299.676 360.214 324.824 344.751 340.306 326.74 358.318 284.922 356.957 272.815 356.149 272.008 344.057 270.631 302.24 288.659 284.23 296.145 276.744 306.1 272.613 316.705 272.613 323.827 272.613 330.633 274.512 336.632 278.01 331.092 287.854 324.476 297.129 316.8 305.644 315.312 307.306 315.439 309.87 317.101 311.374 318.763 312.862 321.311 312.735 322.83 311.073 330.697 302.352 337.487 292.856 343.216 282.821 343.722 283.28 344.26 283.723 344.751 284.214Z" transform="matrix(1.00068 0 0 1 352.273 126.465)"/><path d="M202.383 286.6C204.631 286.6 206.435 284.795 206.435 282.548L206.435 268.525C254.185 266.404 292.377 226.646 292.377 178.089 292.377 176.063 290.89 174.354 288.895 174.069 269.491 171.331 252.857 173.262 239.152 179.672 238.582 167.39 233.628 141.86 204.886 119.45 203.429 118.31 201.372 118.31 199.9 119.45 171.157 141.861 166.203 167.391 165.634 179.672 151.927 173.246 135.309 171.331 115.89 174.069 113.896 174.354 112.408 176.063 112.408 178.089 112.408 226.629 150.584 266.373 198.318 268.525L198.318 282.548C198.334 284.779 200.138 286.6 202.386 286.6ZM284.193 181.634C282.389 224.084 248.534 258.334 206.419 260.405L206.419 251.082C206.419 250.655 206.704 215.313 230.001 195.07 243.233 183.596 261.466 179.085 284.194 181.633ZM202.395 127.838C230.552 151.199 231.423 177.124 231.074 184.122 228.858 185.594 226.722 187.192 224.696 188.965 212.446 199.601 205.893 213.592 202.379 225.605 198.866 213.592 192.313 199.601 180.079 188.965 178.053 187.208 175.932 185.609 173.716 184.137 173.368 177.126 174.239 151.201 202.395 127.838ZM120.585 181.634C143.314 179.07 161.517 183.581 174.713 195.04 197.995 215.22 198.312 250.736 198.312 251.084L198.312 260.406C156.226 258.333 122.389 224.083 120.582 181.635Z" transform="matrix(1.00068 0 0 1 352.273 126.465)"/><text font-family="Arial,Arial_MSFontService,sans-serif" font-weight="700" font-size="5" transform="matrix(4.05455 0 0 4.05179 352.273 603)">Created by Made x Made</text><text font-family="Arial,Arial_MSFontService,sans-serif" font-weight="700" font-size="5" transform="matrix(4.05455 0 0 4.05179 352.273 623)">from Noun Project</text></g></svg>