<svg width="434" height="408" xmlns="http://www.w3.org/2000/svg" xmlns:xlink="http://www.w3.org/1999/xlink" xml:space="preserve" overflow="hidden"><defs><clipPath id="clip0"><rect x="318" y="58" width="434" height="408"/></clipPath></defs><g clip-path="url(#clip0)" transform="translate(-318 -58)"><path d="M113.909 50.3835C164.924 21.4246 227.972 21.2242 279.188 49.5974 275.474 77.7704 293.506 84.2744 309.565 89.991 317.302 92.7497 325.27 95.6011 331.219 100.687 332.005 101.365 333.038 101.719 334.055 101.719 334.733 101.719 335.396 101.565 336.027 101.242 337.599 100.456 338.509 98.7603 338.355 97.0188 336.428 74.8102 329.832 59.1361 318.828 50.4269 310.105 43.5685 298.669 40.9949 284.783 42.7672 230.687 12.1899 163.736 12.1438 109.64 42.8442 107.544 44.031 106.835 46.6664 108.022 48.7624 109.209 50.8585 111.86 51.5674 113.909 50.3807ZM313.431 57.2572C321.014 63.2523 326.099 73.748 328.534 88.5127 323.371 85.754 317.839 83.7813 312.444 81.8394 296.617 76.1986 284.949 72.0527 287.631 51.139 298.435 50.0756 306.881 52.0791 313.431 57.2576ZM49.5944 115.362C52.1219 115.67 54.5262 115.917 56.7301 115.917 78.9848 115.917 84.8261 99.5802 89.9891 84.9852 92.7479 77.2485 95.5992 69.2803 100.685 63.3313 101.825 61.9905 102.072 60.0948 101.24 58.5226 100.454 56.9506 98.7892 56.0721 97.0168 56.1954 74.8083 58.1219 59.1342 64.7184 50.425 75.7223 43.5666 84.4453 40.993 95.8812 42.7653 109.767 12.188 163.863 12.1418 230.814 42.8423 284.91 43.6283 286.328 45.0924 287.114 46.6337 287.114 47.3426 287.114 48.0978 286.913 48.7605 286.559 50.8565 285.372 51.5655 282.737 50.3788 280.641 21.4199 229.594 21.2195 166.578 49.5928 115.362ZM57.2541 81.0858C63.2492 73.503 73.7449 68.4173 88.5096 65.9822 85.7508 71.1452 83.7782 76.6779 81.8362 82.0722 76.1954 97.9001 72.0495 109.536 51.1359 106.886 50.0724 96.1125 52.076 87.6668 57.2545 81.0858ZM280.634 344.169C229.619 373.128 166.571 373.328 115.355 344.955 119.069 316.782 101.037 310.278 84.978 304.561 77.2413 301.802 69.2731 298.951 63.3242 293.865 61.9833 292.725 60.0877 292.478 58.5154 293.311 56.9434 294.097 56.0341 295.792 56.1882 297.533 58.1147 319.742 64.7112 335.416 75.7151 344.125 82.6658 349.612 91.3426 352.371 101.592 352.371 104.196 352.371 106.955 352.139 109.76 351.785 136.793 367.089 167.016 374.749 197.27 374.749 227.539 374.749 257.841 367.089 284.903 351.708 286.999 350.521 287.708 347.886 286.521 345.79 285.334 343.694 282.73 342.985 280.634 344.171ZM81.1122 337.295C73.5295 331.3 68.4438 320.804 66.0086 306.039 71.1717 308.798 76.7044 310.771 82.0986 312.713 97.9266 318.354 109.594 322.499 106.912 343.413 96.1081 344.477 87.6625 342.473 81.1122 337.295ZM351.699 109.646C350.513 107.55 347.877 106.841 345.781 108.028 343.685 109.215 342.976 111.85 344.163 113.946 373.122 164.961 373.322 228.009 344.949 279.225 316.822 275.511 310.272 293.543 304.555 309.602 301.797 317.339 298.945 325.307 293.86 331.256 292.719 332.597 292.473 334.492 293.305 336.065 294.06 337.529 295.555 338.438 297.173 338.438L297.574 338.438C319.783 336.511 335.457 329.915 344.166 318.911 351.024 310.188 353.598 298.752 351.826 284.866 382.357 230.695 382.403 163.745 351.702 109.649ZM337.289 313.437C331.294 321.02 320.799 326.105 306.003 328.54 308.762 323.377 310.735 317.845 312.676 312.45 317.763 298.133 321.631 287.237 337.813 287.237 339.555 287.237 341.404 287.36 343.423 287.637 344.471 298.441 342.468 306.887 337.289 313.437ZM197.273 68.4951C126.255 68.4951 68.4895 126.26 68.4895 197.279 68.4895 268.297 126.255 326.062 197.273 326.062 268.291 326.062 326.057 268.297 326.057 197.279 326.057 126.26 268.291 68.4951 197.273 68.4951ZM139.385 197.279C139.385 183.423 140.603 170.061 142.776 157.548 159.667 163.266 178.208 166.379 197.259 166.379 216.309 166.379 234.895 163.266 251.742 157.548 253.915 170.063 255.132 183.425 255.132 197.279 255.132 211.133 253.915 224.496 251.742 237.009 234.85 231.292 216.309 228.178 197.259 228.178 178.208 228.178 159.623 231.291 142.776 237.009 140.572 224.495 139.385 211.133 139.385 197.279ZM260.168 154.435C274.454 148.64 287.231 140.857 297.696 131.471 310.117 150.413 317.423 173.021 317.423 197.281 317.423 221.586 310.164 244.197 297.696 263.092 287.246 253.66 274.454 245.923 260.168 240.128 262.541 226.797 263.836 212.387 263.836 197.284 263.836 182.182 262.526 167.77 260.168 154.44ZM292.641 124.335C283.178 133.058 271.573 140.348 258.519 145.835 252.169 116.999 240.61 93.834 225.969 80.6561 252.863 87.2372 276.258 102.988 292.639 124.332ZM250.105 148.995C233.845 154.666 215.813 157.749 197.271 157.749 178.729 157.749 160.699 154.666 144.438 148.995 153.638 107.121 174.105 77.1439 197.271 77.1439 220.437 77.1439 240.904 107.12 250.105 148.995ZM168.592 80.6593C153.95 93.8829 142.391 117 136.042 145.838 122.988 140.352 111.336 133.092 101.92 124.339 118.287 102.993 141.682 87.2423 168.59 80.6625ZM96.8633 131.473C107.312 140.905 120.104 148.642 134.391 154.437 132.018 167.768 130.723 182.178 130.723 197.28 130.723 212.383 132.018 226.748 134.391 240.124 120.104 245.919 107.328 253.702 96.8633 263.088 84.4414 244.146 77.136 221.538 77.136 197.277 77.136 172.973 84.426 150.362 96.8633 131.467ZM101.903 270.227C111.366 261.504 122.971 254.214 136.025 248.727 142.374 277.563 153.933 300.728 168.575 313.906 141.681 307.279 118.286 291.574 101.904 270.23ZM144.439 245.537C160.698 239.896 178.73 236.783 197.272 236.783 215.814 236.783 233.845 239.865 250.106 245.537 240.905 287.441 220.438 317.419 197.272 317.419 174.107 317.419 153.64 287.443 144.439 245.537ZM225.952 313.904C240.593 300.68 252.152 277.562 258.502 248.725 271.556 254.211 283.207 261.47 292.624 270.224 276.256 291.57 252.861 307.274 225.953 313.9Z" transform="matrix(1 0 0 1.00097 337.727 66.5646)"/><text font-family="Arial,Arial_MSFontService,sans-serif" font-weight="700" font-size="5" transform="matrix(3.94545 0 0 3.94928 337.727 531)">Created by SANDI A</text><text font-family="Arial,Arial_MSFontService,sans-serif" font-weight="700" font-size="5" transform="matrix(3.94545 0 0 3.94928 337.727 550)">from Noun Project</text></g></svg>